G75*
%MOIN*%
%OFA0B0*%
%FSLAX25Y25*%
%IPPOS*%
%LPD*%
%AMOC8*
5,1,8,0,0,1.08239X$1,22.5*
%
%ADD10C,0.00000*%
%ADD11C,0.00300*%
%ADD12C,0.00500*%
%ADD13R,0.01181X0.00591*%
%ADD14R,0.01181X0.01181*%
%ADD15C,0.00400*%
D10*
X0009166Y0005337D02*
X0009166Y0332109D01*
X0402866Y0332109D01*
X0402866Y0005337D01*
X0009166Y0005337D01*
X0019795Y0080928D02*
X0019797Y0081059D01*
X0019803Y0081191D01*
X0019813Y0081322D01*
X0019827Y0081453D01*
X0019845Y0081583D01*
X0019867Y0081712D01*
X0019892Y0081841D01*
X0019922Y0081969D01*
X0019956Y0082096D01*
X0019993Y0082223D01*
X0020034Y0082347D01*
X0020079Y0082471D01*
X0020128Y0082593D01*
X0020180Y0082714D01*
X0020236Y0082832D01*
X0020296Y0082950D01*
X0020359Y0083065D01*
X0020426Y0083178D01*
X0020496Y0083290D01*
X0020569Y0083399D01*
X0020645Y0083505D01*
X0020725Y0083610D01*
X0020808Y0083712D01*
X0020894Y0083811D01*
X0020983Y0083908D01*
X0021075Y0084002D01*
X0021170Y0084093D01*
X0021267Y0084182D01*
X0021367Y0084267D01*
X0021470Y0084349D01*
X0021575Y0084428D01*
X0021682Y0084504D01*
X0021792Y0084576D01*
X0021904Y0084645D01*
X0022018Y0084711D01*
X0022133Y0084773D01*
X0022251Y0084832D01*
X0022370Y0084887D01*
X0022491Y0084939D01*
X0022614Y0084986D01*
X0022738Y0085030D01*
X0022863Y0085071D01*
X0022989Y0085107D01*
X0023117Y0085140D01*
X0023245Y0085168D01*
X0023374Y0085193D01*
X0023504Y0085214D01*
X0023634Y0085231D01*
X0023765Y0085244D01*
X0023896Y0085253D01*
X0024027Y0085258D01*
X0024159Y0085259D01*
X0024290Y0085256D01*
X0024422Y0085249D01*
X0024553Y0085238D01*
X0024683Y0085223D01*
X0024813Y0085204D01*
X0024943Y0085181D01*
X0025071Y0085155D01*
X0025199Y0085124D01*
X0025326Y0085089D01*
X0025452Y0085051D01*
X0025576Y0085009D01*
X0025700Y0084963D01*
X0025821Y0084913D01*
X0025941Y0084860D01*
X0026060Y0084803D01*
X0026177Y0084743D01*
X0026291Y0084679D01*
X0026404Y0084611D01*
X0026515Y0084540D01*
X0026624Y0084466D01*
X0026730Y0084389D01*
X0026834Y0084308D01*
X0026935Y0084225D01*
X0027034Y0084138D01*
X0027130Y0084048D01*
X0027223Y0083955D01*
X0027314Y0083860D01*
X0027401Y0083762D01*
X0027486Y0083661D01*
X0027567Y0083558D01*
X0027645Y0083452D01*
X0027720Y0083344D01*
X0027792Y0083234D01*
X0027860Y0083122D01*
X0027925Y0083008D01*
X0027986Y0082891D01*
X0028044Y0082773D01*
X0028098Y0082653D01*
X0028149Y0082532D01*
X0028196Y0082409D01*
X0028239Y0082285D01*
X0028278Y0082160D01*
X0028314Y0082033D01*
X0028345Y0081905D01*
X0028373Y0081777D01*
X0028397Y0081648D01*
X0028417Y0081518D01*
X0028433Y0081387D01*
X0028445Y0081256D01*
X0028453Y0081125D01*
X0028457Y0080994D01*
X0028457Y0080862D01*
X0028453Y0080731D01*
X0028445Y0080600D01*
X0028433Y0080469D01*
X0028417Y0080338D01*
X0028397Y0080208D01*
X0028373Y0080079D01*
X0028345Y0079951D01*
X0028314Y0079823D01*
X0028278Y0079696D01*
X0028239Y0079571D01*
X0028196Y0079447D01*
X0028149Y0079324D01*
X0028098Y0079203D01*
X0028044Y0079083D01*
X0027986Y0078965D01*
X0027925Y0078848D01*
X0027860Y0078734D01*
X0027792Y0078622D01*
X0027720Y0078512D01*
X0027645Y0078404D01*
X0027567Y0078298D01*
X0027486Y0078195D01*
X0027401Y0078094D01*
X0027314Y0077996D01*
X0027223Y0077901D01*
X0027130Y0077808D01*
X0027034Y0077718D01*
X0026935Y0077631D01*
X0026834Y0077548D01*
X0026730Y0077467D01*
X0026624Y0077390D01*
X0026515Y0077316D01*
X0026404Y0077245D01*
X0026292Y0077177D01*
X0026177Y0077113D01*
X0026060Y0077053D01*
X0025941Y0076996D01*
X0025821Y0076943D01*
X0025700Y0076893D01*
X0025576Y0076847D01*
X0025452Y0076805D01*
X0025326Y0076767D01*
X0025199Y0076732D01*
X0025071Y0076701D01*
X0024943Y0076675D01*
X0024813Y0076652D01*
X0024683Y0076633D01*
X0024553Y0076618D01*
X0024422Y0076607D01*
X0024290Y0076600D01*
X0024159Y0076597D01*
X0024027Y0076598D01*
X0023896Y0076603D01*
X0023765Y0076612D01*
X0023634Y0076625D01*
X0023504Y0076642D01*
X0023374Y0076663D01*
X0023245Y0076688D01*
X0023117Y0076716D01*
X0022989Y0076749D01*
X0022863Y0076785D01*
X0022738Y0076826D01*
X0022614Y0076870D01*
X0022491Y0076917D01*
X0022370Y0076969D01*
X0022251Y0077024D01*
X0022133Y0077083D01*
X0022018Y0077145D01*
X0021904Y0077211D01*
X0021792Y0077280D01*
X0021682Y0077352D01*
X0021575Y0077428D01*
X0021470Y0077507D01*
X0021367Y0077589D01*
X0021267Y0077674D01*
X0021170Y0077763D01*
X0021075Y0077854D01*
X0020983Y0077948D01*
X0020894Y0078045D01*
X0020808Y0078144D01*
X0020725Y0078246D01*
X0020645Y0078351D01*
X0020569Y0078457D01*
X0020496Y0078566D01*
X0020426Y0078678D01*
X0020359Y0078791D01*
X0020296Y0078906D01*
X0020236Y0079024D01*
X0020180Y0079142D01*
X0020128Y0079263D01*
X0020079Y0079385D01*
X0020034Y0079509D01*
X0019993Y0079633D01*
X0019956Y0079760D01*
X0019922Y0079887D01*
X0019892Y0080015D01*
X0019867Y0080144D01*
X0019845Y0080273D01*
X0019827Y0080403D01*
X0019813Y0080534D01*
X0019803Y0080665D01*
X0019797Y0080797D01*
X0019795Y0080928D01*
X0019795Y0100613D02*
X0019797Y0100744D01*
X0019803Y0100876D01*
X0019813Y0101007D01*
X0019827Y0101138D01*
X0019845Y0101268D01*
X0019867Y0101397D01*
X0019892Y0101526D01*
X0019922Y0101654D01*
X0019956Y0101781D01*
X0019993Y0101908D01*
X0020034Y0102032D01*
X0020079Y0102156D01*
X0020128Y0102278D01*
X0020180Y0102399D01*
X0020236Y0102517D01*
X0020296Y0102635D01*
X0020359Y0102750D01*
X0020426Y0102863D01*
X0020496Y0102975D01*
X0020569Y0103084D01*
X0020645Y0103190D01*
X0020725Y0103295D01*
X0020808Y0103397D01*
X0020894Y0103496D01*
X0020983Y0103593D01*
X0021075Y0103687D01*
X0021170Y0103778D01*
X0021267Y0103867D01*
X0021367Y0103952D01*
X0021470Y0104034D01*
X0021575Y0104113D01*
X0021682Y0104189D01*
X0021792Y0104261D01*
X0021904Y0104330D01*
X0022018Y0104396D01*
X0022133Y0104458D01*
X0022251Y0104517D01*
X0022370Y0104572D01*
X0022491Y0104624D01*
X0022614Y0104671D01*
X0022738Y0104715D01*
X0022863Y0104756D01*
X0022989Y0104792D01*
X0023117Y0104825D01*
X0023245Y0104853D01*
X0023374Y0104878D01*
X0023504Y0104899D01*
X0023634Y0104916D01*
X0023765Y0104929D01*
X0023896Y0104938D01*
X0024027Y0104943D01*
X0024159Y0104944D01*
X0024290Y0104941D01*
X0024422Y0104934D01*
X0024553Y0104923D01*
X0024683Y0104908D01*
X0024813Y0104889D01*
X0024943Y0104866D01*
X0025071Y0104840D01*
X0025199Y0104809D01*
X0025326Y0104774D01*
X0025452Y0104736D01*
X0025576Y0104694D01*
X0025700Y0104648D01*
X0025821Y0104598D01*
X0025941Y0104545D01*
X0026060Y0104488D01*
X0026177Y0104428D01*
X0026291Y0104364D01*
X0026404Y0104296D01*
X0026515Y0104225D01*
X0026624Y0104151D01*
X0026730Y0104074D01*
X0026834Y0103993D01*
X0026935Y0103910D01*
X0027034Y0103823D01*
X0027130Y0103733D01*
X0027223Y0103640D01*
X0027314Y0103545D01*
X0027401Y0103447D01*
X0027486Y0103346D01*
X0027567Y0103243D01*
X0027645Y0103137D01*
X0027720Y0103029D01*
X0027792Y0102919D01*
X0027860Y0102807D01*
X0027925Y0102693D01*
X0027986Y0102576D01*
X0028044Y0102458D01*
X0028098Y0102338D01*
X0028149Y0102217D01*
X0028196Y0102094D01*
X0028239Y0101970D01*
X0028278Y0101845D01*
X0028314Y0101718D01*
X0028345Y0101590D01*
X0028373Y0101462D01*
X0028397Y0101333D01*
X0028417Y0101203D01*
X0028433Y0101072D01*
X0028445Y0100941D01*
X0028453Y0100810D01*
X0028457Y0100679D01*
X0028457Y0100547D01*
X0028453Y0100416D01*
X0028445Y0100285D01*
X0028433Y0100154D01*
X0028417Y0100023D01*
X0028397Y0099893D01*
X0028373Y0099764D01*
X0028345Y0099636D01*
X0028314Y0099508D01*
X0028278Y0099381D01*
X0028239Y0099256D01*
X0028196Y0099132D01*
X0028149Y0099009D01*
X0028098Y0098888D01*
X0028044Y0098768D01*
X0027986Y0098650D01*
X0027925Y0098533D01*
X0027860Y0098419D01*
X0027792Y0098307D01*
X0027720Y0098197D01*
X0027645Y0098089D01*
X0027567Y0097983D01*
X0027486Y0097880D01*
X0027401Y0097779D01*
X0027314Y0097681D01*
X0027223Y0097586D01*
X0027130Y0097493D01*
X0027034Y0097403D01*
X0026935Y0097316D01*
X0026834Y0097233D01*
X0026730Y0097152D01*
X0026624Y0097075D01*
X0026515Y0097001D01*
X0026404Y0096930D01*
X0026292Y0096862D01*
X0026177Y0096798D01*
X0026060Y0096738D01*
X0025941Y0096681D01*
X0025821Y0096628D01*
X0025700Y0096578D01*
X0025576Y0096532D01*
X0025452Y0096490D01*
X0025326Y0096452D01*
X0025199Y0096417D01*
X0025071Y0096386D01*
X0024943Y0096360D01*
X0024813Y0096337D01*
X0024683Y0096318D01*
X0024553Y0096303D01*
X0024422Y0096292D01*
X0024290Y0096285D01*
X0024159Y0096282D01*
X0024027Y0096283D01*
X0023896Y0096288D01*
X0023765Y0096297D01*
X0023634Y0096310D01*
X0023504Y0096327D01*
X0023374Y0096348D01*
X0023245Y0096373D01*
X0023117Y0096401D01*
X0022989Y0096434D01*
X0022863Y0096470D01*
X0022738Y0096511D01*
X0022614Y0096555D01*
X0022491Y0096602D01*
X0022370Y0096654D01*
X0022251Y0096709D01*
X0022133Y0096768D01*
X0022018Y0096830D01*
X0021904Y0096896D01*
X0021792Y0096965D01*
X0021682Y0097037D01*
X0021575Y0097113D01*
X0021470Y0097192D01*
X0021367Y0097274D01*
X0021267Y0097359D01*
X0021170Y0097448D01*
X0021075Y0097539D01*
X0020983Y0097633D01*
X0020894Y0097730D01*
X0020808Y0097829D01*
X0020725Y0097931D01*
X0020645Y0098036D01*
X0020569Y0098142D01*
X0020496Y0098251D01*
X0020426Y0098363D01*
X0020359Y0098476D01*
X0020296Y0098591D01*
X0020236Y0098709D01*
X0020180Y0098827D01*
X0020128Y0098948D01*
X0020079Y0099070D01*
X0020034Y0099194D01*
X0019993Y0099318D01*
X0019956Y0099445D01*
X0019922Y0099572D01*
X0019892Y0099700D01*
X0019867Y0099829D01*
X0019845Y0099958D01*
X0019827Y0100088D01*
X0019813Y0100219D01*
X0019803Y0100350D01*
X0019797Y0100482D01*
X0019795Y0100613D01*
D11*
X0194522Y0173636D02*
X0197422Y0173636D01*
X0197422Y0174925D01*
X0197422Y0176132D02*
X0194522Y0176132D01*
X0194522Y0177421D01*
X0194522Y0178622D02*
X0194522Y0179427D01*
X0194522Y0178622D02*
X0197422Y0178622D01*
X0197422Y0179427D01*
X0197423Y0179427D02*
X0197421Y0179482D01*
X0197415Y0179537D01*
X0197406Y0179591D01*
X0197393Y0179644D01*
X0197376Y0179697D01*
X0197356Y0179748D01*
X0197333Y0179798D01*
X0197306Y0179846D01*
X0197275Y0179892D01*
X0197242Y0179936D01*
X0197206Y0179977D01*
X0197167Y0180016D01*
X0197126Y0180052D01*
X0197082Y0180085D01*
X0197036Y0180116D01*
X0196988Y0180143D01*
X0196938Y0180166D01*
X0196887Y0180186D01*
X0196834Y0180203D01*
X0196781Y0180216D01*
X0196727Y0180225D01*
X0196672Y0180231D01*
X0196617Y0180233D01*
X0195328Y0180233D01*
X0195273Y0180231D01*
X0195218Y0180225D01*
X0195164Y0180216D01*
X0195111Y0180203D01*
X0195058Y0180186D01*
X0195007Y0180166D01*
X0194957Y0180143D01*
X0194909Y0180116D01*
X0194863Y0180085D01*
X0194819Y0180052D01*
X0194778Y0180016D01*
X0194739Y0179977D01*
X0194703Y0179936D01*
X0194670Y0179892D01*
X0194639Y0179846D01*
X0194612Y0179798D01*
X0194589Y0179748D01*
X0194569Y0179697D01*
X0194552Y0179644D01*
X0194539Y0179591D01*
X0194530Y0179537D01*
X0194524Y0179482D01*
X0194522Y0179427D01*
X0194522Y0181598D02*
X0194522Y0183209D01*
X0195811Y0182564D02*
X0195811Y0181598D01*
X0194522Y0181598D01*
X0195812Y0182564D02*
X0195814Y0182615D01*
X0195820Y0182665D01*
X0195830Y0182714D01*
X0195844Y0182763D01*
X0195861Y0182810D01*
X0195882Y0182856D01*
X0195907Y0182900D01*
X0195935Y0182943D01*
X0195966Y0182982D01*
X0196001Y0183019D01*
X0196038Y0183054D01*
X0196077Y0183085D01*
X0196120Y0183113D01*
X0196164Y0183138D01*
X0196210Y0183159D01*
X0196257Y0183176D01*
X0196306Y0183190D01*
X0196355Y0183200D01*
X0196405Y0183206D01*
X0196456Y0183208D01*
X0196456Y0183209D02*
X0196778Y0183209D01*
X0196778Y0183208D02*
X0196826Y0183206D01*
X0196874Y0183201D01*
X0196921Y0183192D01*
X0196968Y0183179D01*
X0197013Y0183163D01*
X0197057Y0183144D01*
X0197100Y0183122D01*
X0197141Y0183096D01*
X0197180Y0183067D01*
X0197216Y0183036D01*
X0197250Y0183002D01*
X0197281Y0182966D01*
X0197310Y0182927D01*
X0197336Y0182886D01*
X0197358Y0182843D01*
X0197377Y0182799D01*
X0197393Y0182754D01*
X0197406Y0182707D01*
X0197415Y0182660D01*
X0197420Y0182612D01*
X0197422Y0182564D01*
X0197422Y0181598D01*
X0197422Y0177421D02*
X0197422Y0176132D01*
X0195811Y0176132D02*
X0195811Y0177098D01*
X0197226Y0200683D02*
X0197226Y0201972D01*
X0197226Y0203179D02*
X0194326Y0203179D01*
X0194326Y0204468D01*
X0194326Y0205669D02*
X0194326Y0206474D01*
X0194325Y0206474D02*
X0194327Y0206529D01*
X0194333Y0206584D01*
X0194342Y0206638D01*
X0194355Y0206691D01*
X0194372Y0206744D01*
X0194392Y0206795D01*
X0194415Y0206845D01*
X0194442Y0206893D01*
X0194473Y0206939D01*
X0194506Y0206983D01*
X0194542Y0207024D01*
X0194581Y0207063D01*
X0194622Y0207099D01*
X0194666Y0207132D01*
X0194712Y0207163D01*
X0194760Y0207190D01*
X0194810Y0207213D01*
X0194861Y0207233D01*
X0194914Y0207250D01*
X0194967Y0207263D01*
X0195021Y0207272D01*
X0195076Y0207278D01*
X0195131Y0207280D01*
X0196420Y0207280D01*
X0196475Y0207278D01*
X0196530Y0207272D01*
X0196584Y0207263D01*
X0196637Y0207250D01*
X0196690Y0207233D01*
X0196741Y0207213D01*
X0196791Y0207190D01*
X0196839Y0207163D01*
X0196885Y0207132D01*
X0196929Y0207099D01*
X0196970Y0207063D01*
X0197009Y0207024D01*
X0197045Y0206983D01*
X0197078Y0206939D01*
X0197109Y0206893D01*
X0197136Y0206845D01*
X0197159Y0206795D01*
X0197179Y0206744D01*
X0197196Y0206691D01*
X0197209Y0206638D01*
X0197218Y0206584D01*
X0197224Y0206529D01*
X0197226Y0206474D01*
X0197226Y0205669D01*
X0194326Y0205669D01*
X0195614Y0204146D02*
X0195614Y0203179D01*
X0197226Y0203179D02*
X0197226Y0204468D01*
X0197226Y0200683D02*
X0194326Y0200683D01*
X0194326Y0208645D02*
X0194326Y0209611D01*
X0194328Y0209660D01*
X0194334Y0209709D01*
X0194343Y0209758D01*
X0194356Y0209805D01*
X0194373Y0209852D01*
X0194393Y0209897D01*
X0194416Y0209940D01*
X0194443Y0209982D01*
X0194473Y0210021D01*
X0194506Y0210058D01*
X0194542Y0210092D01*
X0194580Y0210123D01*
X0194620Y0210152D01*
X0194662Y0210177D01*
X0194707Y0210199D01*
X0194752Y0210217D01*
X0194799Y0210232D01*
X0194847Y0210243D01*
X0194896Y0210251D01*
X0194945Y0210255D01*
X0194995Y0210255D01*
X0195044Y0210251D01*
X0195093Y0210243D01*
X0195141Y0210232D01*
X0195188Y0210217D01*
X0195233Y0210199D01*
X0195278Y0210177D01*
X0195320Y0210152D01*
X0195360Y0210123D01*
X0195398Y0210092D01*
X0195434Y0210058D01*
X0195467Y0210021D01*
X0195497Y0209982D01*
X0195524Y0209940D01*
X0195547Y0209897D01*
X0195567Y0209852D01*
X0195584Y0209805D01*
X0195597Y0209758D01*
X0195606Y0209709D01*
X0195612Y0209660D01*
X0195614Y0209611D01*
X0195614Y0208967D01*
X0195614Y0209450D02*
X0195616Y0209505D01*
X0195622Y0209560D01*
X0195631Y0209614D01*
X0195644Y0209667D01*
X0195661Y0209720D01*
X0195681Y0209771D01*
X0195704Y0209821D01*
X0195731Y0209869D01*
X0195762Y0209915D01*
X0195795Y0209959D01*
X0195831Y0210000D01*
X0195870Y0210039D01*
X0195911Y0210075D01*
X0195955Y0210108D01*
X0196001Y0210139D01*
X0196049Y0210166D01*
X0196099Y0210189D01*
X0196150Y0210209D01*
X0196203Y0210226D01*
X0196256Y0210239D01*
X0196310Y0210248D01*
X0196365Y0210254D01*
X0196420Y0210256D01*
X0196475Y0210254D01*
X0196530Y0210248D01*
X0196584Y0210239D01*
X0196637Y0210226D01*
X0196690Y0210209D01*
X0196741Y0210189D01*
X0196791Y0210166D01*
X0196839Y0210139D01*
X0196885Y0210108D01*
X0196929Y0210075D01*
X0196970Y0210039D01*
X0197009Y0210000D01*
X0197045Y0209959D01*
X0197078Y0209915D01*
X0197109Y0209869D01*
X0197136Y0209821D01*
X0197159Y0209771D01*
X0197179Y0209720D01*
X0197196Y0209667D01*
X0197209Y0209614D01*
X0197218Y0209560D01*
X0197224Y0209505D01*
X0197226Y0209450D01*
X0197226Y0208645D01*
X0197226Y0232179D02*
X0197226Y0233468D01*
X0197226Y0234675D02*
X0194326Y0234675D01*
X0194326Y0235964D01*
X0194326Y0237165D02*
X0194326Y0237970D01*
X0194325Y0237970D02*
X0194327Y0238025D01*
X0194333Y0238080D01*
X0194342Y0238134D01*
X0194355Y0238187D01*
X0194372Y0238240D01*
X0194392Y0238291D01*
X0194415Y0238341D01*
X0194442Y0238389D01*
X0194473Y0238435D01*
X0194506Y0238479D01*
X0194542Y0238520D01*
X0194581Y0238559D01*
X0194622Y0238595D01*
X0194666Y0238628D01*
X0194712Y0238659D01*
X0194760Y0238686D01*
X0194810Y0238709D01*
X0194861Y0238729D01*
X0194914Y0238746D01*
X0194967Y0238759D01*
X0195021Y0238768D01*
X0195076Y0238774D01*
X0195131Y0238776D01*
X0196420Y0238776D01*
X0196475Y0238774D01*
X0196530Y0238768D01*
X0196584Y0238759D01*
X0196637Y0238746D01*
X0196690Y0238729D01*
X0196741Y0238709D01*
X0196791Y0238686D01*
X0196839Y0238659D01*
X0196885Y0238628D01*
X0196929Y0238595D01*
X0196970Y0238559D01*
X0197009Y0238520D01*
X0197045Y0238479D01*
X0197078Y0238435D01*
X0197109Y0238389D01*
X0197136Y0238341D01*
X0197159Y0238291D01*
X0197179Y0238240D01*
X0197196Y0238187D01*
X0197209Y0238134D01*
X0197218Y0238080D01*
X0197224Y0238025D01*
X0197226Y0237970D01*
X0197226Y0237165D01*
X0194326Y0237165D01*
X0195614Y0235642D02*
X0195614Y0234675D01*
X0197226Y0234675D02*
X0197226Y0235964D01*
X0197226Y0232179D02*
X0194326Y0232179D01*
X0194970Y0240141D02*
X0194326Y0240946D01*
X0197226Y0240946D01*
X0197226Y0240141D02*
X0197226Y0241752D01*
X0237633Y0238364D02*
X0237633Y0237559D01*
X0240533Y0237559D01*
X0240533Y0238364D01*
X0240531Y0238419D01*
X0240525Y0238474D01*
X0240516Y0238528D01*
X0240503Y0238581D01*
X0240486Y0238634D01*
X0240466Y0238685D01*
X0240443Y0238735D01*
X0240416Y0238783D01*
X0240385Y0238829D01*
X0240352Y0238873D01*
X0240316Y0238914D01*
X0240277Y0238953D01*
X0240236Y0238989D01*
X0240192Y0239022D01*
X0240146Y0239053D01*
X0240098Y0239080D01*
X0240048Y0239103D01*
X0239997Y0239123D01*
X0239944Y0239140D01*
X0239891Y0239153D01*
X0239837Y0239162D01*
X0239782Y0239168D01*
X0239727Y0239170D01*
X0238438Y0239170D01*
X0238383Y0239168D01*
X0238328Y0239162D01*
X0238274Y0239153D01*
X0238221Y0239140D01*
X0238168Y0239123D01*
X0238117Y0239103D01*
X0238067Y0239080D01*
X0238019Y0239053D01*
X0237973Y0239022D01*
X0237929Y0238989D01*
X0237888Y0238953D01*
X0237849Y0238914D01*
X0237813Y0238873D01*
X0237780Y0238829D01*
X0237749Y0238783D01*
X0237722Y0238735D01*
X0237699Y0238685D01*
X0237679Y0238634D01*
X0237662Y0238581D01*
X0237649Y0238528D01*
X0237640Y0238474D01*
X0237634Y0238419D01*
X0237632Y0238364D01*
X0237633Y0236358D02*
X0237633Y0235069D01*
X0240533Y0235069D01*
X0240533Y0236358D01*
X0238922Y0236035D02*
X0238922Y0235069D01*
X0240533Y0233862D02*
X0240533Y0232573D01*
X0237633Y0232573D01*
X0240533Y0240535D02*
X0238922Y0241904D01*
X0237633Y0241421D02*
X0237635Y0241362D01*
X0237640Y0241304D01*
X0237650Y0241246D01*
X0237662Y0241189D01*
X0237679Y0241133D01*
X0237698Y0241078D01*
X0237722Y0241024D01*
X0237748Y0240972D01*
X0237778Y0240922D01*
X0237811Y0240873D01*
X0237847Y0240827D01*
X0237886Y0240783D01*
X0237927Y0240742D01*
X0237971Y0240703D01*
X0238017Y0240667D01*
X0238066Y0240635D01*
X0238116Y0240605D01*
X0238168Y0240578D01*
X0238222Y0240555D01*
X0238277Y0240535D01*
X0238922Y0241904D02*
X0238885Y0241941D01*
X0238845Y0241975D01*
X0238803Y0242007D01*
X0238758Y0242035D01*
X0238712Y0242061D01*
X0238665Y0242083D01*
X0238616Y0242102D01*
X0238566Y0242118D01*
X0238515Y0242130D01*
X0238463Y0242139D01*
X0238411Y0242144D01*
X0238358Y0242146D01*
X0238306Y0242144D01*
X0238255Y0242139D01*
X0238204Y0242129D01*
X0238154Y0242117D01*
X0238105Y0242100D01*
X0238057Y0242080D01*
X0238011Y0242057D01*
X0237966Y0242031D01*
X0237924Y0242001D01*
X0237883Y0241969D01*
X0237845Y0241934D01*
X0237810Y0241896D01*
X0237778Y0241855D01*
X0237748Y0241813D01*
X0237722Y0241768D01*
X0237699Y0241722D01*
X0237679Y0241674D01*
X0237662Y0241625D01*
X0237650Y0241575D01*
X0237640Y0241524D01*
X0237635Y0241473D01*
X0237633Y0241421D01*
X0240533Y0242146D02*
X0240533Y0240535D01*
X0239888Y0210256D02*
X0239888Y0208645D01*
X0237633Y0209289D01*
X0239244Y0209773D02*
X0240533Y0209773D01*
X0239727Y0207280D02*
X0238438Y0207280D01*
X0238383Y0207278D01*
X0238328Y0207272D01*
X0238274Y0207263D01*
X0238221Y0207250D01*
X0238168Y0207233D01*
X0238117Y0207213D01*
X0238067Y0207190D01*
X0238019Y0207163D01*
X0237973Y0207132D01*
X0237929Y0207099D01*
X0237888Y0207063D01*
X0237849Y0207024D01*
X0237813Y0206983D01*
X0237780Y0206939D01*
X0237749Y0206893D01*
X0237722Y0206845D01*
X0237699Y0206795D01*
X0237679Y0206744D01*
X0237662Y0206691D01*
X0237649Y0206638D01*
X0237640Y0206584D01*
X0237634Y0206529D01*
X0237632Y0206474D01*
X0237633Y0206474D02*
X0237633Y0205669D01*
X0240533Y0205669D01*
X0240533Y0206474D01*
X0240531Y0206529D01*
X0240525Y0206584D01*
X0240516Y0206638D01*
X0240503Y0206691D01*
X0240486Y0206744D01*
X0240466Y0206795D01*
X0240443Y0206845D01*
X0240416Y0206893D01*
X0240385Y0206939D01*
X0240352Y0206983D01*
X0240316Y0207024D01*
X0240277Y0207063D01*
X0240236Y0207099D01*
X0240192Y0207132D01*
X0240146Y0207163D01*
X0240098Y0207190D01*
X0240048Y0207213D01*
X0239997Y0207233D01*
X0239944Y0207250D01*
X0239891Y0207263D01*
X0239837Y0207272D01*
X0239782Y0207278D01*
X0239727Y0207280D01*
X0240533Y0204468D02*
X0240533Y0203179D01*
X0237633Y0203179D01*
X0237633Y0204468D01*
X0238922Y0204146D02*
X0238922Y0203179D01*
X0240533Y0201972D02*
X0240533Y0200683D01*
X0237633Y0200683D01*
X0240196Y0183209D02*
X0240357Y0183209D01*
X0240196Y0183208D02*
X0240148Y0183206D01*
X0240100Y0183201D01*
X0240053Y0183192D01*
X0240006Y0183179D01*
X0239961Y0183163D01*
X0239917Y0183144D01*
X0239874Y0183122D01*
X0239833Y0183096D01*
X0239794Y0183068D01*
X0239758Y0183036D01*
X0239724Y0183002D01*
X0239693Y0182966D01*
X0239664Y0182927D01*
X0239638Y0182886D01*
X0239616Y0182843D01*
X0239597Y0182799D01*
X0239581Y0182754D01*
X0239568Y0182707D01*
X0239559Y0182660D01*
X0239554Y0182612D01*
X0239552Y0182564D01*
X0239551Y0182564D02*
X0239551Y0181598D01*
X0240357Y0181598D01*
X0240357Y0181597D02*
X0240412Y0181599D01*
X0240467Y0181605D01*
X0240521Y0181614D01*
X0240574Y0181627D01*
X0240627Y0181644D01*
X0240678Y0181664D01*
X0240728Y0181687D01*
X0240776Y0181714D01*
X0240822Y0181745D01*
X0240866Y0181778D01*
X0240907Y0181814D01*
X0240946Y0181853D01*
X0240982Y0181894D01*
X0241015Y0181938D01*
X0241046Y0181984D01*
X0241073Y0182032D01*
X0241096Y0182082D01*
X0241116Y0182133D01*
X0241133Y0182186D01*
X0241146Y0182239D01*
X0241155Y0182293D01*
X0241161Y0182348D01*
X0241163Y0182403D01*
X0241161Y0182458D01*
X0241155Y0182513D01*
X0241146Y0182567D01*
X0241133Y0182620D01*
X0241116Y0182673D01*
X0241096Y0182724D01*
X0241073Y0182774D01*
X0241046Y0182822D01*
X0241015Y0182868D01*
X0240982Y0182912D01*
X0240946Y0182953D01*
X0240907Y0182992D01*
X0240866Y0183028D01*
X0240822Y0183061D01*
X0240776Y0183092D01*
X0240728Y0183119D01*
X0240678Y0183142D01*
X0240627Y0183162D01*
X0240574Y0183179D01*
X0240521Y0183192D01*
X0240467Y0183201D01*
X0240412Y0183207D01*
X0240357Y0183209D01*
X0239551Y0181597D02*
X0239481Y0181599D01*
X0239412Y0181605D01*
X0239342Y0181614D01*
X0239274Y0181627D01*
X0239206Y0181644D01*
X0239139Y0181664D01*
X0239074Y0181689D01*
X0239010Y0181716D01*
X0238947Y0181747D01*
X0238886Y0181782D01*
X0238828Y0181819D01*
X0238771Y0181860D01*
X0238717Y0181904D01*
X0238665Y0181950D01*
X0238615Y0182000D01*
X0238569Y0182052D01*
X0238525Y0182106D01*
X0238484Y0182163D01*
X0238447Y0182221D01*
X0238412Y0182282D01*
X0238381Y0182345D01*
X0238354Y0182409D01*
X0238329Y0182474D01*
X0238309Y0182541D01*
X0238292Y0182609D01*
X0238279Y0182677D01*
X0238270Y0182747D01*
X0238264Y0182816D01*
X0238262Y0182886D01*
X0239068Y0180233D02*
X0240357Y0180233D01*
X0240412Y0180231D01*
X0240467Y0180225D01*
X0240521Y0180216D01*
X0240574Y0180203D01*
X0240627Y0180186D01*
X0240678Y0180166D01*
X0240728Y0180143D01*
X0240776Y0180116D01*
X0240822Y0180085D01*
X0240866Y0180052D01*
X0240907Y0180016D01*
X0240946Y0179977D01*
X0240982Y0179936D01*
X0241015Y0179892D01*
X0241046Y0179846D01*
X0241073Y0179798D01*
X0241096Y0179748D01*
X0241116Y0179697D01*
X0241133Y0179644D01*
X0241146Y0179591D01*
X0241155Y0179537D01*
X0241161Y0179482D01*
X0241163Y0179427D01*
X0241163Y0178622D01*
X0238263Y0178622D01*
X0238263Y0179427D01*
X0238262Y0179427D02*
X0238264Y0179482D01*
X0238270Y0179537D01*
X0238279Y0179591D01*
X0238292Y0179644D01*
X0238309Y0179697D01*
X0238329Y0179748D01*
X0238352Y0179798D01*
X0238379Y0179846D01*
X0238410Y0179892D01*
X0238443Y0179936D01*
X0238479Y0179977D01*
X0238518Y0180016D01*
X0238559Y0180052D01*
X0238603Y0180085D01*
X0238649Y0180116D01*
X0238697Y0180143D01*
X0238747Y0180166D01*
X0238798Y0180186D01*
X0238851Y0180203D01*
X0238904Y0180216D01*
X0238958Y0180225D01*
X0239013Y0180231D01*
X0239068Y0180233D01*
X0238263Y0177421D02*
X0238263Y0176132D01*
X0241163Y0176132D01*
X0241163Y0177421D01*
X0239551Y0177098D02*
X0239551Y0176132D01*
X0241163Y0174925D02*
X0241163Y0173636D01*
X0238263Y0173636D01*
X0284906Y0062274D02*
X0284906Y0058637D01*
X0284906Y0060051D02*
X0286927Y0062274D01*
X0285714Y0060859D02*
X0286927Y0058637D01*
X0288935Y0058637D02*
X0289845Y0058637D01*
X0289845Y0060455D01*
X0289845Y0060051D02*
X0288935Y0060051D01*
X0289844Y0060455D02*
X0289842Y0060503D01*
X0289837Y0060550D01*
X0289827Y0060596D01*
X0289814Y0060642D01*
X0289798Y0060687D01*
X0289778Y0060730D01*
X0289755Y0060772D01*
X0289728Y0060811D01*
X0289699Y0060849D01*
X0289667Y0060884D01*
X0289632Y0060916D01*
X0289594Y0060945D01*
X0289555Y0060972D01*
X0289513Y0060995D01*
X0289470Y0061015D01*
X0289425Y0061031D01*
X0289379Y0061044D01*
X0289333Y0061054D01*
X0289286Y0061059D01*
X0289238Y0061061D01*
X0288430Y0061061D01*
X0288935Y0060051D02*
X0288883Y0060049D01*
X0288832Y0060043D01*
X0288781Y0060034D01*
X0288731Y0060021D01*
X0288682Y0060004D01*
X0288635Y0059984D01*
X0288589Y0059961D01*
X0288545Y0059934D01*
X0288503Y0059904D01*
X0288463Y0059871D01*
X0288426Y0059835D01*
X0288392Y0059796D01*
X0288360Y0059755D01*
X0288332Y0059712D01*
X0288306Y0059667D01*
X0288284Y0059621D01*
X0288266Y0059572D01*
X0288251Y0059523D01*
X0288240Y0059472D01*
X0288232Y0059421D01*
X0288228Y0059370D01*
X0288228Y0059318D01*
X0288232Y0059267D01*
X0288240Y0059216D01*
X0288251Y0059165D01*
X0288266Y0059116D01*
X0288284Y0059067D01*
X0288306Y0059021D01*
X0288332Y0058976D01*
X0288360Y0058933D01*
X0288392Y0058892D01*
X0288426Y0058853D01*
X0288463Y0058817D01*
X0288503Y0058784D01*
X0288545Y0058754D01*
X0288589Y0058727D01*
X0288635Y0058704D01*
X0288682Y0058684D01*
X0288731Y0058667D01*
X0288781Y0058654D01*
X0288832Y0058645D01*
X0288883Y0058639D01*
X0288935Y0058637D01*
X0291439Y0059243D02*
X0291439Y0060455D01*
X0291441Y0060503D01*
X0291446Y0060550D01*
X0291456Y0060596D01*
X0291469Y0060642D01*
X0291485Y0060687D01*
X0291505Y0060730D01*
X0291528Y0060772D01*
X0291555Y0060811D01*
X0291584Y0060849D01*
X0291616Y0060884D01*
X0291651Y0060916D01*
X0291689Y0060945D01*
X0291728Y0060972D01*
X0291770Y0060995D01*
X0291813Y0061015D01*
X0291858Y0061031D01*
X0291904Y0061044D01*
X0291950Y0061054D01*
X0291997Y0061059D01*
X0292045Y0061061D01*
X0292853Y0061061D01*
X0294270Y0061061D02*
X0295280Y0061061D01*
X0295328Y0061059D01*
X0295375Y0061054D01*
X0295421Y0061044D01*
X0295467Y0061031D01*
X0295512Y0061015D01*
X0295555Y0060995D01*
X0295597Y0060972D01*
X0295636Y0060945D01*
X0295674Y0060916D01*
X0295709Y0060884D01*
X0295741Y0060849D01*
X0295770Y0060811D01*
X0295797Y0060772D01*
X0295820Y0060730D01*
X0295840Y0060687D01*
X0295856Y0060642D01*
X0295869Y0060596D01*
X0295879Y0060550D01*
X0295884Y0060503D01*
X0295886Y0060455D01*
X0295886Y0058637D01*
X0297440Y0058637D02*
X0297440Y0061061D01*
X0297541Y0062072D02*
X0297339Y0062072D01*
X0297339Y0062274D01*
X0297541Y0062274D01*
X0297541Y0062072D01*
X0298944Y0060051D02*
X0301369Y0060051D01*
X0303195Y0060051D02*
X0304205Y0059647D01*
X0304246Y0059628D01*
X0304286Y0059606D01*
X0304323Y0059580D01*
X0304358Y0059551D01*
X0304391Y0059520D01*
X0304421Y0059485D01*
X0304447Y0059449D01*
X0304471Y0059410D01*
X0304491Y0059369D01*
X0304507Y0059326D01*
X0304519Y0059283D01*
X0304528Y0059238D01*
X0304533Y0059193D01*
X0304534Y0059147D01*
X0304531Y0059102D01*
X0304524Y0059057D01*
X0304513Y0059013D01*
X0304498Y0058970D01*
X0304480Y0058929D01*
X0304458Y0058889D01*
X0304433Y0058851D01*
X0304405Y0058815D01*
X0304373Y0058782D01*
X0304339Y0058752D01*
X0304303Y0058725D01*
X0304264Y0058702D01*
X0304223Y0058681D01*
X0304181Y0058665D01*
X0304138Y0058652D01*
X0304093Y0058643D01*
X0304048Y0058637D01*
X0304003Y0058636D01*
X0304306Y0060860D02*
X0304220Y0060896D01*
X0304132Y0060930D01*
X0304043Y0060959D01*
X0303953Y0060985D01*
X0303862Y0061007D01*
X0303770Y0061026D01*
X0303677Y0061041D01*
X0303584Y0061051D01*
X0303491Y0061059D01*
X0303397Y0061062D01*
X0303396Y0061061D02*
X0303351Y0061060D01*
X0303306Y0061054D01*
X0303261Y0061045D01*
X0303218Y0061032D01*
X0303176Y0061016D01*
X0303135Y0060995D01*
X0303096Y0060972D01*
X0303060Y0060945D01*
X0303026Y0060915D01*
X0302994Y0060882D01*
X0302966Y0060846D01*
X0302941Y0060808D01*
X0302919Y0060768D01*
X0302901Y0060727D01*
X0302886Y0060684D01*
X0302875Y0060640D01*
X0302868Y0060595D01*
X0302865Y0060550D01*
X0302866Y0060504D01*
X0302871Y0060459D01*
X0302880Y0060414D01*
X0302892Y0060371D01*
X0302908Y0060328D01*
X0302928Y0060287D01*
X0302952Y0060248D01*
X0302978Y0060212D01*
X0303008Y0060177D01*
X0303041Y0060146D01*
X0303076Y0060117D01*
X0303113Y0060091D01*
X0303153Y0060069D01*
X0303194Y0060050D01*
X0302892Y0058838D02*
X0302999Y0058802D01*
X0303108Y0058769D01*
X0303217Y0058739D01*
X0303328Y0058713D01*
X0303439Y0058691D01*
X0303551Y0058673D01*
X0303663Y0058658D01*
X0303776Y0058647D01*
X0303890Y0058640D01*
X0304003Y0058636D01*
X0305844Y0057424D02*
X0306249Y0057424D01*
X0307461Y0061061D01*
X0305844Y0061061D02*
X0306653Y0058637D01*
X0307258Y0056368D02*
X0307258Y0052731D01*
X0306248Y0052731D01*
X0306200Y0052733D01*
X0306153Y0052738D01*
X0306107Y0052748D01*
X0306061Y0052761D01*
X0306016Y0052777D01*
X0305973Y0052797D01*
X0305931Y0052820D01*
X0305892Y0052847D01*
X0305854Y0052876D01*
X0305819Y0052908D01*
X0305787Y0052943D01*
X0305758Y0052981D01*
X0305731Y0053020D01*
X0305708Y0053062D01*
X0305688Y0053105D01*
X0305672Y0053150D01*
X0305659Y0053196D01*
X0305649Y0053242D01*
X0305644Y0053289D01*
X0305642Y0053337D01*
X0305642Y0054550D01*
X0305644Y0054598D01*
X0305649Y0054645D01*
X0305659Y0054691D01*
X0305672Y0054737D01*
X0305688Y0054782D01*
X0305708Y0054825D01*
X0305731Y0054867D01*
X0305758Y0054906D01*
X0305787Y0054944D01*
X0305819Y0054979D01*
X0305854Y0055011D01*
X0305892Y0055040D01*
X0305931Y0055067D01*
X0305973Y0055090D01*
X0306016Y0055110D01*
X0306061Y0055126D01*
X0306107Y0055139D01*
X0306153Y0055149D01*
X0306200Y0055154D01*
X0306248Y0055156D01*
X0307258Y0055156D01*
X0304205Y0054348D02*
X0304205Y0053943D01*
X0302589Y0053943D01*
X0302589Y0054348D02*
X0302589Y0053337D01*
X0302591Y0053289D01*
X0302596Y0053242D01*
X0302606Y0053196D01*
X0302619Y0053150D01*
X0302635Y0053105D01*
X0302655Y0053062D01*
X0302678Y0053020D01*
X0302705Y0052981D01*
X0302734Y0052943D01*
X0302766Y0052908D01*
X0302801Y0052876D01*
X0302839Y0052847D01*
X0302878Y0052820D01*
X0302920Y0052797D01*
X0302963Y0052777D01*
X0303008Y0052761D01*
X0303054Y0052748D01*
X0303100Y0052738D01*
X0303147Y0052733D01*
X0303195Y0052731D01*
X0304205Y0052731D01*
X0304205Y0054348D02*
X0304203Y0054403D01*
X0304197Y0054458D01*
X0304188Y0054512D01*
X0304175Y0054566D01*
X0304158Y0054619D01*
X0304138Y0054670D01*
X0304114Y0054720D01*
X0304087Y0054768D01*
X0304057Y0054814D01*
X0304024Y0054858D01*
X0303988Y0054900D01*
X0303949Y0054939D01*
X0303907Y0054975D01*
X0303863Y0055008D01*
X0303817Y0055038D01*
X0303769Y0055065D01*
X0303719Y0055089D01*
X0303668Y0055109D01*
X0303615Y0055126D01*
X0303561Y0055139D01*
X0303507Y0055148D01*
X0303452Y0055154D01*
X0303397Y0055156D01*
X0303342Y0055154D01*
X0303287Y0055148D01*
X0303233Y0055139D01*
X0303179Y0055126D01*
X0303126Y0055109D01*
X0303075Y0055089D01*
X0303025Y0055065D01*
X0302977Y0055038D01*
X0302931Y0055008D01*
X0302887Y0054975D01*
X0302845Y0054939D01*
X0302806Y0054900D01*
X0302770Y0054858D01*
X0302737Y0054814D01*
X0302707Y0054768D01*
X0302680Y0054720D01*
X0302656Y0054670D01*
X0302636Y0054619D01*
X0302619Y0054566D01*
X0302606Y0054512D01*
X0302597Y0054458D01*
X0302591Y0054403D01*
X0302589Y0054348D01*
X0301016Y0054550D02*
X0301016Y0052731D01*
X0299400Y0052731D02*
X0299400Y0055156D01*
X0300410Y0055156D01*
X0300458Y0055154D01*
X0300505Y0055149D01*
X0300551Y0055139D01*
X0300597Y0055126D01*
X0300642Y0055110D01*
X0300685Y0055090D01*
X0300727Y0055067D01*
X0300766Y0055040D01*
X0300804Y0055011D01*
X0300839Y0054979D01*
X0300871Y0054944D01*
X0300900Y0054906D01*
X0300927Y0054867D01*
X0300950Y0054825D01*
X0300970Y0054782D01*
X0300986Y0054737D01*
X0300999Y0054691D01*
X0301009Y0054645D01*
X0301014Y0054598D01*
X0301016Y0054550D01*
X0297691Y0055156D02*
X0297691Y0052125D01*
X0297689Y0052077D01*
X0297684Y0052030D01*
X0297674Y0051984D01*
X0297661Y0051938D01*
X0297645Y0051893D01*
X0297625Y0051850D01*
X0297602Y0051808D01*
X0297575Y0051769D01*
X0297546Y0051731D01*
X0297514Y0051696D01*
X0297479Y0051664D01*
X0297441Y0051635D01*
X0297402Y0051608D01*
X0297360Y0051585D01*
X0297317Y0051565D01*
X0297272Y0051549D01*
X0297226Y0051536D01*
X0297180Y0051526D01*
X0297133Y0051521D01*
X0297085Y0051519D01*
X0296277Y0051519D01*
X0296681Y0052731D02*
X0297691Y0052731D01*
X0296681Y0052731D02*
X0296633Y0052733D01*
X0296586Y0052738D01*
X0296540Y0052748D01*
X0296494Y0052761D01*
X0296449Y0052777D01*
X0296406Y0052797D01*
X0296364Y0052820D01*
X0296325Y0052847D01*
X0296287Y0052876D01*
X0296252Y0052908D01*
X0296220Y0052943D01*
X0296191Y0052981D01*
X0296164Y0053020D01*
X0296141Y0053062D01*
X0296121Y0053105D01*
X0296105Y0053150D01*
X0296092Y0053196D01*
X0296082Y0053242D01*
X0296077Y0053289D01*
X0296075Y0053337D01*
X0296075Y0054550D01*
X0296077Y0054598D01*
X0296082Y0054645D01*
X0296092Y0054691D01*
X0296105Y0054737D01*
X0296121Y0054782D01*
X0296141Y0054825D01*
X0296164Y0054867D01*
X0296191Y0054906D01*
X0296220Y0054944D01*
X0296252Y0054979D01*
X0296287Y0055011D01*
X0296325Y0055040D01*
X0296364Y0055067D01*
X0296406Y0055090D01*
X0296449Y0055110D01*
X0296494Y0055126D01*
X0296540Y0055139D01*
X0296586Y0055149D01*
X0296633Y0055154D01*
X0296681Y0055156D01*
X0297691Y0055156D01*
X0294657Y0055156D02*
X0294657Y0052731D01*
X0292716Y0052731D02*
X0292761Y0052732D01*
X0292806Y0052738D01*
X0292851Y0052747D01*
X0292894Y0052760D01*
X0292936Y0052776D01*
X0292977Y0052797D01*
X0293016Y0052820D01*
X0293052Y0052847D01*
X0293086Y0052877D01*
X0293118Y0052910D01*
X0293146Y0052946D01*
X0293171Y0052984D01*
X0293193Y0053024D01*
X0293211Y0053065D01*
X0293226Y0053108D01*
X0293237Y0053152D01*
X0293244Y0053197D01*
X0293247Y0053242D01*
X0293246Y0053288D01*
X0293241Y0053333D01*
X0293232Y0053378D01*
X0293220Y0053421D01*
X0293204Y0053464D01*
X0293184Y0053505D01*
X0293160Y0053544D01*
X0293134Y0053580D01*
X0293104Y0053615D01*
X0293071Y0053646D01*
X0293036Y0053675D01*
X0292999Y0053701D01*
X0292959Y0053723D01*
X0292918Y0053742D01*
X0292918Y0053741D02*
X0291907Y0054145D01*
X0291866Y0054164D01*
X0291826Y0054186D01*
X0291789Y0054212D01*
X0291754Y0054241D01*
X0291721Y0054272D01*
X0291691Y0054307D01*
X0291665Y0054343D01*
X0291641Y0054382D01*
X0291621Y0054423D01*
X0291605Y0054466D01*
X0291593Y0054509D01*
X0291584Y0054554D01*
X0291579Y0054599D01*
X0291578Y0054645D01*
X0291581Y0054690D01*
X0291588Y0054735D01*
X0291599Y0054779D01*
X0291614Y0054822D01*
X0291632Y0054863D01*
X0291654Y0054903D01*
X0291679Y0054941D01*
X0291707Y0054977D01*
X0291739Y0055010D01*
X0291773Y0055040D01*
X0291809Y0055067D01*
X0291848Y0055090D01*
X0291889Y0055111D01*
X0291931Y0055127D01*
X0291974Y0055140D01*
X0292019Y0055149D01*
X0292064Y0055155D01*
X0292109Y0055156D01*
X0291605Y0052932D02*
X0291712Y0052896D01*
X0291821Y0052863D01*
X0291930Y0052833D01*
X0292041Y0052807D01*
X0292152Y0052785D01*
X0292264Y0052767D01*
X0292376Y0052752D01*
X0292489Y0052741D01*
X0292603Y0052734D01*
X0292716Y0052730D01*
X0293019Y0054954D02*
X0292933Y0054990D01*
X0292845Y0055024D01*
X0292756Y0055053D01*
X0292666Y0055079D01*
X0292575Y0055101D01*
X0292483Y0055120D01*
X0292390Y0055135D01*
X0292297Y0055145D01*
X0292204Y0055153D01*
X0292110Y0055156D01*
X0290150Y0054348D02*
X0290150Y0053943D01*
X0288534Y0053943D01*
X0288534Y0054348D02*
X0288534Y0053337D01*
X0288536Y0053289D01*
X0288541Y0053242D01*
X0288551Y0053196D01*
X0288564Y0053150D01*
X0288580Y0053105D01*
X0288600Y0053062D01*
X0288623Y0053020D01*
X0288650Y0052981D01*
X0288679Y0052943D01*
X0288711Y0052908D01*
X0288746Y0052876D01*
X0288784Y0052847D01*
X0288823Y0052820D01*
X0288865Y0052797D01*
X0288908Y0052777D01*
X0288953Y0052761D01*
X0288999Y0052748D01*
X0289045Y0052738D01*
X0289092Y0052733D01*
X0289140Y0052731D01*
X0290150Y0052731D01*
X0290150Y0054348D02*
X0290148Y0054403D01*
X0290142Y0054458D01*
X0290133Y0054512D01*
X0290120Y0054566D01*
X0290103Y0054619D01*
X0290083Y0054670D01*
X0290059Y0054720D01*
X0290032Y0054768D01*
X0290002Y0054814D01*
X0289969Y0054858D01*
X0289933Y0054900D01*
X0289894Y0054939D01*
X0289852Y0054975D01*
X0289808Y0055008D01*
X0289762Y0055038D01*
X0289714Y0055065D01*
X0289664Y0055089D01*
X0289613Y0055109D01*
X0289560Y0055126D01*
X0289506Y0055139D01*
X0289452Y0055148D01*
X0289397Y0055154D01*
X0289342Y0055156D01*
X0289287Y0055154D01*
X0289232Y0055148D01*
X0289178Y0055139D01*
X0289124Y0055126D01*
X0289071Y0055109D01*
X0289020Y0055089D01*
X0288970Y0055065D01*
X0288922Y0055038D01*
X0288876Y0055008D01*
X0288832Y0054975D01*
X0288790Y0054939D01*
X0288751Y0054900D01*
X0288715Y0054858D01*
X0288682Y0054814D01*
X0288652Y0054768D01*
X0288625Y0054720D01*
X0288601Y0054670D01*
X0288581Y0054619D01*
X0288564Y0054566D01*
X0288551Y0054512D01*
X0288542Y0054458D01*
X0288536Y0054403D01*
X0288534Y0054348D01*
X0286927Y0053741D02*
X0286927Y0055358D01*
X0286925Y0055419D01*
X0286920Y0055480D01*
X0286910Y0055540D01*
X0286898Y0055600D01*
X0286881Y0055658D01*
X0286861Y0055716D01*
X0286838Y0055773D01*
X0286811Y0055827D01*
X0286781Y0055881D01*
X0286748Y0055932D01*
X0286712Y0055981D01*
X0286673Y0056028D01*
X0286631Y0056072D01*
X0286587Y0056114D01*
X0286540Y0056153D01*
X0286491Y0056189D01*
X0286440Y0056222D01*
X0286386Y0056252D01*
X0286332Y0056279D01*
X0286275Y0056302D01*
X0286217Y0056322D01*
X0286159Y0056339D01*
X0286099Y0056351D01*
X0286039Y0056361D01*
X0285978Y0056366D01*
X0285917Y0056368D01*
X0284906Y0056368D01*
X0284906Y0052731D01*
X0285917Y0052731D01*
X0285978Y0052733D01*
X0286039Y0052738D01*
X0286099Y0052748D01*
X0286159Y0052760D01*
X0286217Y0052777D01*
X0286275Y0052797D01*
X0286332Y0052820D01*
X0286386Y0052847D01*
X0286440Y0052877D01*
X0286491Y0052910D01*
X0286540Y0052946D01*
X0286587Y0052985D01*
X0286631Y0053027D01*
X0286673Y0053071D01*
X0286712Y0053118D01*
X0286748Y0053167D01*
X0286781Y0053218D01*
X0286811Y0053272D01*
X0286838Y0053326D01*
X0286861Y0053383D01*
X0286881Y0053441D01*
X0286898Y0053499D01*
X0286910Y0053559D01*
X0286920Y0053619D01*
X0286925Y0053680D01*
X0286927Y0053741D01*
X0294556Y0056166D02*
X0294758Y0056166D01*
X0294758Y0056368D01*
X0294556Y0056368D01*
X0294556Y0056166D01*
X0294270Y0058637D02*
X0294270Y0062274D01*
X0291439Y0059243D02*
X0291441Y0059195D01*
X0291446Y0059148D01*
X0291456Y0059102D01*
X0291469Y0059056D01*
X0291485Y0059011D01*
X0291505Y0058968D01*
X0291528Y0058926D01*
X0291555Y0058887D01*
X0291584Y0058849D01*
X0291616Y0058814D01*
X0291651Y0058782D01*
X0291689Y0058753D01*
X0291728Y0058726D01*
X0291770Y0058703D01*
X0291813Y0058683D01*
X0291858Y0058667D01*
X0291904Y0058654D01*
X0291950Y0058644D01*
X0291997Y0058639D01*
X0292045Y0058637D01*
X0292853Y0058637D01*
X0309100Y0060051D02*
X0310111Y0059647D01*
X0310152Y0059628D01*
X0310192Y0059606D01*
X0310229Y0059580D01*
X0310264Y0059551D01*
X0310297Y0059520D01*
X0310327Y0059485D01*
X0310353Y0059449D01*
X0310377Y0059410D01*
X0310397Y0059369D01*
X0310413Y0059326D01*
X0310425Y0059283D01*
X0310434Y0059238D01*
X0310439Y0059193D01*
X0310440Y0059147D01*
X0310437Y0059102D01*
X0310430Y0059057D01*
X0310419Y0059013D01*
X0310404Y0058970D01*
X0310386Y0058929D01*
X0310364Y0058889D01*
X0310339Y0058851D01*
X0310311Y0058815D01*
X0310279Y0058782D01*
X0310245Y0058752D01*
X0310209Y0058725D01*
X0310170Y0058702D01*
X0310129Y0058681D01*
X0310087Y0058665D01*
X0310044Y0058652D01*
X0309999Y0058643D01*
X0309954Y0058637D01*
X0309909Y0058636D01*
X0310212Y0060860D02*
X0310126Y0060896D01*
X0310038Y0060930D01*
X0309949Y0060959D01*
X0309859Y0060985D01*
X0309768Y0061007D01*
X0309676Y0061026D01*
X0309583Y0061041D01*
X0309490Y0061051D01*
X0309397Y0061059D01*
X0309303Y0061062D01*
X0309302Y0061061D02*
X0309257Y0061060D01*
X0309212Y0061054D01*
X0309167Y0061045D01*
X0309124Y0061032D01*
X0309082Y0061016D01*
X0309041Y0060995D01*
X0309002Y0060972D01*
X0308966Y0060945D01*
X0308932Y0060915D01*
X0308900Y0060882D01*
X0308872Y0060846D01*
X0308847Y0060808D01*
X0308825Y0060768D01*
X0308807Y0060727D01*
X0308792Y0060684D01*
X0308781Y0060640D01*
X0308774Y0060595D01*
X0308771Y0060550D01*
X0308772Y0060504D01*
X0308777Y0060459D01*
X0308786Y0060414D01*
X0308798Y0060371D01*
X0308814Y0060328D01*
X0308834Y0060287D01*
X0308858Y0060248D01*
X0308884Y0060212D01*
X0308914Y0060177D01*
X0308947Y0060146D01*
X0308982Y0060117D01*
X0309019Y0060091D01*
X0309059Y0060069D01*
X0309100Y0060050D01*
X0308797Y0058838D02*
X0308904Y0058802D01*
X0309013Y0058769D01*
X0309122Y0058739D01*
X0309233Y0058713D01*
X0309344Y0058691D01*
X0309456Y0058673D01*
X0309568Y0058658D01*
X0309681Y0058647D01*
X0309795Y0058640D01*
X0309908Y0058636D01*
X0310874Y0056368D02*
X0310874Y0052731D01*
X0311884Y0052731D01*
X0311932Y0052733D01*
X0311979Y0052738D01*
X0312025Y0052748D01*
X0312071Y0052761D01*
X0312116Y0052777D01*
X0312159Y0052797D01*
X0312201Y0052820D01*
X0312240Y0052847D01*
X0312278Y0052876D01*
X0312313Y0052908D01*
X0312345Y0052943D01*
X0312374Y0052981D01*
X0312401Y0053020D01*
X0312424Y0053062D01*
X0312444Y0053105D01*
X0312460Y0053150D01*
X0312473Y0053196D01*
X0312483Y0053242D01*
X0312488Y0053289D01*
X0312490Y0053337D01*
X0312491Y0053337D02*
X0312491Y0054550D01*
X0312490Y0054550D02*
X0312488Y0054598D01*
X0312483Y0054645D01*
X0312473Y0054691D01*
X0312460Y0054737D01*
X0312444Y0054782D01*
X0312424Y0054825D01*
X0312401Y0054867D01*
X0312374Y0054906D01*
X0312345Y0054944D01*
X0312313Y0054979D01*
X0312278Y0055011D01*
X0312240Y0055040D01*
X0312201Y0055067D01*
X0312159Y0055090D01*
X0312116Y0055110D01*
X0312071Y0055126D01*
X0312025Y0055139D01*
X0311979Y0055149D01*
X0311932Y0055154D01*
X0311884Y0055156D01*
X0310874Y0055156D01*
X0313809Y0055156D02*
X0314617Y0052731D01*
X0314213Y0051519D02*
X0315425Y0055156D01*
X0318855Y0054145D02*
X0320876Y0056368D01*
X0319663Y0054954D02*
X0320876Y0052731D01*
X0322884Y0052731D02*
X0323793Y0052731D01*
X0323793Y0054550D01*
X0323793Y0054145D02*
X0322884Y0054145D01*
X0323793Y0054550D02*
X0323791Y0054598D01*
X0323786Y0054645D01*
X0323776Y0054691D01*
X0323763Y0054737D01*
X0323747Y0054782D01*
X0323727Y0054825D01*
X0323704Y0054867D01*
X0323677Y0054906D01*
X0323648Y0054944D01*
X0323616Y0054979D01*
X0323581Y0055011D01*
X0323543Y0055040D01*
X0323504Y0055067D01*
X0323462Y0055090D01*
X0323419Y0055110D01*
X0323374Y0055126D01*
X0323328Y0055139D01*
X0323282Y0055149D01*
X0323235Y0055154D01*
X0323187Y0055156D01*
X0322379Y0055156D01*
X0322884Y0054145D02*
X0322832Y0054143D01*
X0322781Y0054137D01*
X0322730Y0054128D01*
X0322680Y0054115D01*
X0322631Y0054098D01*
X0322584Y0054078D01*
X0322538Y0054055D01*
X0322494Y0054028D01*
X0322452Y0053998D01*
X0322412Y0053965D01*
X0322375Y0053929D01*
X0322341Y0053890D01*
X0322309Y0053849D01*
X0322281Y0053806D01*
X0322255Y0053761D01*
X0322233Y0053715D01*
X0322215Y0053666D01*
X0322200Y0053617D01*
X0322189Y0053566D01*
X0322181Y0053515D01*
X0322177Y0053464D01*
X0322177Y0053412D01*
X0322181Y0053361D01*
X0322189Y0053310D01*
X0322200Y0053259D01*
X0322215Y0053210D01*
X0322233Y0053161D01*
X0322255Y0053115D01*
X0322281Y0053070D01*
X0322309Y0053027D01*
X0322341Y0052986D01*
X0322375Y0052947D01*
X0322412Y0052911D01*
X0322452Y0052878D01*
X0322494Y0052848D01*
X0322538Y0052821D01*
X0322584Y0052798D01*
X0322631Y0052778D01*
X0322680Y0052761D01*
X0322730Y0052748D01*
X0322781Y0052739D01*
X0322832Y0052733D01*
X0322884Y0052731D01*
X0325520Y0052731D02*
X0326530Y0052731D01*
X0326578Y0052733D01*
X0326625Y0052738D01*
X0326671Y0052748D01*
X0326717Y0052761D01*
X0326762Y0052777D01*
X0326805Y0052797D01*
X0326847Y0052820D01*
X0326886Y0052847D01*
X0326924Y0052876D01*
X0326959Y0052908D01*
X0326991Y0052943D01*
X0327020Y0052981D01*
X0327047Y0053020D01*
X0327070Y0053062D01*
X0327090Y0053105D01*
X0327106Y0053150D01*
X0327119Y0053196D01*
X0327129Y0053242D01*
X0327134Y0053289D01*
X0327136Y0053337D01*
X0327136Y0054550D01*
X0327134Y0054598D01*
X0327129Y0054645D01*
X0327119Y0054691D01*
X0327106Y0054737D01*
X0327090Y0054782D01*
X0327070Y0054825D01*
X0327047Y0054867D01*
X0327020Y0054906D01*
X0326991Y0054944D01*
X0326959Y0054979D01*
X0326924Y0055011D01*
X0326886Y0055040D01*
X0326847Y0055067D01*
X0326805Y0055090D01*
X0326762Y0055110D01*
X0326717Y0055126D01*
X0326671Y0055139D01*
X0326625Y0055149D01*
X0326578Y0055154D01*
X0326530Y0055156D01*
X0325520Y0055156D01*
X0325520Y0051519D01*
X0328554Y0052731D02*
X0328554Y0055156D01*
X0328655Y0056166D02*
X0328453Y0056166D01*
X0328453Y0056368D01*
X0328655Y0056368D01*
X0328655Y0056166D01*
X0330126Y0055156D02*
X0330126Y0051519D01*
X0330126Y0052731D02*
X0331136Y0052731D01*
X0331184Y0052733D01*
X0331231Y0052738D01*
X0331277Y0052748D01*
X0331323Y0052761D01*
X0331368Y0052777D01*
X0331411Y0052797D01*
X0331453Y0052820D01*
X0331492Y0052847D01*
X0331530Y0052876D01*
X0331565Y0052908D01*
X0331597Y0052943D01*
X0331626Y0052981D01*
X0331653Y0053020D01*
X0331676Y0053062D01*
X0331696Y0053105D01*
X0331712Y0053150D01*
X0331725Y0053196D01*
X0331735Y0053242D01*
X0331740Y0053289D01*
X0331742Y0053337D01*
X0331742Y0054550D01*
X0331740Y0054598D01*
X0331735Y0054645D01*
X0331725Y0054691D01*
X0331712Y0054737D01*
X0331696Y0054782D01*
X0331676Y0054825D01*
X0331653Y0054867D01*
X0331626Y0054906D01*
X0331597Y0054944D01*
X0331565Y0054979D01*
X0331530Y0055011D01*
X0331492Y0055040D01*
X0331453Y0055067D01*
X0331411Y0055090D01*
X0331368Y0055110D01*
X0331323Y0055126D01*
X0331277Y0055139D01*
X0331231Y0055149D01*
X0331184Y0055154D01*
X0331136Y0055156D01*
X0330126Y0055156D01*
X0333363Y0055156D02*
X0334172Y0055156D01*
X0334220Y0055154D01*
X0334267Y0055149D01*
X0334313Y0055139D01*
X0334359Y0055126D01*
X0334404Y0055110D01*
X0334447Y0055090D01*
X0334489Y0055067D01*
X0334528Y0055040D01*
X0334566Y0055011D01*
X0334601Y0054979D01*
X0334633Y0054944D01*
X0334662Y0054906D01*
X0334689Y0054867D01*
X0334712Y0054825D01*
X0334732Y0054782D01*
X0334748Y0054737D01*
X0334761Y0054691D01*
X0334771Y0054645D01*
X0334776Y0054598D01*
X0334778Y0054550D01*
X0334778Y0052731D01*
X0333868Y0052731D01*
X0333816Y0052733D01*
X0333765Y0052739D01*
X0333714Y0052748D01*
X0333664Y0052761D01*
X0333615Y0052778D01*
X0333568Y0052798D01*
X0333522Y0052821D01*
X0333478Y0052848D01*
X0333436Y0052878D01*
X0333396Y0052911D01*
X0333359Y0052947D01*
X0333325Y0052986D01*
X0333293Y0053027D01*
X0333265Y0053070D01*
X0333239Y0053115D01*
X0333217Y0053161D01*
X0333199Y0053210D01*
X0333184Y0053259D01*
X0333173Y0053310D01*
X0333165Y0053361D01*
X0333161Y0053412D01*
X0333161Y0053464D01*
X0333165Y0053515D01*
X0333173Y0053566D01*
X0333184Y0053617D01*
X0333199Y0053666D01*
X0333217Y0053715D01*
X0333239Y0053761D01*
X0333265Y0053806D01*
X0333293Y0053849D01*
X0333325Y0053890D01*
X0333359Y0053929D01*
X0333396Y0053965D01*
X0333436Y0053998D01*
X0333478Y0054028D01*
X0333522Y0054055D01*
X0333568Y0054078D01*
X0333615Y0054098D01*
X0333664Y0054115D01*
X0333714Y0054128D01*
X0333765Y0054137D01*
X0333816Y0054143D01*
X0333868Y0054145D01*
X0334778Y0054145D01*
X0336506Y0055156D02*
X0336506Y0052731D01*
X0337719Y0054752D02*
X0337719Y0055156D01*
X0336506Y0055156D01*
X0339033Y0055156D02*
X0339841Y0055156D01*
X0339889Y0055154D01*
X0339936Y0055149D01*
X0339982Y0055139D01*
X0340028Y0055126D01*
X0340073Y0055110D01*
X0340116Y0055090D01*
X0340158Y0055067D01*
X0340197Y0055040D01*
X0340235Y0055011D01*
X0340270Y0054979D01*
X0340302Y0054944D01*
X0340331Y0054906D01*
X0340358Y0054867D01*
X0340381Y0054825D01*
X0340401Y0054782D01*
X0340417Y0054737D01*
X0340430Y0054691D01*
X0340440Y0054645D01*
X0340445Y0054598D01*
X0340447Y0054550D01*
X0340447Y0052731D01*
X0339538Y0052731D01*
X0339486Y0052733D01*
X0339435Y0052739D01*
X0339384Y0052748D01*
X0339334Y0052761D01*
X0339285Y0052778D01*
X0339238Y0052798D01*
X0339192Y0052821D01*
X0339148Y0052848D01*
X0339106Y0052878D01*
X0339066Y0052911D01*
X0339029Y0052947D01*
X0338995Y0052986D01*
X0338963Y0053027D01*
X0338935Y0053070D01*
X0338909Y0053115D01*
X0338887Y0053161D01*
X0338869Y0053210D01*
X0338854Y0053259D01*
X0338843Y0053310D01*
X0338835Y0053361D01*
X0338831Y0053412D01*
X0338831Y0053464D01*
X0338835Y0053515D01*
X0338843Y0053566D01*
X0338854Y0053617D01*
X0338869Y0053666D01*
X0338887Y0053715D01*
X0338909Y0053761D01*
X0338935Y0053806D01*
X0338963Y0053849D01*
X0338995Y0053890D01*
X0339029Y0053929D01*
X0339066Y0053965D01*
X0339106Y0053998D01*
X0339148Y0054028D01*
X0339192Y0054055D01*
X0339238Y0054078D01*
X0339285Y0054098D01*
X0339334Y0054115D01*
X0339384Y0054128D01*
X0339435Y0054137D01*
X0339486Y0054143D01*
X0339538Y0054145D01*
X0340447Y0054145D01*
X0343961Y0052731D02*
X0345982Y0052731D01*
X0349222Y0053237D02*
X0349266Y0053331D01*
X0349307Y0053428D01*
X0349344Y0053525D01*
X0349378Y0053624D01*
X0349409Y0053724D01*
X0349436Y0053825D01*
X0349460Y0053927D01*
X0349480Y0054030D01*
X0349496Y0054133D01*
X0349509Y0054237D01*
X0349518Y0054341D01*
X0349523Y0054445D01*
X0349525Y0054550D01*
X0347505Y0054550D02*
X0347507Y0054655D01*
X0347512Y0054759D01*
X0347521Y0054863D01*
X0347534Y0054967D01*
X0347550Y0055070D01*
X0347570Y0055173D01*
X0347594Y0055275D01*
X0347621Y0055376D01*
X0347652Y0055476D01*
X0347686Y0055575D01*
X0347723Y0055672D01*
X0347764Y0055768D01*
X0347808Y0055863D01*
X0348515Y0056369D02*
X0348570Y0056367D01*
X0348624Y0056361D01*
X0348677Y0056351D01*
X0348730Y0056337D01*
X0348782Y0056320D01*
X0348832Y0056298D01*
X0348881Y0056274D01*
X0348927Y0056245D01*
X0348972Y0056213D01*
X0349014Y0056179D01*
X0349053Y0056141D01*
X0349089Y0056100D01*
X0349123Y0056057D01*
X0349153Y0056011D01*
X0349180Y0055964D01*
X0349203Y0055915D01*
X0349223Y0055864D01*
X0349323Y0055560D02*
X0347707Y0053539D01*
X0348515Y0052731D02*
X0348570Y0052733D01*
X0348624Y0052739D01*
X0348677Y0052749D01*
X0348730Y0052763D01*
X0348782Y0052780D01*
X0348832Y0052802D01*
X0348881Y0052826D01*
X0348927Y0052855D01*
X0348972Y0052887D01*
X0349014Y0052921D01*
X0349053Y0052959D01*
X0349089Y0053000D01*
X0349123Y0053043D01*
X0349153Y0053089D01*
X0349180Y0053136D01*
X0349203Y0053185D01*
X0349223Y0053236D01*
X0348515Y0052731D02*
X0348460Y0052733D01*
X0348406Y0052739D01*
X0348353Y0052749D01*
X0348300Y0052763D01*
X0348248Y0052780D01*
X0348198Y0052802D01*
X0348149Y0052826D01*
X0348103Y0052855D01*
X0348058Y0052887D01*
X0348016Y0052921D01*
X0347977Y0052959D01*
X0347941Y0053000D01*
X0347907Y0053043D01*
X0347877Y0053089D01*
X0347850Y0053136D01*
X0347827Y0053185D01*
X0347807Y0053236D01*
X0349525Y0054550D02*
X0349523Y0054655D01*
X0349518Y0054759D01*
X0349509Y0054863D01*
X0349496Y0054967D01*
X0349480Y0055070D01*
X0349460Y0055173D01*
X0349436Y0055275D01*
X0349409Y0055376D01*
X0349378Y0055476D01*
X0349344Y0055575D01*
X0349307Y0055672D01*
X0349266Y0055769D01*
X0349222Y0055863D01*
X0348515Y0056368D02*
X0348460Y0056366D01*
X0348406Y0056360D01*
X0348353Y0056350D01*
X0348300Y0056336D01*
X0348248Y0056319D01*
X0348198Y0056297D01*
X0348149Y0056273D01*
X0348103Y0056244D01*
X0348058Y0056212D01*
X0348016Y0056178D01*
X0347977Y0056140D01*
X0347941Y0056099D01*
X0347907Y0056056D01*
X0347877Y0056010D01*
X0347850Y0055963D01*
X0347827Y0055914D01*
X0347807Y0055863D01*
X0345679Y0054752D02*
X0343961Y0052731D01*
X0343962Y0055560D02*
X0343984Y0055623D01*
X0344010Y0055684D01*
X0344040Y0055744D01*
X0344072Y0055802D01*
X0344108Y0055859D01*
X0344148Y0055913D01*
X0344190Y0055964D01*
X0344235Y0056014D01*
X0344283Y0056060D01*
X0344333Y0056104D01*
X0344386Y0056145D01*
X0344441Y0056182D01*
X0344498Y0056217D01*
X0344557Y0056248D01*
X0344618Y0056276D01*
X0344680Y0056300D01*
X0344744Y0056321D01*
X0344808Y0056338D01*
X0344874Y0056351D01*
X0344940Y0056360D01*
X0345006Y0056366D01*
X0345073Y0056368D01*
X0345132Y0056366D01*
X0345192Y0056360D01*
X0345250Y0056351D01*
X0345308Y0056337D01*
X0345365Y0056320D01*
X0345421Y0056299D01*
X0345475Y0056274D01*
X0345528Y0056246D01*
X0345578Y0056215D01*
X0345626Y0056180D01*
X0345672Y0056142D01*
X0345716Y0056102D01*
X0345756Y0056058D01*
X0345794Y0056012D01*
X0345829Y0055964D01*
X0345860Y0055914D01*
X0345888Y0055861D01*
X0345913Y0055807D01*
X0345934Y0055751D01*
X0345951Y0055694D01*
X0345965Y0055636D01*
X0345974Y0055578D01*
X0345980Y0055518D01*
X0345982Y0055459D01*
X0345980Y0055398D01*
X0345974Y0055338D01*
X0345965Y0055277D01*
X0345952Y0055218D01*
X0345935Y0055160D01*
X0345915Y0055102D01*
X0345891Y0055046D01*
X0345863Y0054992D01*
X0345832Y0054940D01*
X0345798Y0054889D01*
X0345761Y0054841D01*
X0345722Y0054795D01*
X0345679Y0054752D01*
X0343778Y0058637D02*
X0343778Y0061061D01*
X0344990Y0061061D01*
X0344990Y0060657D01*
X0346120Y0060253D02*
X0346120Y0059445D01*
X0346122Y0059390D01*
X0346128Y0059335D01*
X0346137Y0059281D01*
X0346150Y0059227D01*
X0346167Y0059174D01*
X0346187Y0059123D01*
X0346211Y0059073D01*
X0346238Y0059025D01*
X0346268Y0058979D01*
X0346301Y0058935D01*
X0346337Y0058893D01*
X0346376Y0058854D01*
X0346418Y0058818D01*
X0346462Y0058785D01*
X0346508Y0058755D01*
X0346556Y0058728D01*
X0346606Y0058704D01*
X0346657Y0058684D01*
X0346710Y0058667D01*
X0346764Y0058654D01*
X0346818Y0058645D01*
X0346873Y0058639D01*
X0346928Y0058637D01*
X0346983Y0058639D01*
X0347038Y0058645D01*
X0347092Y0058654D01*
X0347146Y0058667D01*
X0347199Y0058684D01*
X0347250Y0058704D01*
X0347300Y0058728D01*
X0347348Y0058755D01*
X0347394Y0058785D01*
X0347438Y0058818D01*
X0347480Y0058854D01*
X0347519Y0058893D01*
X0347555Y0058935D01*
X0347588Y0058979D01*
X0347618Y0059025D01*
X0347645Y0059073D01*
X0347669Y0059123D01*
X0347689Y0059174D01*
X0347706Y0059227D01*
X0347719Y0059281D01*
X0347728Y0059335D01*
X0347734Y0059390D01*
X0347736Y0059445D01*
X0347736Y0060253D01*
X0347734Y0060308D01*
X0347728Y0060363D01*
X0347719Y0060417D01*
X0347706Y0060471D01*
X0347689Y0060524D01*
X0347669Y0060575D01*
X0347645Y0060625D01*
X0347618Y0060673D01*
X0347588Y0060719D01*
X0347555Y0060763D01*
X0347519Y0060805D01*
X0347480Y0060844D01*
X0347438Y0060880D01*
X0347394Y0060913D01*
X0347348Y0060943D01*
X0347300Y0060970D01*
X0347250Y0060994D01*
X0347199Y0061014D01*
X0347146Y0061031D01*
X0347092Y0061044D01*
X0347038Y0061053D01*
X0346983Y0061059D01*
X0346928Y0061061D01*
X0346873Y0061059D01*
X0346818Y0061053D01*
X0346764Y0061044D01*
X0346710Y0061031D01*
X0346657Y0061014D01*
X0346606Y0060994D01*
X0346556Y0060970D01*
X0346508Y0060943D01*
X0346462Y0060913D01*
X0346418Y0060880D01*
X0346376Y0060844D01*
X0346337Y0060805D01*
X0346301Y0060763D01*
X0346268Y0060719D01*
X0346238Y0060673D01*
X0346211Y0060625D01*
X0346187Y0060575D01*
X0346167Y0060524D01*
X0346150Y0060471D01*
X0346137Y0060417D01*
X0346128Y0060363D01*
X0346122Y0060308D01*
X0346120Y0060253D01*
X0349195Y0060455D02*
X0349195Y0059243D01*
X0349197Y0059195D01*
X0349202Y0059148D01*
X0349212Y0059102D01*
X0349225Y0059056D01*
X0349241Y0059011D01*
X0349261Y0058968D01*
X0349284Y0058926D01*
X0349311Y0058887D01*
X0349340Y0058849D01*
X0349372Y0058814D01*
X0349407Y0058782D01*
X0349445Y0058753D01*
X0349484Y0058726D01*
X0349526Y0058703D01*
X0349569Y0058683D01*
X0349614Y0058667D01*
X0349660Y0058654D01*
X0349706Y0058644D01*
X0349753Y0058639D01*
X0349801Y0058637D01*
X0350609Y0058637D01*
X0351907Y0059445D02*
X0351907Y0060253D01*
X0351908Y0060253D02*
X0351910Y0060308D01*
X0351916Y0060363D01*
X0351925Y0060417D01*
X0351938Y0060471D01*
X0351955Y0060524D01*
X0351975Y0060575D01*
X0351999Y0060625D01*
X0352026Y0060673D01*
X0352056Y0060719D01*
X0352089Y0060763D01*
X0352125Y0060805D01*
X0352164Y0060844D01*
X0352206Y0060880D01*
X0352250Y0060913D01*
X0352296Y0060943D01*
X0352344Y0060970D01*
X0352394Y0060994D01*
X0352445Y0061014D01*
X0352498Y0061031D01*
X0352552Y0061044D01*
X0352606Y0061053D01*
X0352661Y0061059D01*
X0352716Y0061061D01*
X0352771Y0061059D01*
X0352826Y0061053D01*
X0352880Y0061044D01*
X0352934Y0061031D01*
X0352987Y0061014D01*
X0353038Y0060994D01*
X0353088Y0060970D01*
X0353136Y0060943D01*
X0353182Y0060913D01*
X0353226Y0060880D01*
X0353268Y0060844D01*
X0353307Y0060805D01*
X0353343Y0060763D01*
X0353376Y0060719D01*
X0353406Y0060673D01*
X0353433Y0060625D01*
X0353457Y0060575D01*
X0353477Y0060524D01*
X0353494Y0060471D01*
X0353507Y0060417D01*
X0353516Y0060363D01*
X0353522Y0060308D01*
X0353524Y0060253D01*
X0353524Y0059445D01*
X0353522Y0059390D01*
X0353516Y0059335D01*
X0353507Y0059281D01*
X0353494Y0059227D01*
X0353477Y0059174D01*
X0353457Y0059123D01*
X0353433Y0059073D01*
X0353406Y0059025D01*
X0353376Y0058979D01*
X0353343Y0058935D01*
X0353307Y0058893D01*
X0353268Y0058854D01*
X0353226Y0058818D01*
X0353182Y0058785D01*
X0353136Y0058755D01*
X0353088Y0058728D01*
X0353038Y0058704D01*
X0352987Y0058684D01*
X0352934Y0058667D01*
X0352880Y0058654D01*
X0352826Y0058645D01*
X0352771Y0058639D01*
X0352716Y0058637D01*
X0352661Y0058639D01*
X0352606Y0058645D01*
X0352552Y0058654D01*
X0352498Y0058667D01*
X0352445Y0058684D01*
X0352394Y0058704D01*
X0352344Y0058728D01*
X0352296Y0058755D01*
X0352250Y0058785D01*
X0352206Y0058818D01*
X0352164Y0058854D01*
X0352125Y0058893D01*
X0352089Y0058935D01*
X0352056Y0058979D01*
X0352026Y0059025D01*
X0351999Y0059073D01*
X0351975Y0059123D01*
X0351955Y0059174D01*
X0351938Y0059227D01*
X0351925Y0059281D01*
X0351916Y0059335D01*
X0351910Y0059390D01*
X0351908Y0059445D01*
X0350609Y0061061D02*
X0349801Y0061061D01*
X0349753Y0061059D01*
X0349706Y0061054D01*
X0349660Y0061044D01*
X0349614Y0061031D01*
X0349569Y0061015D01*
X0349526Y0060995D01*
X0349484Y0060972D01*
X0349445Y0060945D01*
X0349407Y0060916D01*
X0349372Y0060884D01*
X0349340Y0060849D01*
X0349311Y0060811D01*
X0349284Y0060772D01*
X0349261Y0060730D01*
X0349241Y0060687D01*
X0349225Y0060642D01*
X0349212Y0060596D01*
X0349202Y0060550D01*
X0349197Y0060503D01*
X0349195Y0060455D01*
X0352058Y0056368D02*
X0352058Y0052731D01*
X0351048Y0052731D02*
X0353068Y0052731D01*
X0354591Y0053741D02*
X0354593Y0053679D01*
X0354599Y0053617D01*
X0354608Y0053555D01*
X0354622Y0053495D01*
X0354639Y0053435D01*
X0354659Y0053376D01*
X0354683Y0053319D01*
X0354711Y0053263D01*
X0354742Y0053209D01*
X0354777Y0053157D01*
X0354814Y0053108D01*
X0354855Y0053061D01*
X0354898Y0053016D01*
X0354944Y0052974D01*
X0354992Y0052935D01*
X0355043Y0052899D01*
X0355096Y0052866D01*
X0355151Y0052837D01*
X0355207Y0052811D01*
X0355265Y0052788D01*
X0355325Y0052770D01*
X0355385Y0052754D01*
X0355446Y0052743D01*
X0355508Y0052735D01*
X0355570Y0052731D01*
X0355632Y0052731D01*
X0355694Y0052735D01*
X0355756Y0052743D01*
X0355817Y0052754D01*
X0355877Y0052770D01*
X0355937Y0052788D01*
X0355995Y0052811D01*
X0356051Y0052837D01*
X0356106Y0052866D01*
X0356159Y0052899D01*
X0356210Y0052935D01*
X0356258Y0052974D01*
X0356304Y0053016D01*
X0356347Y0053061D01*
X0356388Y0053108D01*
X0356425Y0053157D01*
X0356460Y0053209D01*
X0356491Y0053263D01*
X0356519Y0053319D01*
X0356543Y0053376D01*
X0356563Y0053435D01*
X0356580Y0053495D01*
X0356594Y0053555D01*
X0356603Y0053617D01*
X0356609Y0053679D01*
X0356611Y0053741D01*
X0356609Y0053803D01*
X0356603Y0053865D01*
X0356594Y0053927D01*
X0356580Y0053987D01*
X0356563Y0054047D01*
X0356543Y0054106D01*
X0356519Y0054163D01*
X0356491Y0054219D01*
X0356460Y0054273D01*
X0356425Y0054325D01*
X0356388Y0054374D01*
X0356347Y0054421D01*
X0356304Y0054466D01*
X0356258Y0054508D01*
X0356210Y0054547D01*
X0356159Y0054583D01*
X0356106Y0054616D01*
X0356051Y0054645D01*
X0355995Y0054671D01*
X0355937Y0054694D01*
X0355877Y0054712D01*
X0355817Y0054728D01*
X0355756Y0054739D01*
X0355694Y0054747D01*
X0355632Y0054751D01*
X0355570Y0054751D01*
X0355508Y0054747D01*
X0355446Y0054739D01*
X0355385Y0054728D01*
X0355325Y0054712D01*
X0355265Y0054694D01*
X0355207Y0054671D01*
X0355151Y0054645D01*
X0355096Y0054616D01*
X0355043Y0054583D01*
X0354992Y0054547D01*
X0354944Y0054508D01*
X0354898Y0054466D01*
X0354855Y0054421D01*
X0354814Y0054374D01*
X0354777Y0054325D01*
X0354742Y0054273D01*
X0354711Y0054219D01*
X0354683Y0054163D01*
X0354659Y0054106D01*
X0354639Y0054047D01*
X0354622Y0053987D01*
X0354608Y0053927D01*
X0354599Y0053865D01*
X0354593Y0053803D01*
X0354591Y0053741D01*
X0354793Y0055560D02*
X0354795Y0055505D01*
X0354801Y0055450D01*
X0354810Y0055396D01*
X0354823Y0055342D01*
X0354840Y0055289D01*
X0354860Y0055238D01*
X0354884Y0055188D01*
X0354911Y0055140D01*
X0354941Y0055094D01*
X0354974Y0055050D01*
X0355010Y0055008D01*
X0355049Y0054969D01*
X0355091Y0054933D01*
X0355135Y0054900D01*
X0355181Y0054870D01*
X0355229Y0054843D01*
X0355279Y0054819D01*
X0355330Y0054799D01*
X0355383Y0054782D01*
X0355437Y0054769D01*
X0355491Y0054760D01*
X0355546Y0054754D01*
X0355601Y0054752D01*
X0355656Y0054754D01*
X0355711Y0054760D01*
X0355765Y0054769D01*
X0355819Y0054782D01*
X0355872Y0054799D01*
X0355923Y0054819D01*
X0355973Y0054843D01*
X0356021Y0054870D01*
X0356067Y0054900D01*
X0356111Y0054933D01*
X0356153Y0054969D01*
X0356192Y0055008D01*
X0356228Y0055050D01*
X0356261Y0055094D01*
X0356291Y0055140D01*
X0356318Y0055188D01*
X0356342Y0055238D01*
X0356362Y0055289D01*
X0356379Y0055342D01*
X0356392Y0055396D01*
X0356401Y0055450D01*
X0356407Y0055505D01*
X0356409Y0055560D01*
X0356407Y0055615D01*
X0356401Y0055670D01*
X0356392Y0055724D01*
X0356379Y0055778D01*
X0356362Y0055831D01*
X0356342Y0055882D01*
X0356318Y0055932D01*
X0356291Y0055980D01*
X0356261Y0056026D01*
X0356228Y0056070D01*
X0356192Y0056112D01*
X0356153Y0056151D01*
X0356111Y0056187D01*
X0356067Y0056220D01*
X0356021Y0056250D01*
X0355973Y0056277D01*
X0355923Y0056301D01*
X0355872Y0056321D01*
X0355819Y0056338D01*
X0355765Y0056351D01*
X0355711Y0056360D01*
X0355656Y0056366D01*
X0355601Y0056368D01*
X0355546Y0056366D01*
X0355491Y0056360D01*
X0355437Y0056351D01*
X0355383Y0056338D01*
X0355330Y0056321D01*
X0355279Y0056301D01*
X0355229Y0056277D01*
X0355181Y0056250D01*
X0355135Y0056220D01*
X0355091Y0056187D01*
X0355049Y0056151D01*
X0355010Y0056112D01*
X0354974Y0056070D01*
X0354941Y0056026D01*
X0354911Y0055980D01*
X0354884Y0055932D01*
X0354860Y0055882D01*
X0354840Y0055831D01*
X0354823Y0055778D01*
X0354810Y0055724D01*
X0354801Y0055670D01*
X0354795Y0055615D01*
X0354793Y0055560D01*
X0352058Y0056368D02*
X0351048Y0055560D01*
X0347505Y0054550D02*
X0347507Y0054445D01*
X0347512Y0054341D01*
X0347521Y0054237D01*
X0347534Y0054133D01*
X0347550Y0054030D01*
X0347570Y0053927D01*
X0347594Y0053825D01*
X0347621Y0053724D01*
X0347652Y0053624D01*
X0347686Y0053525D01*
X0347723Y0053428D01*
X0347764Y0053332D01*
X0347808Y0053237D01*
X0355096Y0058637D02*
X0355096Y0061061D01*
X0356107Y0061061D01*
X0356155Y0061059D01*
X0356202Y0061054D01*
X0356248Y0061044D01*
X0356294Y0061031D01*
X0356339Y0061015D01*
X0356382Y0060995D01*
X0356424Y0060972D01*
X0356463Y0060945D01*
X0356501Y0060916D01*
X0356536Y0060884D01*
X0356568Y0060849D01*
X0356597Y0060811D01*
X0356624Y0060772D01*
X0356647Y0060730D01*
X0356667Y0060687D01*
X0356683Y0060642D01*
X0356696Y0060596D01*
X0356706Y0060550D01*
X0356711Y0060503D01*
X0356713Y0060455D01*
X0356713Y0058637D01*
X0359599Y0056772D02*
X0357982Y0052327D01*
X0360969Y0052731D02*
X0362990Y0052731D01*
X0361979Y0052731D02*
X0361979Y0056368D01*
X0360969Y0055560D01*
X0366533Y0054550D02*
X0366531Y0054445D01*
X0366526Y0054341D01*
X0366517Y0054237D01*
X0366504Y0054133D01*
X0366488Y0054030D01*
X0366468Y0053927D01*
X0366444Y0053825D01*
X0366417Y0053724D01*
X0366386Y0053624D01*
X0366352Y0053525D01*
X0366315Y0053428D01*
X0366274Y0053331D01*
X0366230Y0053237D01*
X0366231Y0053236D02*
X0366211Y0053185D01*
X0366188Y0053136D01*
X0366161Y0053089D01*
X0366131Y0053043D01*
X0366097Y0053000D01*
X0366061Y0052959D01*
X0366022Y0052921D01*
X0365980Y0052887D01*
X0365935Y0052855D01*
X0365889Y0052826D01*
X0365840Y0052802D01*
X0365790Y0052780D01*
X0365738Y0052763D01*
X0365685Y0052749D01*
X0365632Y0052739D01*
X0365578Y0052733D01*
X0365523Y0052731D01*
X0365468Y0052733D01*
X0365414Y0052739D01*
X0365361Y0052749D01*
X0365308Y0052763D01*
X0365256Y0052780D01*
X0365206Y0052802D01*
X0365157Y0052826D01*
X0365111Y0052855D01*
X0365066Y0052887D01*
X0365024Y0052921D01*
X0364985Y0052959D01*
X0364949Y0053000D01*
X0364915Y0053043D01*
X0364885Y0053089D01*
X0364858Y0053136D01*
X0364835Y0053185D01*
X0364815Y0053236D01*
X0364714Y0053539D02*
X0366331Y0055560D01*
X0366231Y0055864D02*
X0366211Y0055915D01*
X0366188Y0055964D01*
X0366161Y0056011D01*
X0366131Y0056057D01*
X0366097Y0056100D01*
X0366061Y0056141D01*
X0366022Y0056179D01*
X0365980Y0056213D01*
X0365935Y0056245D01*
X0365889Y0056274D01*
X0365840Y0056298D01*
X0365790Y0056320D01*
X0365738Y0056337D01*
X0365685Y0056351D01*
X0365632Y0056361D01*
X0365578Y0056367D01*
X0365523Y0056369D01*
X0365523Y0056368D02*
X0365468Y0056366D01*
X0365414Y0056360D01*
X0365361Y0056350D01*
X0365308Y0056336D01*
X0365256Y0056319D01*
X0365206Y0056297D01*
X0365157Y0056273D01*
X0365111Y0056244D01*
X0365066Y0056212D01*
X0365024Y0056178D01*
X0364985Y0056140D01*
X0364949Y0056099D01*
X0364915Y0056056D01*
X0364885Y0056010D01*
X0364858Y0055963D01*
X0364835Y0055914D01*
X0364815Y0055863D01*
X0366230Y0055863D02*
X0366274Y0055769D01*
X0366315Y0055672D01*
X0366352Y0055575D01*
X0366386Y0055476D01*
X0366417Y0055376D01*
X0366444Y0055275D01*
X0366468Y0055173D01*
X0366488Y0055070D01*
X0366504Y0054967D01*
X0366517Y0054863D01*
X0366526Y0054759D01*
X0366531Y0054655D01*
X0366533Y0054550D01*
X0364513Y0054550D02*
X0364515Y0054655D01*
X0364520Y0054759D01*
X0364529Y0054863D01*
X0364542Y0054967D01*
X0364558Y0055070D01*
X0364578Y0055173D01*
X0364602Y0055275D01*
X0364629Y0055376D01*
X0364660Y0055476D01*
X0364694Y0055575D01*
X0364731Y0055672D01*
X0364772Y0055768D01*
X0364816Y0055863D01*
X0365099Y0058637D02*
X0364088Y0058637D01*
X0364040Y0058639D01*
X0363993Y0058644D01*
X0363947Y0058654D01*
X0363901Y0058667D01*
X0363856Y0058683D01*
X0363813Y0058703D01*
X0363771Y0058726D01*
X0363732Y0058753D01*
X0363694Y0058782D01*
X0363659Y0058814D01*
X0363627Y0058849D01*
X0363598Y0058887D01*
X0363571Y0058926D01*
X0363548Y0058968D01*
X0363528Y0059011D01*
X0363512Y0059056D01*
X0363499Y0059102D01*
X0363489Y0059148D01*
X0363484Y0059195D01*
X0363482Y0059243D01*
X0363482Y0060253D01*
X0363482Y0059849D02*
X0365099Y0059849D01*
X0365099Y0060253D01*
X0365098Y0060253D02*
X0365096Y0060308D01*
X0365090Y0060363D01*
X0365081Y0060417D01*
X0365068Y0060471D01*
X0365051Y0060524D01*
X0365031Y0060575D01*
X0365007Y0060625D01*
X0364980Y0060673D01*
X0364950Y0060719D01*
X0364917Y0060763D01*
X0364881Y0060805D01*
X0364842Y0060844D01*
X0364800Y0060880D01*
X0364756Y0060913D01*
X0364710Y0060943D01*
X0364662Y0060970D01*
X0364612Y0060994D01*
X0364561Y0061014D01*
X0364508Y0061031D01*
X0364454Y0061044D01*
X0364400Y0061053D01*
X0364345Y0061059D01*
X0364290Y0061061D01*
X0364235Y0061059D01*
X0364180Y0061053D01*
X0364126Y0061044D01*
X0364072Y0061031D01*
X0364019Y0061014D01*
X0363968Y0060994D01*
X0363918Y0060970D01*
X0363870Y0060943D01*
X0363824Y0060913D01*
X0363780Y0060880D01*
X0363738Y0060844D01*
X0363699Y0060805D01*
X0363663Y0060763D01*
X0363630Y0060719D01*
X0363600Y0060673D01*
X0363573Y0060625D01*
X0363549Y0060575D01*
X0363529Y0060524D01*
X0363512Y0060471D01*
X0363499Y0060417D01*
X0363490Y0060363D01*
X0363484Y0060308D01*
X0363482Y0060253D01*
X0361707Y0060152D02*
X0360596Y0060758D01*
X0361000Y0062273D02*
X0361075Y0062271D01*
X0361150Y0062266D01*
X0361224Y0062256D01*
X0361298Y0062243D01*
X0361371Y0062227D01*
X0361443Y0062207D01*
X0361515Y0062183D01*
X0361584Y0062156D01*
X0361653Y0062125D01*
X0361720Y0062091D01*
X0361785Y0062054D01*
X0361848Y0062013D01*
X0361909Y0061970D01*
X0360596Y0060758D02*
X0360551Y0060786D01*
X0360508Y0060818D01*
X0360467Y0060852D01*
X0360429Y0060888D01*
X0360392Y0060927D01*
X0360359Y0060969D01*
X0360328Y0061012D01*
X0360300Y0061058D01*
X0360275Y0061105D01*
X0360253Y0061153D01*
X0360235Y0061203D01*
X0360220Y0061254D01*
X0360208Y0061306D01*
X0360199Y0061359D01*
X0360194Y0061412D01*
X0360192Y0061465D01*
X0360194Y0061520D01*
X0360200Y0061575D01*
X0360209Y0061629D01*
X0360222Y0061683D01*
X0360239Y0061736D01*
X0360259Y0061787D01*
X0360283Y0061837D01*
X0360310Y0061885D01*
X0360340Y0061931D01*
X0360373Y0061975D01*
X0360409Y0062017D01*
X0360449Y0062056D01*
X0360490Y0062092D01*
X0360534Y0062125D01*
X0360580Y0062155D01*
X0360628Y0062182D01*
X0360678Y0062206D01*
X0360729Y0062226D01*
X0360782Y0062243D01*
X0360836Y0062256D01*
X0360890Y0062265D01*
X0360945Y0062271D01*
X0361000Y0062273D01*
X0360091Y0059142D02*
X0360148Y0059087D01*
X0360208Y0059035D01*
X0360270Y0058985D01*
X0360334Y0058939D01*
X0360400Y0058895D01*
X0360468Y0058855D01*
X0360538Y0058818D01*
X0360610Y0058784D01*
X0360683Y0058753D01*
X0360758Y0058726D01*
X0360833Y0058703D01*
X0360910Y0058683D01*
X0360988Y0058666D01*
X0361066Y0058654D01*
X0361145Y0058644D01*
X0361224Y0058639D01*
X0361303Y0058637D01*
X0361358Y0058639D01*
X0361413Y0058645D01*
X0361467Y0058654D01*
X0361521Y0058667D01*
X0361574Y0058684D01*
X0361625Y0058704D01*
X0361675Y0058728D01*
X0361723Y0058755D01*
X0361769Y0058785D01*
X0361813Y0058818D01*
X0361855Y0058854D01*
X0361894Y0058893D01*
X0361930Y0058935D01*
X0361963Y0058979D01*
X0361993Y0059025D01*
X0362020Y0059073D01*
X0362044Y0059123D01*
X0362064Y0059174D01*
X0362081Y0059227D01*
X0362094Y0059281D01*
X0362103Y0059335D01*
X0362109Y0059390D01*
X0362111Y0059445D01*
X0362112Y0059445D02*
X0362110Y0059498D01*
X0362105Y0059551D01*
X0362096Y0059604D01*
X0362084Y0059656D01*
X0362069Y0059707D01*
X0362051Y0059757D01*
X0362029Y0059805D01*
X0362004Y0059852D01*
X0361976Y0059898D01*
X0361945Y0059941D01*
X0361912Y0059983D01*
X0361875Y0060022D01*
X0361837Y0060058D01*
X0361796Y0060092D01*
X0361753Y0060124D01*
X0361708Y0060152D01*
X0366739Y0061061D02*
X0368558Y0061061D01*
X0368606Y0061059D01*
X0368653Y0061054D01*
X0368699Y0061044D01*
X0368745Y0061031D01*
X0368790Y0061015D01*
X0368833Y0060995D01*
X0368875Y0060972D01*
X0368914Y0060945D01*
X0368952Y0060916D01*
X0368987Y0060884D01*
X0369019Y0060849D01*
X0369048Y0060811D01*
X0369075Y0060772D01*
X0369098Y0060730D01*
X0369118Y0060687D01*
X0369134Y0060642D01*
X0369147Y0060596D01*
X0369157Y0060550D01*
X0369162Y0060503D01*
X0369164Y0060455D01*
X0369164Y0058637D01*
X0367952Y0058637D02*
X0367952Y0061061D01*
X0366739Y0061061D02*
X0366739Y0058637D01*
X0369520Y0056772D02*
X0367903Y0052327D01*
X0364816Y0053237D02*
X0364772Y0053332D01*
X0364731Y0053428D01*
X0364694Y0053525D01*
X0364660Y0053624D01*
X0364629Y0053724D01*
X0364602Y0053825D01*
X0364578Y0053927D01*
X0364558Y0054030D01*
X0364542Y0054133D01*
X0364529Y0054237D01*
X0364520Y0054341D01*
X0364515Y0054445D01*
X0364513Y0054550D01*
X0372608Y0053237D02*
X0372652Y0053331D01*
X0372693Y0053428D01*
X0372730Y0053525D01*
X0372764Y0053624D01*
X0372795Y0053724D01*
X0372822Y0053825D01*
X0372846Y0053927D01*
X0372866Y0054030D01*
X0372882Y0054133D01*
X0372895Y0054237D01*
X0372904Y0054341D01*
X0372909Y0054445D01*
X0372911Y0054550D01*
X0370890Y0054550D02*
X0370892Y0054655D01*
X0370897Y0054759D01*
X0370906Y0054863D01*
X0370919Y0054967D01*
X0370935Y0055070D01*
X0370955Y0055173D01*
X0370979Y0055275D01*
X0371006Y0055376D01*
X0371037Y0055476D01*
X0371071Y0055575D01*
X0371108Y0055672D01*
X0371149Y0055768D01*
X0371193Y0055863D01*
X0371901Y0056369D02*
X0371956Y0056367D01*
X0372010Y0056361D01*
X0372063Y0056351D01*
X0372116Y0056337D01*
X0372168Y0056320D01*
X0372218Y0056298D01*
X0372267Y0056274D01*
X0372313Y0056245D01*
X0372358Y0056213D01*
X0372400Y0056179D01*
X0372439Y0056141D01*
X0372475Y0056100D01*
X0372509Y0056057D01*
X0372539Y0056011D01*
X0372566Y0055964D01*
X0372589Y0055915D01*
X0372609Y0055864D01*
X0372709Y0055560D02*
X0371092Y0053539D01*
X0371901Y0052731D02*
X0371956Y0052733D01*
X0372010Y0052739D01*
X0372063Y0052749D01*
X0372116Y0052763D01*
X0372168Y0052780D01*
X0372218Y0052802D01*
X0372267Y0052826D01*
X0372313Y0052855D01*
X0372358Y0052887D01*
X0372400Y0052921D01*
X0372439Y0052959D01*
X0372475Y0053000D01*
X0372509Y0053043D01*
X0372539Y0053089D01*
X0372566Y0053136D01*
X0372589Y0053185D01*
X0372609Y0053236D01*
X0371901Y0052731D02*
X0371846Y0052733D01*
X0371792Y0052739D01*
X0371739Y0052749D01*
X0371686Y0052763D01*
X0371634Y0052780D01*
X0371584Y0052802D01*
X0371535Y0052826D01*
X0371489Y0052855D01*
X0371444Y0052887D01*
X0371402Y0052921D01*
X0371363Y0052959D01*
X0371327Y0053000D01*
X0371293Y0053043D01*
X0371263Y0053089D01*
X0371236Y0053136D01*
X0371213Y0053185D01*
X0371193Y0053236D01*
X0372911Y0054550D02*
X0372909Y0054655D01*
X0372904Y0054759D01*
X0372895Y0054863D01*
X0372882Y0054967D01*
X0372866Y0055070D01*
X0372846Y0055173D01*
X0372822Y0055275D01*
X0372795Y0055376D01*
X0372764Y0055476D01*
X0372730Y0055575D01*
X0372693Y0055672D01*
X0372652Y0055769D01*
X0372608Y0055863D01*
X0371901Y0056368D02*
X0371846Y0056366D01*
X0371792Y0056360D01*
X0371739Y0056350D01*
X0371686Y0056336D01*
X0371634Y0056319D01*
X0371584Y0056297D01*
X0371535Y0056273D01*
X0371489Y0056244D01*
X0371444Y0056212D01*
X0371402Y0056178D01*
X0371363Y0056140D01*
X0371327Y0056099D01*
X0371293Y0056056D01*
X0371263Y0056010D01*
X0371236Y0055963D01*
X0371213Y0055914D01*
X0371193Y0055863D01*
X0370786Y0058637D02*
X0370786Y0061061D01*
X0370887Y0062072D02*
X0370685Y0062072D01*
X0370685Y0062274D01*
X0370887Y0062274D01*
X0370887Y0062072D01*
X0374287Y0062274D02*
X0374287Y0058637D01*
X0374287Y0060253D02*
X0375297Y0060253D01*
X0375499Y0060253D02*
X0376307Y0058637D01*
X0377773Y0059445D02*
X0377773Y0060253D01*
X0377774Y0060253D02*
X0377776Y0060308D01*
X0377782Y0060363D01*
X0377791Y0060417D01*
X0377804Y0060471D01*
X0377821Y0060524D01*
X0377841Y0060575D01*
X0377865Y0060625D01*
X0377892Y0060673D01*
X0377922Y0060719D01*
X0377955Y0060763D01*
X0377991Y0060805D01*
X0378030Y0060844D01*
X0378072Y0060880D01*
X0378116Y0060913D01*
X0378162Y0060943D01*
X0378210Y0060970D01*
X0378260Y0060994D01*
X0378311Y0061014D01*
X0378364Y0061031D01*
X0378418Y0061044D01*
X0378472Y0061053D01*
X0378527Y0061059D01*
X0378582Y0061061D01*
X0378637Y0061059D01*
X0378692Y0061053D01*
X0378746Y0061044D01*
X0378800Y0061031D01*
X0378853Y0061014D01*
X0378904Y0060994D01*
X0378954Y0060970D01*
X0379002Y0060943D01*
X0379048Y0060913D01*
X0379092Y0060880D01*
X0379134Y0060844D01*
X0379173Y0060805D01*
X0379209Y0060763D01*
X0379242Y0060719D01*
X0379272Y0060673D01*
X0379299Y0060625D01*
X0379323Y0060575D01*
X0379343Y0060524D01*
X0379360Y0060471D01*
X0379373Y0060417D01*
X0379382Y0060363D01*
X0379388Y0060308D01*
X0379390Y0060253D01*
X0379390Y0059445D01*
X0379388Y0059390D01*
X0379382Y0059335D01*
X0379373Y0059281D01*
X0379360Y0059227D01*
X0379343Y0059174D01*
X0379323Y0059123D01*
X0379299Y0059073D01*
X0379272Y0059025D01*
X0379242Y0058979D01*
X0379209Y0058935D01*
X0379173Y0058893D01*
X0379134Y0058854D01*
X0379092Y0058818D01*
X0379048Y0058785D01*
X0379002Y0058755D01*
X0378954Y0058728D01*
X0378904Y0058704D01*
X0378853Y0058684D01*
X0378800Y0058667D01*
X0378746Y0058654D01*
X0378692Y0058645D01*
X0378637Y0058639D01*
X0378582Y0058637D01*
X0378527Y0058639D01*
X0378472Y0058645D01*
X0378418Y0058654D01*
X0378364Y0058667D01*
X0378311Y0058684D01*
X0378260Y0058704D01*
X0378210Y0058728D01*
X0378162Y0058755D01*
X0378116Y0058785D01*
X0378072Y0058818D01*
X0378030Y0058854D01*
X0377991Y0058893D01*
X0377955Y0058935D01*
X0377922Y0058979D01*
X0377892Y0059025D01*
X0377865Y0059073D01*
X0377841Y0059123D01*
X0377821Y0059174D01*
X0377804Y0059227D01*
X0377791Y0059281D01*
X0377782Y0059335D01*
X0377776Y0059390D01*
X0377774Y0059445D01*
X0380844Y0059445D02*
X0380844Y0060253D01*
X0380846Y0060308D01*
X0380852Y0060363D01*
X0380861Y0060417D01*
X0380874Y0060471D01*
X0380891Y0060524D01*
X0380911Y0060575D01*
X0380935Y0060625D01*
X0380962Y0060673D01*
X0380992Y0060719D01*
X0381025Y0060763D01*
X0381061Y0060805D01*
X0381100Y0060844D01*
X0381142Y0060880D01*
X0381186Y0060913D01*
X0381232Y0060943D01*
X0381280Y0060970D01*
X0381330Y0060994D01*
X0381381Y0061014D01*
X0381434Y0061031D01*
X0381488Y0061044D01*
X0381542Y0061053D01*
X0381597Y0061059D01*
X0381652Y0061061D01*
X0381707Y0061059D01*
X0381762Y0061053D01*
X0381816Y0061044D01*
X0381870Y0061031D01*
X0381923Y0061014D01*
X0381974Y0060994D01*
X0382024Y0060970D01*
X0382072Y0060943D01*
X0382118Y0060913D01*
X0382162Y0060880D01*
X0382204Y0060844D01*
X0382243Y0060805D01*
X0382279Y0060763D01*
X0382312Y0060719D01*
X0382342Y0060673D01*
X0382369Y0060625D01*
X0382393Y0060575D01*
X0382413Y0060524D01*
X0382430Y0060471D01*
X0382443Y0060417D01*
X0382452Y0060363D01*
X0382458Y0060308D01*
X0382460Y0060253D01*
X0382461Y0060253D02*
X0382461Y0059445D01*
X0382460Y0059445D02*
X0382458Y0059390D01*
X0382452Y0059335D01*
X0382443Y0059281D01*
X0382430Y0059227D01*
X0382413Y0059174D01*
X0382393Y0059123D01*
X0382369Y0059073D01*
X0382342Y0059025D01*
X0382312Y0058979D01*
X0382279Y0058935D01*
X0382243Y0058893D01*
X0382204Y0058854D01*
X0382162Y0058818D01*
X0382118Y0058785D01*
X0382072Y0058755D01*
X0382024Y0058728D01*
X0381974Y0058704D01*
X0381923Y0058684D01*
X0381870Y0058667D01*
X0381816Y0058654D01*
X0381762Y0058645D01*
X0381707Y0058639D01*
X0381652Y0058637D01*
X0381597Y0058639D01*
X0381542Y0058645D01*
X0381488Y0058654D01*
X0381434Y0058667D01*
X0381381Y0058684D01*
X0381330Y0058704D01*
X0381280Y0058728D01*
X0381232Y0058755D01*
X0381186Y0058785D01*
X0381142Y0058818D01*
X0381100Y0058854D01*
X0381061Y0058893D01*
X0381025Y0058935D01*
X0380992Y0058979D01*
X0380962Y0059025D01*
X0380935Y0059073D01*
X0380911Y0059123D01*
X0380891Y0059174D01*
X0380874Y0059227D01*
X0380861Y0059281D01*
X0380852Y0059335D01*
X0380846Y0059390D01*
X0380844Y0059445D01*
X0384102Y0058637D02*
X0384102Y0061061D01*
X0385920Y0061061D01*
X0385968Y0061059D01*
X0386015Y0061054D01*
X0386061Y0061044D01*
X0386107Y0061031D01*
X0386152Y0061015D01*
X0386195Y0060995D01*
X0386237Y0060972D01*
X0386276Y0060945D01*
X0386314Y0060916D01*
X0386349Y0060884D01*
X0386381Y0060849D01*
X0386410Y0060811D01*
X0386437Y0060772D01*
X0386460Y0060730D01*
X0386480Y0060687D01*
X0386496Y0060642D01*
X0386509Y0060596D01*
X0386519Y0060550D01*
X0386524Y0060503D01*
X0386526Y0060455D01*
X0386526Y0058637D01*
X0385314Y0058637D02*
X0385314Y0061061D01*
X0385266Y0055156D02*
X0386074Y0052731D01*
X0386882Y0055156D01*
X0388099Y0052933D02*
X0388301Y0052933D01*
X0388301Y0052731D01*
X0388099Y0052731D01*
X0388099Y0052933D01*
X0389670Y0052731D02*
X0391690Y0052731D01*
X0390680Y0052731D02*
X0390680Y0056368D01*
X0389670Y0055560D01*
X0383929Y0054348D02*
X0383929Y0053943D01*
X0382313Y0053943D01*
X0382313Y0054348D02*
X0382313Y0053337D01*
X0382315Y0053289D01*
X0382320Y0053242D01*
X0382330Y0053196D01*
X0382343Y0053150D01*
X0382359Y0053105D01*
X0382379Y0053062D01*
X0382402Y0053020D01*
X0382429Y0052981D01*
X0382458Y0052943D01*
X0382490Y0052908D01*
X0382525Y0052876D01*
X0382563Y0052847D01*
X0382602Y0052820D01*
X0382644Y0052797D01*
X0382687Y0052777D01*
X0382732Y0052761D01*
X0382778Y0052748D01*
X0382824Y0052738D01*
X0382871Y0052733D01*
X0382919Y0052731D01*
X0383929Y0052731D01*
X0383929Y0054348D02*
X0383927Y0054403D01*
X0383921Y0054458D01*
X0383912Y0054512D01*
X0383899Y0054566D01*
X0383882Y0054619D01*
X0383862Y0054670D01*
X0383838Y0054720D01*
X0383811Y0054768D01*
X0383781Y0054814D01*
X0383748Y0054858D01*
X0383712Y0054900D01*
X0383673Y0054939D01*
X0383631Y0054975D01*
X0383587Y0055008D01*
X0383541Y0055038D01*
X0383493Y0055065D01*
X0383443Y0055089D01*
X0383392Y0055109D01*
X0383339Y0055126D01*
X0383285Y0055139D01*
X0383231Y0055148D01*
X0383176Y0055154D01*
X0383121Y0055156D01*
X0383066Y0055154D01*
X0383011Y0055148D01*
X0382957Y0055139D01*
X0382903Y0055126D01*
X0382850Y0055109D01*
X0382799Y0055089D01*
X0382749Y0055065D01*
X0382701Y0055038D01*
X0382655Y0055008D01*
X0382611Y0054975D01*
X0382569Y0054939D01*
X0382530Y0054900D01*
X0382494Y0054858D01*
X0382461Y0054814D01*
X0382431Y0054768D01*
X0382404Y0054720D01*
X0382380Y0054670D01*
X0382360Y0054619D01*
X0382343Y0054566D01*
X0382330Y0054512D01*
X0382321Y0054458D01*
X0382315Y0054403D01*
X0382313Y0054348D01*
X0381183Y0054752D02*
X0381183Y0055156D01*
X0379971Y0055156D01*
X0379971Y0052731D01*
X0376454Y0052731D02*
X0374434Y0052731D01*
X0375444Y0052731D02*
X0375444Y0056368D01*
X0374434Y0055560D01*
X0370891Y0054550D02*
X0370893Y0054445D01*
X0370898Y0054341D01*
X0370907Y0054237D01*
X0370920Y0054133D01*
X0370936Y0054030D01*
X0370956Y0053927D01*
X0370980Y0053825D01*
X0371007Y0053724D01*
X0371038Y0053624D01*
X0371072Y0053525D01*
X0371109Y0053428D01*
X0371150Y0053332D01*
X0371194Y0053237D01*
X0375297Y0060253D02*
X0375359Y0060255D01*
X0375421Y0060261D01*
X0375483Y0060270D01*
X0375543Y0060284D01*
X0375603Y0060301D01*
X0375662Y0060321D01*
X0375719Y0060345D01*
X0375775Y0060373D01*
X0375829Y0060404D01*
X0375881Y0060439D01*
X0375930Y0060476D01*
X0375977Y0060517D01*
X0376022Y0060560D01*
X0376064Y0060606D01*
X0376103Y0060654D01*
X0376139Y0060705D01*
X0376172Y0060758D01*
X0376201Y0060813D01*
X0376227Y0060869D01*
X0376250Y0060927D01*
X0376268Y0060987D01*
X0376284Y0061047D01*
X0376295Y0061108D01*
X0376303Y0061170D01*
X0376307Y0061232D01*
X0376307Y0061294D01*
X0376303Y0061356D01*
X0376295Y0061418D01*
X0376284Y0061479D01*
X0376268Y0061539D01*
X0376250Y0061599D01*
X0376227Y0061657D01*
X0376201Y0061713D01*
X0376172Y0061768D01*
X0376139Y0061821D01*
X0376103Y0061872D01*
X0376064Y0061920D01*
X0376022Y0061966D01*
X0375977Y0062009D01*
X0375930Y0062050D01*
X0375881Y0062087D01*
X0375829Y0062122D01*
X0375775Y0062153D01*
X0375719Y0062181D01*
X0375662Y0062205D01*
X0375603Y0062225D01*
X0375543Y0062242D01*
X0375483Y0062256D01*
X0375421Y0062265D01*
X0375359Y0062271D01*
X0375297Y0062273D01*
X0375297Y0062274D02*
X0374287Y0062274D01*
X0341310Y0062274D02*
X0340300Y0062274D01*
X0340300Y0058637D01*
X0340300Y0060253D02*
X0341310Y0060253D01*
X0341372Y0060255D01*
X0341434Y0060261D01*
X0341496Y0060270D01*
X0341556Y0060284D01*
X0341616Y0060301D01*
X0341675Y0060321D01*
X0341732Y0060345D01*
X0341788Y0060373D01*
X0341842Y0060404D01*
X0341894Y0060439D01*
X0341943Y0060476D01*
X0341990Y0060517D01*
X0342035Y0060560D01*
X0342077Y0060606D01*
X0342116Y0060654D01*
X0342152Y0060705D01*
X0342185Y0060758D01*
X0342214Y0060813D01*
X0342240Y0060869D01*
X0342263Y0060927D01*
X0342281Y0060987D01*
X0342297Y0061047D01*
X0342308Y0061108D01*
X0342316Y0061170D01*
X0342320Y0061232D01*
X0342320Y0061294D01*
X0342316Y0061356D01*
X0342308Y0061418D01*
X0342297Y0061479D01*
X0342281Y0061539D01*
X0342263Y0061599D01*
X0342240Y0061657D01*
X0342214Y0061713D01*
X0342185Y0061768D01*
X0342152Y0061821D01*
X0342116Y0061872D01*
X0342077Y0061920D01*
X0342035Y0061966D01*
X0341990Y0062009D01*
X0341943Y0062050D01*
X0341894Y0062087D01*
X0341842Y0062122D01*
X0341788Y0062153D01*
X0341732Y0062181D01*
X0341675Y0062205D01*
X0341616Y0062225D01*
X0341556Y0062242D01*
X0341496Y0062256D01*
X0341434Y0062265D01*
X0341372Y0062271D01*
X0341310Y0062273D01*
X0336894Y0062274D02*
X0336086Y0062274D01*
X0336086Y0062273D02*
X0336031Y0062271D01*
X0335976Y0062265D01*
X0335922Y0062256D01*
X0335868Y0062243D01*
X0335815Y0062226D01*
X0335764Y0062206D01*
X0335714Y0062182D01*
X0335666Y0062155D01*
X0335620Y0062125D01*
X0335576Y0062092D01*
X0335534Y0062056D01*
X0335495Y0062016D01*
X0335459Y0061975D01*
X0335426Y0061931D01*
X0335396Y0061885D01*
X0335369Y0061837D01*
X0335345Y0061787D01*
X0335325Y0061736D01*
X0335308Y0061683D01*
X0335295Y0061629D01*
X0335286Y0061575D01*
X0335280Y0061520D01*
X0335278Y0061465D01*
X0335278Y0059445D01*
X0335280Y0059390D01*
X0335286Y0059335D01*
X0335295Y0059281D01*
X0335308Y0059227D01*
X0335325Y0059174D01*
X0335345Y0059123D01*
X0335369Y0059073D01*
X0335396Y0059025D01*
X0335426Y0058979D01*
X0335459Y0058935D01*
X0335495Y0058893D01*
X0335534Y0058854D01*
X0335576Y0058818D01*
X0335620Y0058785D01*
X0335666Y0058755D01*
X0335714Y0058728D01*
X0335764Y0058704D01*
X0335815Y0058684D01*
X0335868Y0058667D01*
X0335922Y0058654D01*
X0335976Y0058645D01*
X0336031Y0058639D01*
X0336086Y0058637D01*
X0336894Y0058637D01*
X0332991Y0058637D02*
X0332991Y0062274D01*
X0331981Y0062274D02*
X0334001Y0062274D01*
X0330931Y0062274D02*
X0328910Y0062274D01*
X0329920Y0062274D02*
X0329920Y0058637D01*
X0327726Y0058637D02*
X0326918Y0058637D01*
X0327322Y0058637D02*
X0327322Y0062274D01*
X0326918Y0062274D02*
X0327726Y0062274D01*
X0325379Y0062274D02*
X0325379Y0058637D01*
X0323359Y0062274D01*
X0323359Y0058637D01*
X0320187Y0060657D02*
X0320187Y0061061D01*
X0318975Y0061061D01*
X0318975Y0058637D01*
X0317382Y0059445D02*
X0317382Y0060253D01*
X0317380Y0060308D01*
X0317374Y0060363D01*
X0317365Y0060417D01*
X0317352Y0060471D01*
X0317335Y0060524D01*
X0317315Y0060575D01*
X0317291Y0060625D01*
X0317264Y0060673D01*
X0317234Y0060719D01*
X0317201Y0060763D01*
X0317165Y0060805D01*
X0317126Y0060844D01*
X0317084Y0060880D01*
X0317040Y0060913D01*
X0316994Y0060943D01*
X0316946Y0060970D01*
X0316896Y0060994D01*
X0316845Y0061014D01*
X0316792Y0061031D01*
X0316738Y0061044D01*
X0316684Y0061053D01*
X0316629Y0061059D01*
X0316574Y0061061D01*
X0316519Y0061059D01*
X0316464Y0061053D01*
X0316410Y0061044D01*
X0316356Y0061031D01*
X0316303Y0061014D01*
X0316252Y0060994D01*
X0316202Y0060970D01*
X0316154Y0060943D01*
X0316108Y0060913D01*
X0316064Y0060880D01*
X0316022Y0060844D01*
X0315983Y0060805D01*
X0315947Y0060763D01*
X0315914Y0060719D01*
X0315884Y0060673D01*
X0315857Y0060625D01*
X0315833Y0060575D01*
X0315813Y0060524D01*
X0315796Y0060471D01*
X0315783Y0060417D01*
X0315774Y0060363D01*
X0315768Y0060308D01*
X0315766Y0060253D01*
X0315766Y0059445D01*
X0315768Y0059390D01*
X0315774Y0059335D01*
X0315783Y0059281D01*
X0315796Y0059227D01*
X0315813Y0059174D01*
X0315833Y0059123D01*
X0315857Y0059073D01*
X0315884Y0059025D01*
X0315914Y0058979D01*
X0315947Y0058935D01*
X0315983Y0058893D01*
X0316022Y0058854D01*
X0316064Y0058818D01*
X0316108Y0058785D01*
X0316154Y0058755D01*
X0316202Y0058728D01*
X0316252Y0058704D01*
X0316303Y0058684D01*
X0316356Y0058667D01*
X0316410Y0058654D01*
X0316464Y0058645D01*
X0316519Y0058639D01*
X0316574Y0058637D01*
X0316629Y0058639D01*
X0316684Y0058645D01*
X0316738Y0058654D01*
X0316792Y0058667D01*
X0316845Y0058684D01*
X0316896Y0058704D01*
X0316946Y0058728D01*
X0316994Y0058755D01*
X0317040Y0058785D01*
X0317084Y0058818D01*
X0317126Y0058854D01*
X0317165Y0058893D01*
X0317201Y0058935D01*
X0317234Y0058979D01*
X0317264Y0059025D01*
X0317291Y0059073D01*
X0317315Y0059123D01*
X0317335Y0059174D01*
X0317352Y0059227D01*
X0317365Y0059281D01*
X0317374Y0059335D01*
X0317380Y0059390D01*
X0317382Y0059445D01*
X0314761Y0061061D02*
X0313549Y0061061D01*
X0313953Y0061667D02*
X0313953Y0058637D01*
X0313953Y0061667D02*
X0313955Y0061715D01*
X0313960Y0061762D01*
X0313970Y0061808D01*
X0313983Y0061854D01*
X0313999Y0061899D01*
X0314019Y0061942D01*
X0314042Y0061984D01*
X0314069Y0062023D01*
X0314098Y0062061D01*
X0314130Y0062096D01*
X0314165Y0062128D01*
X0314203Y0062157D01*
X0314242Y0062184D01*
X0314284Y0062207D01*
X0314327Y0062227D01*
X0314372Y0062243D01*
X0314418Y0062256D01*
X0314464Y0062266D01*
X0314511Y0062271D01*
X0314559Y0062273D01*
X0314559Y0062274D02*
X0314761Y0062274D01*
X0318855Y0056368D02*
X0318855Y0052731D01*
X0314213Y0051519D02*
X0313809Y0051519D01*
D12*
X0234205Y0167266D02*
X0214520Y0167266D01*
X0214520Y0183408D01*
X0218063Y0186951D01*
X0219441Y0188329D01*
X0217670Y0190101D01*
X0214520Y0186951D01*
X0218063Y0186951D01*
X0234205Y0186951D01*
X0234205Y0167266D01*
X0217590Y0177109D02*
X0217592Y0177275D01*
X0217598Y0177441D01*
X0217608Y0177607D01*
X0217623Y0177773D01*
X0217641Y0177938D01*
X0217663Y0178103D01*
X0217690Y0178267D01*
X0217720Y0178430D01*
X0217755Y0178593D01*
X0217793Y0178755D01*
X0217835Y0178915D01*
X0217882Y0179075D01*
X0217932Y0179234D01*
X0217986Y0179391D01*
X0218044Y0179547D01*
X0218106Y0179701D01*
X0218171Y0179854D01*
X0218240Y0180005D01*
X0218313Y0180154D01*
X0218390Y0180302D01*
X0218470Y0180447D01*
X0218554Y0180591D01*
X0218641Y0180733D01*
X0218731Y0180872D01*
X0218825Y0181009D01*
X0218923Y0181144D01*
X0219024Y0181276D01*
X0219127Y0181406D01*
X0219234Y0181533D01*
X0219345Y0181657D01*
X0219458Y0181779D01*
X0219574Y0181898D01*
X0219693Y0182014D01*
X0219815Y0182127D01*
X0219939Y0182238D01*
X0220066Y0182345D01*
X0220196Y0182448D01*
X0220328Y0182549D01*
X0220463Y0182647D01*
X0220600Y0182741D01*
X0220739Y0182831D01*
X0220881Y0182918D01*
X0221025Y0183002D01*
X0221170Y0183082D01*
X0221318Y0183159D01*
X0221467Y0183232D01*
X0221618Y0183301D01*
X0221771Y0183366D01*
X0221925Y0183428D01*
X0222081Y0183486D01*
X0222238Y0183540D01*
X0222397Y0183590D01*
X0222557Y0183637D01*
X0222717Y0183679D01*
X0222879Y0183717D01*
X0223042Y0183752D01*
X0223205Y0183782D01*
X0223369Y0183809D01*
X0223534Y0183831D01*
X0223699Y0183849D01*
X0223865Y0183864D01*
X0224031Y0183874D01*
X0224197Y0183880D01*
X0224363Y0183882D01*
X0224529Y0183880D01*
X0224695Y0183874D01*
X0224861Y0183864D01*
X0225027Y0183849D01*
X0225192Y0183831D01*
X0225357Y0183809D01*
X0225521Y0183782D01*
X0225684Y0183752D01*
X0225847Y0183717D01*
X0226009Y0183679D01*
X0226169Y0183637D01*
X0226329Y0183590D01*
X0226488Y0183540D01*
X0226645Y0183486D01*
X0226801Y0183428D01*
X0226955Y0183366D01*
X0227108Y0183301D01*
X0227259Y0183232D01*
X0227408Y0183159D01*
X0227556Y0183082D01*
X0227701Y0183002D01*
X0227845Y0182918D01*
X0227987Y0182831D01*
X0228126Y0182741D01*
X0228263Y0182647D01*
X0228398Y0182549D01*
X0228530Y0182448D01*
X0228660Y0182345D01*
X0228787Y0182238D01*
X0228911Y0182127D01*
X0229033Y0182014D01*
X0229152Y0181898D01*
X0229268Y0181779D01*
X0229381Y0181657D01*
X0229492Y0181533D01*
X0229599Y0181406D01*
X0229702Y0181276D01*
X0229803Y0181144D01*
X0229901Y0181009D01*
X0229995Y0180872D01*
X0230085Y0180733D01*
X0230172Y0180591D01*
X0230256Y0180447D01*
X0230336Y0180302D01*
X0230413Y0180154D01*
X0230486Y0180005D01*
X0230555Y0179854D01*
X0230620Y0179701D01*
X0230682Y0179547D01*
X0230740Y0179391D01*
X0230794Y0179234D01*
X0230844Y0179075D01*
X0230891Y0178915D01*
X0230933Y0178755D01*
X0230971Y0178593D01*
X0231006Y0178430D01*
X0231036Y0178267D01*
X0231063Y0178103D01*
X0231085Y0177938D01*
X0231103Y0177773D01*
X0231118Y0177607D01*
X0231128Y0177441D01*
X0231134Y0177275D01*
X0231136Y0177109D01*
X0231134Y0176943D01*
X0231128Y0176777D01*
X0231118Y0176611D01*
X0231103Y0176445D01*
X0231085Y0176280D01*
X0231063Y0176115D01*
X0231036Y0175951D01*
X0231006Y0175788D01*
X0230971Y0175625D01*
X0230933Y0175463D01*
X0230891Y0175303D01*
X0230844Y0175143D01*
X0230794Y0174984D01*
X0230740Y0174827D01*
X0230682Y0174671D01*
X0230620Y0174517D01*
X0230555Y0174364D01*
X0230486Y0174213D01*
X0230413Y0174064D01*
X0230336Y0173916D01*
X0230256Y0173771D01*
X0230172Y0173627D01*
X0230085Y0173485D01*
X0229995Y0173346D01*
X0229901Y0173209D01*
X0229803Y0173074D01*
X0229702Y0172942D01*
X0229599Y0172812D01*
X0229492Y0172685D01*
X0229381Y0172561D01*
X0229268Y0172439D01*
X0229152Y0172320D01*
X0229033Y0172204D01*
X0228911Y0172091D01*
X0228787Y0171980D01*
X0228660Y0171873D01*
X0228530Y0171770D01*
X0228398Y0171669D01*
X0228263Y0171571D01*
X0228126Y0171477D01*
X0227987Y0171387D01*
X0227845Y0171300D01*
X0227701Y0171216D01*
X0227556Y0171136D01*
X0227408Y0171059D01*
X0227259Y0170986D01*
X0227108Y0170917D01*
X0226955Y0170852D01*
X0226801Y0170790D01*
X0226645Y0170732D01*
X0226488Y0170678D01*
X0226329Y0170628D01*
X0226169Y0170581D01*
X0226009Y0170539D01*
X0225847Y0170501D01*
X0225684Y0170466D01*
X0225521Y0170436D01*
X0225357Y0170409D01*
X0225192Y0170387D01*
X0225027Y0170369D01*
X0224861Y0170354D01*
X0224695Y0170344D01*
X0224529Y0170338D01*
X0224363Y0170336D01*
X0224197Y0170338D01*
X0224031Y0170344D01*
X0223865Y0170354D01*
X0223699Y0170369D01*
X0223534Y0170387D01*
X0223369Y0170409D01*
X0223205Y0170436D01*
X0223042Y0170466D01*
X0222879Y0170501D01*
X0222717Y0170539D01*
X0222557Y0170581D01*
X0222397Y0170628D01*
X0222238Y0170678D01*
X0222081Y0170732D01*
X0221925Y0170790D01*
X0221771Y0170852D01*
X0221618Y0170917D01*
X0221467Y0170986D01*
X0221318Y0171059D01*
X0221170Y0171136D01*
X0221025Y0171216D01*
X0220881Y0171300D01*
X0220739Y0171387D01*
X0220600Y0171477D01*
X0220463Y0171571D01*
X0220328Y0171669D01*
X0220196Y0171770D01*
X0220066Y0171873D01*
X0219939Y0171980D01*
X0219815Y0172091D01*
X0219693Y0172204D01*
X0219574Y0172320D01*
X0219458Y0172439D01*
X0219345Y0172561D01*
X0219234Y0172685D01*
X0219127Y0172812D01*
X0219024Y0172942D01*
X0218923Y0173074D01*
X0218825Y0173209D01*
X0218731Y0173346D01*
X0218641Y0173485D01*
X0218554Y0173627D01*
X0218470Y0173771D01*
X0218390Y0173916D01*
X0218313Y0174064D01*
X0218240Y0174213D01*
X0218171Y0174364D01*
X0218106Y0174517D01*
X0218044Y0174671D01*
X0217986Y0174827D01*
X0217932Y0174984D01*
X0217882Y0175143D01*
X0217835Y0175303D01*
X0217793Y0175463D01*
X0217755Y0175625D01*
X0217720Y0175788D01*
X0217690Y0175951D01*
X0217663Y0176115D01*
X0217641Y0176280D01*
X0217623Y0176445D01*
X0217608Y0176611D01*
X0217598Y0176777D01*
X0217592Y0176943D01*
X0217590Y0177109D01*
X0214520Y0183408D02*
X0214520Y0186951D01*
X0213890Y0194313D02*
X0213890Y0210455D01*
X0217433Y0213998D01*
X0218811Y0215376D01*
X0217040Y0217148D01*
X0213890Y0213998D01*
X0217433Y0213998D01*
X0233575Y0213998D01*
X0233575Y0194313D01*
X0213890Y0194313D01*
X0216960Y0204156D02*
X0216962Y0204322D01*
X0216968Y0204488D01*
X0216978Y0204654D01*
X0216993Y0204820D01*
X0217011Y0204985D01*
X0217033Y0205150D01*
X0217060Y0205314D01*
X0217090Y0205477D01*
X0217125Y0205640D01*
X0217163Y0205802D01*
X0217205Y0205962D01*
X0217252Y0206122D01*
X0217302Y0206281D01*
X0217356Y0206438D01*
X0217414Y0206594D01*
X0217476Y0206748D01*
X0217541Y0206901D01*
X0217610Y0207052D01*
X0217683Y0207201D01*
X0217760Y0207349D01*
X0217840Y0207494D01*
X0217924Y0207638D01*
X0218011Y0207780D01*
X0218101Y0207919D01*
X0218195Y0208056D01*
X0218293Y0208191D01*
X0218394Y0208323D01*
X0218497Y0208453D01*
X0218604Y0208580D01*
X0218715Y0208704D01*
X0218828Y0208826D01*
X0218944Y0208945D01*
X0219063Y0209061D01*
X0219185Y0209174D01*
X0219309Y0209285D01*
X0219436Y0209392D01*
X0219566Y0209495D01*
X0219698Y0209596D01*
X0219833Y0209694D01*
X0219970Y0209788D01*
X0220109Y0209878D01*
X0220251Y0209965D01*
X0220395Y0210049D01*
X0220540Y0210129D01*
X0220688Y0210206D01*
X0220837Y0210279D01*
X0220988Y0210348D01*
X0221141Y0210413D01*
X0221295Y0210475D01*
X0221451Y0210533D01*
X0221608Y0210587D01*
X0221767Y0210637D01*
X0221927Y0210684D01*
X0222087Y0210726D01*
X0222249Y0210764D01*
X0222412Y0210799D01*
X0222575Y0210829D01*
X0222739Y0210856D01*
X0222904Y0210878D01*
X0223069Y0210896D01*
X0223235Y0210911D01*
X0223401Y0210921D01*
X0223567Y0210927D01*
X0223733Y0210929D01*
X0223899Y0210927D01*
X0224065Y0210921D01*
X0224231Y0210911D01*
X0224397Y0210896D01*
X0224562Y0210878D01*
X0224727Y0210856D01*
X0224891Y0210829D01*
X0225054Y0210799D01*
X0225217Y0210764D01*
X0225379Y0210726D01*
X0225539Y0210684D01*
X0225699Y0210637D01*
X0225858Y0210587D01*
X0226015Y0210533D01*
X0226171Y0210475D01*
X0226325Y0210413D01*
X0226478Y0210348D01*
X0226629Y0210279D01*
X0226778Y0210206D01*
X0226926Y0210129D01*
X0227071Y0210049D01*
X0227215Y0209965D01*
X0227357Y0209878D01*
X0227496Y0209788D01*
X0227633Y0209694D01*
X0227768Y0209596D01*
X0227900Y0209495D01*
X0228030Y0209392D01*
X0228157Y0209285D01*
X0228281Y0209174D01*
X0228403Y0209061D01*
X0228522Y0208945D01*
X0228638Y0208826D01*
X0228751Y0208704D01*
X0228862Y0208580D01*
X0228969Y0208453D01*
X0229072Y0208323D01*
X0229173Y0208191D01*
X0229271Y0208056D01*
X0229365Y0207919D01*
X0229455Y0207780D01*
X0229542Y0207638D01*
X0229626Y0207494D01*
X0229706Y0207349D01*
X0229783Y0207201D01*
X0229856Y0207052D01*
X0229925Y0206901D01*
X0229990Y0206748D01*
X0230052Y0206594D01*
X0230110Y0206438D01*
X0230164Y0206281D01*
X0230214Y0206122D01*
X0230261Y0205962D01*
X0230303Y0205802D01*
X0230341Y0205640D01*
X0230376Y0205477D01*
X0230406Y0205314D01*
X0230433Y0205150D01*
X0230455Y0204985D01*
X0230473Y0204820D01*
X0230488Y0204654D01*
X0230498Y0204488D01*
X0230504Y0204322D01*
X0230506Y0204156D01*
X0230504Y0203990D01*
X0230498Y0203824D01*
X0230488Y0203658D01*
X0230473Y0203492D01*
X0230455Y0203327D01*
X0230433Y0203162D01*
X0230406Y0202998D01*
X0230376Y0202835D01*
X0230341Y0202672D01*
X0230303Y0202510D01*
X0230261Y0202350D01*
X0230214Y0202190D01*
X0230164Y0202031D01*
X0230110Y0201874D01*
X0230052Y0201718D01*
X0229990Y0201564D01*
X0229925Y0201411D01*
X0229856Y0201260D01*
X0229783Y0201111D01*
X0229706Y0200963D01*
X0229626Y0200818D01*
X0229542Y0200674D01*
X0229455Y0200532D01*
X0229365Y0200393D01*
X0229271Y0200256D01*
X0229173Y0200121D01*
X0229072Y0199989D01*
X0228969Y0199859D01*
X0228862Y0199732D01*
X0228751Y0199608D01*
X0228638Y0199486D01*
X0228522Y0199367D01*
X0228403Y0199251D01*
X0228281Y0199138D01*
X0228157Y0199027D01*
X0228030Y0198920D01*
X0227900Y0198817D01*
X0227768Y0198716D01*
X0227633Y0198618D01*
X0227496Y0198524D01*
X0227357Y0198434D01*
X0227215Y0198347D01*
X0227071Y0198263D01*
X0226926Y0198183D01*
X0226778Y0198106D01*
X0226629Y0198033D01*
X0226478Y0197964D01*
X0226325Y0197899D01*
X0226171Y0197837D01*
X0226015Y0197779D01*
X0225858Y0197725D01*
X0225699Y0197675D01*
X0225539Y0197628D01*
X0225379Y0197586D01*
X0225217Y0197548D01*
X0225054Y0197513D01*
X0224891Y0197483D01*
X0224727Y0197456D01*
X0224562Y0197434D01*
X0224397Y0197416D01*
X0224231Y0197401D01*
X0224065Y0197391D01*
X0223899Y0197385D01*
X0223733Y0197383D01*
X0223567Y0197385D01*
X0223401Y0197391D01*
X0223235Y0197401D01*
X0223069Y0197416D01*
X0222904Y0197434D01*
X0222739Y0197456D01*
X0222575Y0197483D01*
X0222412Y0197513D01*
X0222249Y0197548D01*
X0222087Y0197586D01*
X0221927Y0197628D01*
X0221767Y0197675D01*
X0221608Y0197725D01*
X0221451Y0197779D01*
X0221295Y0197837D01*
X0221141Y0197899D01*
X0220988Y0197964D01*
X0220837Y0198033D01*
X0220688Y0198106D01*
X0220540Y0198183D01*
X0220395Y0198263D01*
X0220251Y0198347D01*
X0220109Y0198434D01*
X0219970Y0198524D01*
X0219833Y0198618D01*
X0219698Y0198716D01*
X0219566Y0198817D01*
X0219436Y0198920D01*
X0219309Y0199027D01*
X0219185Y0199138D01*
X0219063Y0199251D01*
X0218944Y0199367D01*
X0218828Y0199486D01*
X0218715Y0199608D01*
X0218604Y0199732D01*
X0218497Y0199859D01*
X0218394Y0199989D01*
X0218293Y0200121D01*
X0218195Y0200256D01*
X0218101Y0200393D01*
X0218011Y0200532D01*
X0217924Y0200674D01*
X0217840Y0200818D01*
X0217760Y0200963D01*
X0217683Y0201111D01*
X0217610Y0201260D01*
X0217541Y0201411D01*
X0217476Y0201564D01*
X0217414Y0201718D01*
X0217356Y0201874D01*
X0217302Y0202031D01*
X0217252Y0202190D01*
X0217205Y0202350D01*
X0217163Y0202510D01*
X0217125Y0202672D01*
X0217090Y0202835D01*
X0217060Y0202998D01*
X0217033Y0203162D01*
X0217011Y0203327D01*
X0216993Y0203492D01*
X0216978Y0203658D01*
X0216968Y0203824D01*
X0216962Y0203990D01*
X0216960Y0204156D01*
X0213890Y0210455D02*
X0213890Y0213998D01*
X0213890Y0226203D02*
X0213890Y0242345D01*
X0217433Y0245888D01*
X0218811Y0247266D01*
X0217040Y0249038D01*
X0213890Y0245888D01*
X0217433Y0245888D01*
X0233575Y0245888D01*
X0233575Y0226203D01*
X0213890Y0226203D01*
X0216960Y0236046D02*
X0216962Y0236212D01*
X0216968Y0236378D01*
X0216978Y0236544D01*
X0216993Y0236710D01*
X0217011Y0236875D01*
X0217033Y0237040D01*
X0217060Y0237204D01*
X0217090Y0237367D01*
X0217125Y0237530D01*
X0217163Y0237692D01*
X0217205Y0237852D01*
X0217252Y0238012D01*
X0217302Y0238171D01*
X0217356Y0238328D01*
X0217414Y0238484D01*
X0217476Y0238638D01*
X0217541Y0238791D01*
X0217610Y0238942D01*
X0217683Y0239091D01*
X0217760Y0239239D01*
X0217840Y0239384D01*
X0217924Y0239528D01*
X0218011Y0239670D01*
X0218101Y0239809D01*
X0218195Y0239946D01*
X0218293Y0240081D01*
X0218394Y0240213D01*
X0218497Y0240343D01*
X0218604Y0240470D01*
X0218715Y0240594D01*
X0218828Y0240716D01*
X0218944Y0240835D01*
X0219063Y0240951D01*
X0219185Y0241064D01*
X0219309Y0241175D01*
X0219436Y0241282D01*
X0219566Y0241385D01*
X0219698Y0241486D01*
X0219833Y0241584D01*
X0219970Y0241678D01*
X0220109Y0241768D01*
X0220251Y0241855D01*
X0220395Y0241939D01*
X0220540Y0242019D01*
X0220688Y0242096D01*
X0220837Y0242169D01*
X0220988Y0242238D01*
X0221141Y0242303D01*
X0221295Y0242365D01*
X0221451Y0242423D01*
X0221608Y0242477D01*
X0221767Y0242527D01*
X0221927Y0242574D01*
X0222087Y0242616D01*
X0222249Y0242654D01*
X0222412Y0242689D01*
X0222575Y0242719D01*
X0222739Y0242746D01*
X0222904Y0242768D01*
X0223069Y0242786D01*
X0223235Y0242801D01*
X0223401Y0242811D01*
X0223567Y0242817D01*
X0223733Y0242819D01*
X0223899Y0242817D01*
X0224065Y0242811D01*
X0224231Y0242801D01*
X0224397Y0242786D01*
X0224562Y0242768D01*
X0224727Y0242746D01*
X0224891Y0242719D01*
X0225054Y0242689D01*
X0225217Y0242654D01*
X0225379Y0242616D01*
X0225539Y0242574D01*
X0225699Y0242527D01*
X0225858Y0242477D01*
X0226015Y0242423D01*
X0226171Y0242365D01*
X0226325Y0242303D01*
X0226478Y0242238D01*
X0226629Y0242169D01*
X0226778Y0242096D01*
X0226926Y0242019D01*
X0227071Y0241939D01*
X0227215Y0241855D01*
X0227357Y0241768D01*
X0227496Y0241678D01*
X0227633Y0241584D01*
X0227768Y0241486D01*
X0227900Y0241385D01*
X0228030Y0241282D01*
X0228157Y0241175D01*
X0228281Y0241064D01*
X0228403Y0240951D01*
X0228522Y0240835D01*
X0228638Y0240716D01*
X0228751Y0240594D01*
X0228862Y0240470D01*
X0228969Y0240343D01*
X0229072Y0240213D01*
X0229173Y0240081D01*
X0229271Y0239946D01*
X0229365Y0239809D01*
X0229455Y0239670D01*
X0229542Y0239528D01*
X0229626Y0239384D01*
X0229706Y0239239D01*
X0229783Y0239091D01*
X0229856Y0238942D01*
X0229925Y0238791D01*
X0229990Y0238638D01*
X0230052Y0238484D01*
X0230110Y0238328D01*
X0230164Y0238171D01*
X0230214Y0238012D01*
X0230261Y0237852D01*
X0230303Y0237692D01*
X0230341Y0237530D01*
X0230376Y0237367D01*
X0230406Y0237204D01*
X0230433Y0237040D01*
X0230455Y0236875D01*
X0230473Y0236710D01*
X0230488Y0236544D01*
X0230498Y0236378D01*
X0230504Y0236212D01*
X0230506Y0236046D01*
X0230504Y0235880D01*
X0230498Y0235714D01*
X0230488Y0235548D01*
X0230473Y0235382D01*
X0230455Y0235217D01*
X0230433Y0235052D01*
X0230406Y0234888D01*
X0230376Y0234725D01*
X0230341Y0234562D01*
X0230303Y0234400D01*
X0230261Y0234240D01*
X0230214Y0234080D01*
X0230164Y0233921D01*
X0230110Y0233764D01*
X0230052Y0233608D01*
X0229990Y0233454D01*
X0229925Y0233301D01*
X0229856Y0233150D01*
X0229783Y0233001D01*
X0229706Y0232853D01*
X0229626Y0232708D01*
X0229542Y0232564D01*
X0229455Y0232422D01*
X0229365Y0232283D01*
X0229271Y0232146D01*
X0229173Y0232011D01*
X0229072Y0231879D01*
X0228969Y0231749D01*
X0228862Y0231622D01*
X0228751Y0231498D01*
X0228638Y0231376D01*
X0228522Y0231257D01*
X0228403Y0231141D01*
X0228281Y0231028D01*
X0228157Y0230917D01*
X0228030Y0230810D01*
X0227900Y0230707D01*
X0227768Y0230606D01*
X0227633Y0230508D01*
X0227496Y0230414D01*
X0227357Y0230324D01*
X0227215Y0230237D01*
X0227071Y0230153D01*
X0226926Y0230073D01*
X0226778Y0229996D01*
X0226629Y0229923D01*
X0226478Y0229854D01*
X0226325Y0229789D01*
X0226171Y0229727D01*
X0226015Y0229669D01*
X0225858Y0229615D01*
X0225699Y0229565D01*
X0225539Y0229518D01*
X0225379Y0229476D01*
X0225217Y0229438D01*
X0225054Y0229403D01*
X0224891Y0229373D01*
X0224727Y0229346D01*
X0224562Y0229324D01*
X0224397Y0229306D01*
X0224231Y0229291D01*
X0224065Y0229281D01*
X0223899Y0229275D01*
X0223733Y0229273D01*
X0223567Y0229275D01*
X0223401Y0229281D01*
X0223235Y0229291D01*
X0223069Y0229306D01*
X0222904Y0229324D01*
X0222739Y0229346D01*
X0222575Y0229373D01*
X0222412Y0229403D01*
X0222249Y0229438D01*
X0222087Y0229476D01*
X0221927Y0229518D01*
X0221767Y0229565D01*
X0221608Y0229615D01*
X0221451Y0229669D01*
X0221295Y0229727D01*
X0221141Y0229789D01*
X0220988Y0229854D01*
X0220837Y0229923D01*
X0220688Y0229996D01*
X0220540Y0230073D01*
X0220395Y0230153D01*
X0220251Y0230237D01*
X0220109Y0230324D01*
X0219970Y0230414D01*
X0219833Y0230508D01*
X0219698Y0230606D01*
X0219566Y0230707D01*
X0219436Y0230810D01*
X0219309Y0230917D01*
X0219185Y0231028D01*
X0219063Y0231141D01*
X0218944Y0231257D01*
X0218828Y0231376D01*
X0218715Y0231498D01*
X0218604Y0231622D01*
X0218497Y0231749D01*
X0218394Y0231879D01*
X0218293Y0232011D01*
X0218195Y0232146D01*
X0218101Y0232283D01*
X0218011Y0232422D01*
X0217924Y0232564D01*
X0217840Y0232708D01*
X0217760Y0232853D01*
X0217683Y0233001D01*
X0217610Y0233150D01*
X0217541Y0233301D01*
X0217476Y0233454D01*
X0217414Y0233608D01*
X0217356Y0233764D01*
X0217302Y0233921D01*
X0217252Y0234080D01*
X0217205Y0234240D01*
X0217163Y0234400D01*
X0217125Y0234562D01*
X0217090Y0234725D01*
X0217060Y0234888D01*
X0217033Y0235052D01*
X0217011Y0235217D01*
X0216993Y0235382D01*
X0216978Y0235548D01*
X0216968Y0235714D01*
X0216962Y0235880D01*
X0216960Y0236046D01*
X0213890Y0242345D02*
X0213890Y0245888D01*
X0190268Y0245494D02*
X0190268Y0225809D01*
X0170583Y0225809D01*
X0170583Y0241951D01*
X0174126Y0245494D01*
X0175504Y0246872D01*
X0173733Y0248644D01*
X0170583Y0245494D01*
X0174126Y0245494D01*
X0190268Y0245494D01*
X0173653Y0235652D02*
X0173655Y0235818D01*
X0173661Y0235984D01*
X0173671Y0236150D01*
X0173686Y0236316D01*
X0173704Y0236481D01*
X0173726Y0236646D01*
X0173753Y0236810D01*
X0173783Y0236973D01*
X0173818Y0237136D01*
X0173856Y0237298D01*
X0173898Y0237458D01*
X0173945Y0237618D01*
X0173995Y0237777D01*
X0174049Y0237934D01*
X0174107Y0238090D01*
X0174169Y0238244D01*
X0174234Y0238397D01*
X0174303Y0238548D01*
X0174376Y0238697D01*
X0174453Y0238845D01*
X0174533Y0238990D01*
X0174617Y0239134D01*
X0174704Y0239276D01*
X0174794Y0239415D01*
X0174888Y0239552D01*
X0174986Y0239687D01*
X0175087Y0239819D01*
X0175190Y0239949D01*
X0175297Y0240076D01*
X0175408Y0240200D01*
X0175521Y0240322D01*
X0175637Y0240441D01*
X0175756Y0240557D01*
X0175878Y0240670D01*
X0176002Y0240781D01*
X0176129Y0240888D01*
X0176259Y0240991D01*
X0176391Y0241092D01*
X0176526Y0241190D01*
X0176663Y0241284D01*
X0176802Y0241374D01*
X0176944Y0241461D01*
X0177088Y0241545D01*
X0177233Y0241625D01*
X0177381Y0241702D01*
X0177530Y0241775D01*
X0177681Y0241844D01*
X0177834Y0241909D01*
X0177988Y0241971D01*
X0178144Y0242029D01*
X0178301Y0242083D01*
X0178460Y0242133D01*
X0178620Y0242180D01*
X0178780Y0242222D01*
X0178942Y0242260D01*
X0179105Y0242295D01*
X0179268Y0242325D01*
X0179432Y0242352D01*
X0179597Y0242374D01*
X0179762Y0242392D01*
X0179928Y0242407D01*
X0180094Y0242417D01*
X0180260Y0242423D01*
X0180426Y0242425D01*
X0180592Y0242423D01*
X0180758Y0242417D01*
X0180924Y0242407D01*
X0181090Y0242392D01*
X0181255Y0242374D01*
X0181420Y0242352D01*
X0181584Y0242325D01*
X0181747Y0242295D01*
X0181910Y0242260D01*
X0182072Y0242222D01*
X0182232Y0242180D01*
X0182392Y0242133D01*
X0182551Y0242083D01*
X0182708Y0242029D01*
X0182864Y0241971D01*
X0183018Y0241909D01*
X0183171Y0241844D01*
X0183322Y0241775D01*
X0183471Y0241702D01*
X0183619Y0241625D01*
X0183764Y0241545D01*
X0183908Y0241461D01*
X0184050Y0241374D01*
X0184189Y0241284D01*
X0184326Y0241190D01*
X0184461Y0241092D01*
X0184593Y0240991D01*
X0184723Y0240888D01*
X0184850Y0240781D01*
X0184974Y0240670D01*
X0185096Y0240557D01*
X0185215Y0240441D01*
X0185331Y0240322D01*
X0185444Y0240200D01*
X0185555Y0240076D01*
X0185662Y0239949D01*
X0185765Y0239819D01*
X0185866Y0239687D01*
X0185964Y0239552D01*
X0186058Y0239415D01*
X0186148Y0239276D01*
X0186235Y0239134D01*
X0186319Y0238990D01*
X0186399Y0238845D01*
X0186476Y0238697D01*
X0186549Y0238548D01*
X0186618Y0238397D01*
X0186683Y0238244D01*
X0186745Y0238090D01*
X0186803Y0237934D01*
X0186857Y0237777D01*
X0186907Y0237618D01*
X0186954Y0237458D01*
X0186996Y0237298D01*
X0187034Y0237136D01*
X0187069Y0236973D01*
X0187099Y0236810D01*
X0187126Y0236646D01*
X0187148Y0236481D01*
X0187166Y0236316D01*
X0187181Y0236150D01*
X0187191Y0235984D01*
X0187197Y0235818D01*
X0187199Y0235652D01*
X0187197Y0235486D01*
X0187191Y0235320D01*
X0187181Y0235154D01*
X0187166Y0234988D01*
X0187148Y0234823D01*
X0187126Y0234658D01*
X0187099Y0234494D01*
X0187069Y0234331D01*
X0187034Y0234168D01*
X0186996Y0234006D01*
X0186954Y0233846D01*
X0186907Y0233686D01*
X0186857Y0233527D01*
X0186803Y0233370D01*
X0186745Y0233214D01*
X0186683Y0233060D01*
X0186618Y0232907D01*
X0186549Y0232756D01*
X0186476Y0232607D01*
X0186399Y0232459D01*
X0186319Y0232314D01*
X0186235Y0232170D01*
X0186148Y0232028D01*
X0186058Y0231889D01*
X0185964Y0231752D01*
X0185866Y0231617D01*
X0185765Y0231485D01*
X0185662Y0231355D01*
X0185555Y0231228D01*
X0185444Y0231104D01*
X0185331Y0230982D01*
X0185215Y0230863D01*
X0185096Y0230747D01*
X0184974Y0230634D01*
X0184850Y0230523D01*
X0184723Y0230416D01*
X0184593Y0230313D01*
X0184461Y0230212D01*
X0184326Y0230114D01*
X0184189Y0230020D01*
X0184050Y0229930D01*
X0183908Y0229843D01*
X0183764Y0229759D01*
X0183619Y0229679D01*
X0183471Y0229602D01*
X0183322Y0229529D01*
X0183171Y0229460D01*
X0183018Y0229395D01*
X0182864Y0229333D01*
X0182708Y0229275D01*
X0182551Y0229221D01*
X0182392Y0229171D01*
X0182232Y0229124D01*
X0182072Y0229082D01*
X0181910Y0229044D01*
X0181747Y0229009D01*
X0181584Y0228979D01*
X0181420Y0228952D01*
X0181255Y0228930D01*
X0181090Y0228912D01*
X0180924Y0228897D01*
X0180758Y0228887D01*
X0180592Y0228881D01*
X0180426Y0228879D01*
X0180260Y0228881D01*
X0180094Y0228887D01*
X0179928Y0228897D01*
X0179762Y0228912D01*
X0179597Y0228930D01*
X0179432Y0228952D01*
X0179268Y0228979D01*
X0179105Y0229009D01*
X0178942Y0229044D01*
X0178780Y0229082D01*
X0178620Y0229124D01*
X0178460Y0229171D01*
X0178301Y0229221D01*
X0178144Y0229275D01*
X0177988Y0229333D01*
X0177834Y0229395D01*
X0177681Y0229460D01*
X0177530Y0229529D01*
X0177381Y0229602D01*
X0177233Y0229679D01*
X0177088Y0229759D01*
X0176944Y0229843D01*
X0176802Y0229930D01*
X0176663Y0230020D01*
X0176526Y0230114D01*
X0176391Y0230212D01*
X0176259Y0230313D01*
X0176129Y0230416D01*
X0176002Y0230523D01*
X0175878Y0230634D01*
X0175756Y0230747D01*
X0175637Y0230863D01*
X0175521Y0230982D01*
X0175408Y0231104D01*
X0175297Y0231228D01*
X0175190Y0231355D01*
X0175087Y0231485D01*
X0174986Y0231617D01*
X0174888Y0231752D01*
X0174794Y0231889D01*
X0174704Y0232028D01*
X0174617Y0232170D01*
X0174533Y0232314D01*
X0174453Y0232459D01*
X0174376Y0232607D01*
X0174303Y0232756D01*
X0174234Y0232907D01*
X0174169Y0233060D01*
X0174107Y0233214D01*
X0174049Y0233370D01*
X0173995Y0233527D01*
X0173945Y0233686D01*
X0173898Y0233846D01*
X0173856Y0234006D01*
X0173818Y0234168D01*
X0173783Y0234331D01*
X0173753Y0234494D01*
X0173726Y0234658D01*
X0173704Y0234823D01*
X0173686Y0234988D01*
X0173671Y0235154D01*
X0173661Y0235320D01*
X0173655Y0235486D01*
X0173653Y0235652D01*
X0170583Y0241951D02*
X0170583Y0245494D01*
X0173733Y0217148D02*
X0170583Y0213998D01*
X0174126Y0213998D01*
X0175504Y0215376D01*
X0173733Y0217148D01*
X0174126Y0213998D02*
X0170583Y0210455D01*
X0170583Y0213998D01*
X0170583Y0210455D02*
X0170583Y0194313D01*
X0190268Y0194313D01*
X0190268Y0213998D01*
X0174126Y0213998D01*
X0173653Y0204156D02*
X0173655Y0204322D01*
X0173661Y0204488D01*
X0173671Y0204654D01*
X0173686Y0204820D01*
X0173704Y0204985D01*
X0173726Y0205150D01*
X0173753Y0205314D01*
X0173783Y0205477D01*
X0173818Y0205640D01*
X0173856Y0205802D01*
X0173898Y0205962D01*
X0173945Y0206122D01*
X0173995Y0206281D01*
X0174049Y0206438D01*
X0174107Y0206594D01*
X0174169Y0206748D01*
X0174234Y0206901D01*
X0174303Y0207052D01*
X0174376Y0207201D01*
X0174453Y0207349D01*
X0174533Y0207494D01*
X0174617Y0207638D01*
X0174704Y0207780D01*
X0174794Y0207919D01*
X0174888Y0208056D01*
X0174986Y0208191D01*
X0175087Y0208323D01*
X0175190Y0208453D01*
X0175297Y0208580D01*
X0175408Y0208704D01*
X0175521Y0208826D01*
X0175637Y0208945D01*
X0175756Y0209061D01*
X0175878Y0209174D01*
X0176002Y0209285D01*
X0176129Y0209392D01*
X0176259Y0209495D01*
X0176391Y0209596D01*
X0176526Y0209694D01*
X0176663Y0209788D01*
X0176802Y0209878D01*
X0176944Y0209965D01*
X0177088Y0210049D01*
X0177233Y0210129D01*
X0177381Y0210206D01*
X0177530Y0210279D01*
X0177681Y0210348D01*
X0177834Y0210413D01*
X0177988Y0210475D01*
X0178144Y0210533D01*
X0178301Y0210587D01*
X0178460Y0210637D01*
X0178620Y0210684D01*
X0178780Y0210726D01*
X0178942Y0210764D01*
X0179105Y0210799D01*
X0179268Y0210829D01*
X0179432Y0210856D01*
X0179597Y0210878D01*
X0179762Y0210896D01*
X0179928Y0210911D01*
X0180094Y0210921D01*
X0180260Y0210927D01*
X0180426Y0210929D01*
X0180592Y0210927D01*
X0180758Y0210921D01*
X0180924Y0210911D01*
X0181090Y0210896D01*
X0181255Y0210878D01*
X0181420Y0210856D01*
X0181584Y0210829D01*
X0181747Y0210799D01*
X0181910Y0210764D01*
X0182072Y0210726D01*
X0182232Y0210684D01*
X0182392Y0210637D01*
X0182551Y0210587D01*
X0182708Y0210533D01*
X0182864Y0210475D01*
X0183018Y0210413D01*
X0183171Y0210348D01*
X0183322Y0210279D01*
X0183471Y0210206D01*
X0183619Y0210129D01*
X0183764Y0210049D01*
X0183908Y0209965D01*
X0184050Y0209878D01*
X0184189Y0209788D01*
X0184326Y0209694D01*
X0184461Y0209596D01*
X0184593Y0209495D01*
X0184723Y0209392D01*
X0184850Y0209285D01*
X0184974Y0209174D01*
X0185096Y0209061D01*
X0185215Y0208945D01*
X0185331Y0208826D01*
X0185444Y0208704D01*
X0185555Y0208580D01*
X0185662Y0208453D01*
X0185765Y0208323D01*
X0185866Y0208191D01*
X0185964Y0208056D01*
X0186058Y0207919D01*
X0186148Y0207780D01*
X0186235Y0207638D01*
X0186319Y0207494D01*
X0186399Y0207349D01*
X0186476Y0207201D01*
X0186549Y0207052D01*
X0186618Y0206901D01*
X0186683Y0206748D01*
X0186745Y0206594D01*
X0186803Y0206438D01*
X0186857Y0206281D01*
X0186907Y0206122D01*
X0186954Y0205962D01*
X0186996Y0205802D01*
X0187034Y0205640D01*
X0187069Y0205477D01*
X0187099Y0205314D01*
X0187126Y0205150D01*
X0187148Y0204985D01*
X0187166Y0204820D01*
X0187181Y0204654D01*
X0187191Y0204488D01*
X0187197Y0204322D01*
X0187199Y0204156D01*
X0187197Y0203990D01*
X0187191Y0203824D01*
X0187181Y0203658D01*
X0187166Y0203492D01*
X0187148Y0203327D01*
X0187126Y0203162D01*
X0187099Y0202998D01*
X0187069Y0202835D01*
X0187034Y0202672D01*
X0186996Y0202510D01*
X0186954Y0202350D01*
X0186907Y0202190D01*
X0186857Y0202031D01*
X0186803Y0201874D01*
X0186745Y0201718D01*
X0186683Y0201564D01*
X0186618Y0201411D01*
X0186549Y0201260D01*
X0186476Y0201111D01*
X0186399Y0200963D01*
X0186319Y0200818D01*
X0186235Y0200674D01*
X0186148Y0200532D01*
X0186058Y0200393D01*
X0185964Y0200256D01*
X0185866Y0200121D01*
X0185765Y0199989D01*
X0185662Y0199859D01*
X0185555Y0199732D01*
X0185444Y0199608D01*
X0185331Y0199486D01*
X0185215Y0199367D01*
X0185096Y0199251D01*
X0184974Y0199138D01*
X0184850Y0199027D01*
X0184723Y0198920D01*
X0184593Y0198817D01*
X0184461Y0198716D01*
X0184326Y0198618D01*
X0184189Y0198524D01*
X0184050Y0198434D01*
X0183908Y0198347D01*
X0183764Y0198263D01*
X0183619Y0198183D01*
X0183471Y0198106D01*
X0183322Y0198033D01*
X0183171Y0197964D01*
X0183018Y0197899D01*
X0182864Y0197837D01*
X0182708Y0197779D01*
X0182551Y0197725D01*
X0182392Y0197675D01*
X0182232Y0197628D01*
X0182072Y0197586D01*
X0181910Y0197548D01*
X0181747Y0197513D01*
X0181584Y0197483D01*
X0181420Y0197456D01*
X0181255Y0197434D01*
X0181090Y0197416D01*
X0180924Y0197401D01*
X0180758Y0197391D01*
X0180592Y0197385D01*
X0180426Y0197383D01*
X0180260Y0197385D01*
X0180094Y0197391D01*
X0179928Y0197401D01*
X0179762Y0197416D01*
X0179597Y0197434D01*
X0179432Y0197456D01*
X0179268Y0197483D01*
X0179105Y0197513D01*
X0178942Y0197548D01*
X0178780Y0197586D01*
X0178620Y0197628D01*
X0178460Y0197675D01*
X0178301Y0197725D01*
X0178144Y0197779D01*
X0177988Y0197837D01*
X0177834Y0197899D01*
X0177681Y0197964D01*
X0177530Y0198033D01*
X0177381Y0198106D01*
X0177233Y0198183D01*
X0177088Y0198263D01*
X0176944Y0198347D01*
X0176802Y0198434D01*
X0176663Y0198524D01*
X0176526Y0198618D01*
X0176391Y0198716D01*
X0176259Y0198817D01*
X0176129Y0198920D01*
X0176002Y0199027D01*
X0175878Y0199138D01*
X0175756Y0199251D01*
X0175637Y0199367D01*
X0175521Y0199486D01*
X0175408Y0199608D01*
X0175297Y0199732D01*
X0175190Y0199859D01*
X0175087Y0199989D01*
X0174986Y0200121D01*
X0174888Y0200256D01*
X0174794Y0200393D01*
X0174704Y0200532D01*
X0174617Y0200674D01*
X0174533Y0200818D01*
X0174453Y0200963D01*
X0174376Y0201111D01*
X0174303Y0201260D01*
X0174234Y0201411D01*
X0174169Y0201564D01*
X0174107Y0201718D01*
X0174049Y0201874D01*
X0173995Y0202031D01*
X0173945Y0202190D01*
X0173898Y0202350D01*
X0173856Y0202510D01*
X0173818Y0202672D01*
X0173783Y0202835D01*
X0173753Y0202998D01*
X0173726Y0203162D01*
X0173704Y0203327D01*
X0173686Y0203492D01*
X0173671Y0203658D01*
X0173661Y0203824D01*
X0173655Y0203990D01*
X0173653Y0204156D01*
X0173929Y0190101D02*
X0170780Y0186951D01*
X0174323Y0186951D01*
X0175701Y0188329D01*
X0173929Y0190101D01*
X0174323Y0186951D02*
X0170780Y0183408D01*
X0170780Y0186951D01*
X0170780Y0183408D02*
X0170780Y0167266D01*
X0190465Y0167266D01*
X0190465Y0186951D01*
X0174323Y0186951D01*
X0173849Y0177109D02*
X0173851Y0177275D01*
X0173857Y0177441D01*
X0173867Y0177607D01*
X0173882Y0177773D01*
X0173900Y0177938D01*
X0173922Y0178103D01*
X0173949Y0178267D01*
X0173979Y0178430D01*
X0174014Y0178593D01*
X0174052Y0178755D01*
X0174094Y0178915D01*
X0174141Y0179075D01*
X0174191Y0179234D01*
X0174245Y0179391D01*
X0174303Y0179547D01*
X0174365Y0179701D01*
X0174430Y0179854D01*
X0174499Y0180005D01*
X0174572Y0180154D01*
X0174649Y0180302D01*
X0174729Y0180447D01*
X0174813Y0180591D01*
X0174900Y0180733D01*
X0174990Y0180872D01*
X0175084Y0181009D01*
X0175182Y0181144D01*
X0175283Y0181276D01*
X0175386Y0181406D01*
X0175493Y0181533D01*
X0175604Y0181657D01*
X0175717Y0181779D01*
X0175833Y0181898D01*
X0175952Y0182014D01*
X0176074Y0182127D01*
X0176198Y0182238D01*
X0176325Y0182345D01*
X0176455Y0182448D01*
X0176587Y0182549D01*
X0176722Y0182647D01*
X0176859Y0182741D01*
X0176998Y0182831D01*
X0177140Y0182918D01*
X0177284Y0183002D01*
X0177429Y0183082D01*
X0177577Y0183159D01*
X0177726Y0183232D01*
X0177877Y0183301D01*
X0178030Y0183366D01*
X0178184Y0183428D01*
X0178340Y0183486D01*
X0178497Y0183540D01*
X0178656Y0183590D01*
X0178816Y0183637D01*
X0178976Y0183679D01*
X0179138Y0183717D01*
X0179301Y0183752D01*
X0179464Y0183782D01*
X0179628Y0183809D01*
X0179793Y0183831D01*
X0179958Y0183849D01*
X0180124Y0183864D01*
X0180290Y0183874D01*
X0180456Y0183880D01*
X0180622Y0183882D01*
X0180788Y0183880D01*
X0180954Y0183874D01*
X0181120Y0183864D01*
X0181286Y0183849D01*
X0181451Y0183831D01*
X0181616Y0183809D01*
X0181780Y0183782D01*
X0181943Y0183752D01*
X0182106Y0183717D01*
X0182268Y0183679D01*
X0182428Y0183637D01*
X0182588Y0183590D01*
X0182747Y0183540D01*
X0182904Y0183486D01*
X0183060Y0183428D01*
X0183214Y0183366D01*
X0183367Y0183301D01*
X0183518Y0183232D01*
X0183667Y0183159D01*
X0183815Y0183082D01*
X0183960Y0183002D01*
X0184104Y0182918D01*
X0184246Y0182831D01*
X0184385Y0182741D01*
X0184522Y0182647D01*
X0184657Y0182549D01*
X0184789Y0182448D01*
X0184919Y0182345D01*
X0185046Y0182238D01*
X0185170Y0182127D01*
X0185292Y0182014D01*
X0185411Y0181898D01*
X0185527Y0181779D01*
X0185640Y0181657D01*
X0185751Y0181533D01*
X0185858Y0181406D01*
X0185961Y0181276D01*
X0186062Y0181144D01*
X0186160Y0181009D01*
X0186254Y0180872D01*
X0186344Y0180733D01*
X0186431Y0180591D01*
X0186515Y0180447D01*
X0186595Y0180302D01*
X0186672Y0180154D01*
X0186745Y0180005D01*
X0186814Y0179854D01*
X0186879Y0179701D01*
X0186941Y0179547D01*
X0186999Y0179391D01*
X0187053Y0179234D01*
X0187103Y0179075D01*
X0187150Y0178915D01*
X0187192Y0178755D01*
X0187230Y0178593D01*
X0187265Y0178430D01*
X0187295Y0178267D01*
X0187322Y0178103D01*
X0187344Y0177938D01*
X0187362Y0177773D01*
X0187377Y0177607D01*
X0187387Y0177441D01*
X0187393Y0177275D01*
X0187395Y0177109D01*
X0187393Y0176943D01*
X0187387Y0176777D01*
X0187377Y0176611D01*
X0187362Y0176445D01*
X0187344Y0176280D01*
X0187322Y0176115D01*
X0187295Y0175951D01*
X0187265Y0175788D01*
X0187230Y0175625D01*
X0187192Y0175463D01*
X0187150Y0175303D01*
X0187103Y0175143D01*
X0187053Y0174984D01*
X0186999Y0174827D01*
X0186941Y0174671D01*
X0186879Y0174517D01*
X0186814Y0174364D01*
X0186745Y0174213D01*
X0186672Y0174064D01*
X0186595Y0173916D01*
X0186515Y0173771D01*
X0186431Y0173627D01*
X0186344Y0173485D01*
X0186254Y0173346D01*
X0186160Y0173209D01*
X0186062Y0173074D01*
X0185961Y0172942D01*
X0185858Y0172812D01*
X0185751Y0172685D01*
X0185640Y0172561D01*
X0185527Y0172439D01*
X0185411Y0172320D01*
X0185292Y0172204D01*
X0185170Y0172091D01*
X0185046Y0171980D01*
X0184919Y0171873D01*
X0184789Y0171770D01*
X0184657Y0171669D01*
X0184522Y0171571D01*
X0184385Y0171477D01*
X0184246Y0171387D01*
X0184104Y0171300D01*
X0183960Y0171216D01*
X0183815Y0171136D01*
X0183667Y0171059D01*
X0183518Y0170986D01*
X0183367Y0170917D01*
X0183214Y0170852D01*
X0183060Y0170790D01*
X0182904Y0170732D01*
X0182747Y0170678D01*
X0182588Y0170628D01*
X0182428Y0170581D01*
X0182268Y0170539D01*
X0182106Y0170501D01*
X0181943Y0170466D01*
X0181780Y0170436D01*
X0181616Y0170409D01*
X0181451Y0170387D01*
X0181286Y0170369D01*
X0181120Y0170354D01*
X0180954Y0170344D01*
X0180788Y0170338D01*
X0180622Y0170336D01*
X0180456Y0170338D01*
X0180290Y0170344D01*
X0180124Y0170354D01*
X0179958Y0170369D01*
X0179793Y0170387D01*
X0179628Y0170409D01*
X0179464Y0170436D01*
X0179301Y0170466D01*
X0179138Y0170501D01*
X0178976Y0170539D01*
X0178816Y0170581D01*
X0178656Y0170628D01*
X0178497Y0170678D01*
X0178340Y0170732D01*
X0178184Y0170790D01*
X0178030Y0170852D01*
X0177877Y0170917D01*
X0177726Y0170986D01*
X0177577Y0171059D01*
X0177429Y0171136D01*
X0177284Y0171216D01*
X0177140Y0171300D01*
X0176998Y0171387D01*
X0176859Y0171477D01*
X0176722Y0171571D01*
X0176587Y0171669D01*
X0176455Y0171770D01*
X0176325Y0171873D01*
X0176198Y0171980D01*
X0176074Y0172091D01*
X0175952Y0172204D01*
X0175833Y0172320D01*
X0175717Y0172439D01*
X0175604Y0172561D01*
X0175493Y0172685D01*
X0175386Y0172812D01*
X0175283Y0172942D01*
X0175182Y0173074D01*
X0175084Y0173209D01*
X0174990Y0173346D01*
X0174900Y0173485D01*
X0174813Y0173627D01*
X0174729Y0173771D01*
X0174649Y0173916D01*
X0174572Y0174064D01*
X0174499Y0174213D01*
X0174430Y0174364D01*
X0174365Y0174517D01*
X0174303Y0174671D01*
X0174245Y0174827D01*
X0174191Y0174984D01*
X0174141Y0175143D01*
X0174094Y0175303D01*
X0174052Y0175463D01*
X0174014Y0175625D01*
X0173979Y0175788D01*
X0173949Y0175951D01*
X0173922Y0176115D01*
X0173900Y0176280D01*
X0173882Y0176445D01*
X0173867Y0176611D01*
X0173857Y0176777D01*
X0173851Y0176943D01*
X0173849Y0177109D01*
X0328864Y0267882D02*
X0330236Y0267882D01*
X0330281Y0267884D01*
X0330325Y0267890D01*
X0330369Y0267899D01*
X0330412Y0267912D01*
X0330453Y0267929D01*
X0330494Y0267949D01*
X0330532Y0267973D01*
X0330568Y0267999D01*
X0330601Y0268029D01*
X0330632Y0268061D01*
X0330661Y0268096D01*
X0330686Y0268133D01*
X0330707Y0268172D01*
X0330726Y0268213D01*
X0330741Y0268255D01*
X0330752Y0268299D01*
X0330760Y0268343D01*
X0330764Y0268388D01*
X0330764Y0268432D01*
X0330760Y0268477D01*
X0330752Y0268521D01*
X0330741Y0268565D01*
X0330726Y0268607D01*
X0330707Y0268648D01*
X0330686Y0268687D01*
X0330661Y0268724D01*
X0330632Y0268759D01*
X0330601Y0268791D01*
X0330568Y0268821D01*
X0330532Y0268847D01*
X0330494Y0268871D01*
X0330453Y0268891D01*
X0330412Y0268908D01*
X0330369Y0268921D01*
X0330325Y0268930D01*
X0330281Y0268936D01*
X0330236Y0268938D01*
X0328864Y0268938D01*
X0328864Y0270114D02*
X0328864Y0270748D01*
X0328866Y0270788D01*
X0328872Y0270828D01*
X0328881Y0270867D01*
X0328894Y0270905D01*
X0328911Y0270941D01*
X0328931Y0270976D01*
X0328954Y0271009D01*
X0328981Y0271039D01*
X0329010Y0271067D01*
X0329041Y0271092D01*
X0329075Y0271113D01*
X0329111Y0271132D01*
X0329148Y0271147D01*
X0329187Y0271158D01*
X0329226Y0271166D01*
X0329266Y0271170D01*
X0329306Y0271170D01*
X0329346Y0271166D01*
X0329385Y0271158D01*
X0329424Y0271147D01*
X0329461Y0271132D01*
X0329497Y0271113D01*
X0329531Y0271092D01*
X0329562Y0271067D01*
X0329591Y0271039D01*
X0329618Y0271009D01*
X0329641Y0270976D01*
X0329661Y0270941D01*
X0329678Y0270905D01*
X0329691Y0270867D01*
X0329700Y0270828D01*
X0329706Y0270788D01*
X0329708Y0270748D01*
X0329709Y0270748D02*
X0329709Y0270325D01*
X0329708Y0270642D02*
X0329710Y0270687D01*
X0329716Y0270731D01*
X0329725Y0270775D01*
X0329738Y0270818D01*
X0329755Y0270859D01*
X0329775Y0270900D01*
X0329799Y0270938D01*
X0329825Y0270974D01*
X0329855Y0271007D01*
X0329887Y0271038D01*
X0329922Y0271067D01*
X0329959Y0271092D01*
X0329998Y0271113D01*
X0330039Y0271132D01*
X0330081Y0271147D01*
X0330125Y0271158D01*
X0330169Y0271166D01*
X0330214Y0271170D01*
X0330258Y0271170D01*
X0330303Y0271166D01*
X0330347Y0271158D01*
X0330391Y0271147D01*
X0330433Y0271132D01*
X0330474Y0271113D01*
X0330513Y0271092D01*
X0330550Y0271067D01*
X0330585Y0271038D01*
X0330617Y0271007D01*
X0330647Y0270974D01*
X0330673Y0270938D01*
X0330697Y0270900D01*
X0330717Y0270859D01*
X0330734Y0270818D01*
X0330747Y0270775D01*
X0330756Y0270731D01*
X0330762Y0270687D01*
X0330764Y0270642D01*
X0330764Y0270114D01*
X0331339Y0267157D02*
X0331339Y0278107D01*
X0342689Y0278107D01*
X0342689Y0267157D01*
X0331339Y0267157D01*
D13*
X0064416Y0277617D03*
X0064416Y0280569D03*
D14*
X0064416Y0279093D03*
D15*
X0059013Y0277035D02*
X0057991Y0279079D01*
X0057735Y0279079D02*
X0056457Y0279079D01*
X0057735Y0279079D02*
X0057805Y0279081D01*
X0057876Y0279087D01*
X0057945Y0279096D01*
X0058014Y0279110D01*
X0058083Y0279127D01*
X0058150Y0279148D01*
X0058216Y0279173D01*
X0058280Y0279201D01*
X0058343Y0279233D01*
X0058404Y0279268D01*
X0058463Y0279307D01*
X0058520Y0279348D01*
X0058574Y0279393D01*
X0058626Y0279441D01*
X0058675Y0279491D01*
X0058722Y0279545D01*
X0058765Y0279600D01*
X0058805Y0279658D01*
X0058842Y0279718D01*
X0058875Y0279780D01*
X0058905Y0279844D01*
X0058932Y0279909D01*
X0058955Y0279975D01*
X0058974Y0280043D01*
X0058989Y0280112D01*
X0059001Y0280181D01*
X0059009Y0280251D01*
X0059013Y0280322D01*
X0059013Y0280392D01*
X0059009Y0280463D01*
X0059001Y0280533D01*
X0058989Y0280602D01*
X0058974Y0280671D01*
X0058955Y0280739D01*
X0058932Y0280805D01*
X0058905Y0280870D01*
X0058875Y0280934D01*
X0058842Y0280996D01*
X0058805Y0281056D01*
X0058765Y0281114D01*
X0058722Y0281169D01*
X0058675Y0281223D01*
X0058626Y0281273D01*
X0058574Y0281321D01*
X0058520Y0281366D01*
X0058463Y0281407D01*
X0058404Y0281446D01*
X0058343Y0281481D01*
X0058280Y0281513D01*
X0058216Y0281541D01*
X0058150Y0281566D01*
X0058083Y0281587D01*
X0058014Y0281604D01*
X0057945Y0281618D01*
X0057876Y0281627D01*
X0057805Y0281633D01*
X0057735Y0281635D01*
X0056457Y0281635D01*
X0056457Y0277035D01*
X0054582Y0277035D02*
X0052537Y0277035D01*
X0052537Y0281635D01*
X0054582Y0281635D01*
X0054071Y0279591D02*
X0052537Y0279591D01*
X0050601Y0281635D02*
X0049578Y0277035D01*
X0048556Y0280102D01*
X0047534Y0277035D01*
X0046512Y0281635D01*
X0044734Y0280357D02*
X0044734Y0278313D01*
X0044732Y0278243D01*
X0044726Y0278172D01*
X0044717Y0278103D01*
X0044703Y0278034D01*
X0044686Y0277965D01*
X0044665Y0277898D01*
X0044640Y0277832D01*
X0044612Y0277768D01*
X0044580Y0277705D01*
X0044545Y0277644D01*
X0044506Y0277585D01*
X0044465Y0277528D01*
X0044420Y0277474D01*
X0044372Y0277422D01*
X0044322Y0277373D01*
X0044268Y0277326D01*
X0044213Y0277283D01*
X0044155Y0277243D01*
X0044095Y0277206D01*
X0044033Y0277173D01*
X0043969Y0277143D01*
X0043904Y0277116D01*
X0043838Y0277093D01*
X0043770Y0277074D01*
X0043701Y0277059D01*
X0043632Y0277047D01*
X0043562Y0277039D01*
X0043491Y0277035D01*
X0043421Y0277035D01*
X0043350Y0277039D01*
X0043280Y0277047D01*
X0043211Y0277059D01*
X0043142Y0277074D01*
X0043074Y0277093D01*
X0043008Y0277116D01*
X0042943Y0277143D01*
X0042879Y0277173D01*
X0042817Y0277206D01*
X0042757Y0277243D01*
X0042699Y0277283D01*
X0042644Y0277326D01*
X0042590Y0277373D01*
X0042540Y0277422D01*
X0042492Y0277474D01*
X0042447Y0277528D01*
X0042406Y0277585D01*
X0042367Y0277644D01*
X0042332Y0277705D01*
X0042300Y0277768D01*
X0042272Y0277832D01*
X0042247Y0277898D01*
X0042226Y0277965D01*
X0042209Y0278034D01*
X0042195Y0278103D01*
X0042186Y0278172D01*
X0042180Y0278243D01*
X0042178Y0278313D01*
X0042178Y0280357D01*
X0042180Y0280427D01*
X0042186Y0280498D01*
X0042195Y0280567D01*
X0042209Y0280636D01*
X0042226Y0280705D01*
X0042247Y0280772D01*
X0042272Y0280838D01*
X0042300Y0280902D01*
X0042332Y0280965D01*
X0042367Y0281026D01*
X0042406Y0281085D01*
X0042447Y0281142D01*
X0042492Y0281196D01*
X0042540Y0281248D01*
X0042590Y0281297D01*
X0042644Y0281344D01*
X0042699Y0281387D01*
X0042757Y0281427D01*
X0042817Y0281464D01*
X0042879Y0281497D01*
X0042943Y0281527D01*
X0043008Y0281554D01*
X0043074Y0281577D01*
X0043142Y0281596D01*
X0043211Y0281611D01*
X0043280Y0281623D01*
X0043350Y0281631D01*
X0043421Y0281635D01*
X0043491Y0281635D01*
X0043562Y0281631D01*
X0043632Y0281623D01*
X0043701Y0281611D01*
X0043770Y0281596D01*
X0043838Y0281577D01*
X0043904Y0281554D01*
X0043969Y0281527D01*
X0044033Y0281497D01*
X0044095Y0281464D01*
X0044155Y0281427D01*
X0044213Y0281387D01*
X0044268Y0281344D01*
X0044322Y0281297D01*
X0044372Y0281248D01*
X0044420Y0281196D01*
X0044465Y0281142D01*
X0044506Y0281085D01*
X0044545Y0281026D01*
X0044580Y0280965D01*
X0044612Y0280902D01*
X0044640Y0280838D01*
X0044665Y0280772D01*
X0044686Y0280705D01*
X0044703Y0280636D01*
X0044717Y0280567D01*
X0044726Y0280498D01*
X0044732Y0280427D01*
X0044734Y0280357D01*
X0039173Y0279079D02*
X0039243Y0279081D01*
X0039314Y0279087D01*
X0039383Y0279096D01*
X0039452Y0279110D01*
X0039521Y0279127D01*
X0039588Y0279148D01*
X0039654Y0279173D01*
X0039718Y0279201D01*
X0039781Y0279233D01*
X0039842Y0279268D01*
X0039901Y0279307D01*
X0039958Y0279348D01*
X0040012Y0279393D01*
X0040064Y0279441D01*
X0040113Y0279491D01*
X0040160Y0279545D01*
X0040203Y0279600D01*
X0040243Y0279658D01*
X0040280Y0279718D01*
X0040313Y0279780D01*
X0040343Y0279844D01*
X0040370Y0279909D01*
X0040393Y0279975D01*
X0040412Y0280043D01*
X0040427Y0280112D01*
X0040439Y0280181D01*
X0040447Y0280251D01*
X0040451Y0280322D01*
X0040451Y0280392D01*
X0040447Y0280463D01*
X0040439Y0280533D01*
X0040427Y0280602D01*
X0040412Y0280671D01*
X0040393Y0280739D01*
X0040370Y0280805D01*
X0040343Y0280870D01*
X0040313Y0280934D01*
X0040280Y0280996D01*
X0040243Y0281056D01*
X0040203Y0281114D01*
X0040160Y0281169D01*
X0040113Y0281223D01*
X0040064Y0281273D01*
X0040012Y0281321D01*
X0039958Y0281366D01*
X0039901Y0281407D01*
X0039842Y0281446D01*
X0039781Y0281481D01*
X0039718Y0281513D01*
X0039654Y0281541D01*
X0039588Y0281566D01*
X0039521Y0281587D01*
X0039452Y0281604D01*
X0039383Y0281618D01*
X0039314Y0281627D01*
X0039243Y0281633D01*
X0039173Y0281635D01*
X0037895Y0281635D01*
X0037895Y0277035D01*
X0037895Y0279079D02*
X0039173Y0279079D01*
X0362259Y0274331D02*
X0362259Y0272798D01*
X0362260Y0274331D02*
X0362262Y0274394D01*
X0362268Y0274457D01*
X0362277Y0274519D01*
X0362291Y0274580D01*
X0362308Y0274641D01*
X0362329Y0274700D01*
X0362354Y0274758D01*
X0362382Y0274815D01*
X0362413Y0274869D01*
X0362448Y0274921D01*
X0362486Y0274972D01*
X0362527Y0275020D01*
X0362571Y0275065D01*
X0362617Y0275107D01*
X0362666Y0275147D01*
X0362717Y0275183D01*
X0362771Y0275216D01*
X0362826Y0275246D01*
X0362884Y0275272D01*
X0362942Y0275295D01*
X0363002Y0275314D01*
X0363063Y0275329D01*
X0363125Y0275341D01*
X0363188Y0275349D01*
X0363251Y0275353D01*
X0363313Y0275353D01*
X0363376Y0275349D01*
X0363439Y0275341D01*
X0363501Y0275329D01*
X0363562Y0275314D01*
X0363622Y0275295D01*
X0363680Y0275272D01*
X0363738Y0275246D01*
X0363793Y0275216D01*
X0363847Y0275183D01*
X0363898Y0275147D01*
X0363947Y0275107D01*
X0363993Y0275065D01*
X0364037Y0275020D01*
X0364078Y0274972D01*
X0364116Y0274921D01*
X0364151Y0274869D01*
X0364182Y0274815D01*
X0364210Y0274758D01*
X0364235Y0274700D01*
X0364256Y0274641D01*
X0364273Y0274580D01*
X0364287Y0274519D01*
X0364296Y0274457D01*
X0364302Y0274394D01*
X0364304Y0274331D01*
X0364304Y0273309D01*
X0364304Y0274076D02*
X0364306Y0274146D01*
X0364312Y0274217D01*
X0364321Y0274286D01*
X0364335Y0274355D01*
X0364352Y0274424D01*
X0364373Y0274491D01*
X0364398Y0274557D01*
X0364426Y0274621D01*
X0364458Y0274684D01*
X0364493Y0274745D01*
X0364532Y0274804D01*
X0364573Y0274861D01*
X0364618Y0274915D01*
X0364666Y0274967D01*
X0364716Y0275016D01*
X0364770Y0275063D01*
X0364825Y0275106D01*
X0364883Y0275146D01*
X0364943Y0275183D01*
X0365005Y0275216D01*
X0365069Y0275246D01*
X0365134Y0275273D01*
X0365200Y0275296D01*
X0365268Y0275315D01*
X0365337Y0275330D01*
X0365406Y0275342D01*
X0365476Y0275350D01*
X0365547Y0275354D01*
X0365617Y0275354D01*
X0365688Y0275350D01*
X0365758Y0275342D01*
X0365827Y0275330D01*
X0365896Y0275315D01*
X0365964Y0275296D01*
X0366030Y0275273D01*
X0366095Y0275246D01*
X0366159Y0275216D01*
X0366221Y0275183D01*
X0366281Y0275146D01*
X0366339Y0275106D01*
X0366394Y0275063D01*
X0366448Y0275016D01*
X0366498Y0274967D01*
X0366546Y0274915D01*
X0366591Y0274861D01*
X0366632Y0274804D01*
X0366671Y0274745D01*
X0366706Y0274684D01*
X0366738Y0274621D01*
X0366766Y0274557D01*
X0366791Y0274491D01*
X0366812Y0274424D01*
X0366829Y0274355D01*
X0366843Y0274286D01*
X0366852Y0274217D01*
X0366858Y0274146D01*
X0366860Y0274076D01*
X0366859Y0274076D02*
X0366859Y0272798D01*
X0366859Y0270854D02*
X0366859Y0268298D01*
X0366859Y0269576D02*
X0362259Y0269576D01*
X0363282Y0268298D01*
X0362259Y0266579D02*
X0362259Y0265557D01*
X0362260Y0265557D02*
X0362262Y0265495D01*
X0362267Y0265434D01*
X0362277Y0265373D01*
X0362290Y0265312D01*
X0362306Y0265253D01*
X0362326Y0265195D01*
X0362350Y0265138D01*
X0362377Y0265082D01*
X0362407Y0265028D01*
X0362441Y0264976D01*
X0362478Y0264927D01*
X0362517Y0264879D01*
X0362559Y0264834D01*
X0362604Y0264792D01*
X0362652Y0264752D01*
X0362701Y0264716D01*
X0362753Y0264682D01*
X0362807Y0264652D01*
X0362863Y0264625D01*
X0362920Y0264601D01*
X0362978Y0264581D01*
X0363037Y0264565D01*
X0363098Y0264552D01*
X0363159Y0264542D01*
X0363220Y0264537D01*
X0363282Y0264535D01*
X0365837Y0264535D01*
X0365899Y0264537D01*
X0365960Y0264542D01*
X0366021Y0264552D01*
X0366082Y0264565D01*
X0366141Y0264581D01*
X0366199Y0264601D01*
X0366256Y0264625D01*
X0366312Y0264652D01*
X0366366Y0264682D01*
X0366418Y0264716D01*
X0366467Y0264752D01*
X0366515Y0264792D01*
X0366560Y0264834D01*
X0366602Y0264879D01*
X0366642Y0264927D01*
X0366678Y0264976D01*
X0366712Y0265028D01*
X0366742Y0265082D01*
X0366769Y0265138D01*
X0366793Y0265195D01*
X0366813Y0265253D01*
X0366829Y0265312D01*
X0366842Y0265373D01*
X0366852Y0265434D01*
X0366857Y0265495D01*
X0366859Y0265557D01*
X0366859Y0266579D01*
M02*
