G75*
%MOIN*%
%OFA0B0*%
%FSLAX25Y25*%
%IPPOS*%
%LPD*%
%AMOC8*
5,1,8,0,0,1.08239X$1,22.5*
%
%ADD10C,0.00000*%
%ADD11R,0.06306X0.05518*%
%ADD12R,0.04731X0.04337*%
%ADD13R,0.05518X0.06306*%
%ADD14R,0.04337X0.04731*%
%ADD15R,0.11030X0.06699*%
%ADD16R,0.09061X0.02762*%
%ADD17R,0.14180X0.04337*%
%ADD18R,0.13786X0.06306*%
%ADD19R,0.03943X0.03550*%
%ADD20R,0.03550X0.03550*%
%ADD21R,0.04534X0.02959*%
%ADD22R,0.04337X0.05912*%
%ADD23R,0.01900X0.04900*%
%ADD24R,0.06306X0.03943*%
%ADD25R,0.03943X0.06306*%
%ADD26R,0.24022X0.24022*%
%ADD27R,0.14180X0.10243*%
%ADD28R,0.05715X0.01975*%
%ADD29R,0.08274X0.08668*%
%ADD30R,0.07880X0.05124*%
%ADD31R,0.07880X0.06699*%
%ADD32R,0.27959X0.20085*%
%ADD33C,0.09061*%
%ADD34R,0.24416X0.15361*%
D10*
X0009166Y0005337D02*
X0009166Y0332109D01*
X0402866Y0332109D01*
X0402866Y0005337D01*
X0009166Y0005337D01*
X0019795Y0080928D02*
X0019797Y0081059D01*
X0019803Y0081191D01*
X0019813Y0081322D01*
X0019827Y0081453D01*
X0019845Y0081583D01*
X0019867Y0081712D01*
X0019892Y0081841D01*
X0019922Y0081969D01*
X0019956Y0082096D01*
X0019993Y0082223D01*
X0020034Y0082347D01*
X0020079Y0082471D01*
X0020128Y0082593D01*
X0020180Y0082714D01*
X0020236Y0082832D01*
X0020296Y0082950D01*
X0020359Y0083065D01*
X0020426Y0083178D01*
X0020496Y0083290D01*
X0020569Y0083399D01*
X0020645Y0083505D01*
X0020725Y0083610D01*
X0020808Y0083712D01*
X0020894Y0083811D01*
X0020983Y0083908D01*
X0021075Y0084002D01*
X0021170Y0084093D01*
X0021267Y0084182D01*
X0021367Y0084267D01*
X0021470Y0084349D01*
X0021575Y0084428D01*
X0021682Y0084504D01*
X0021792Y0084576D01*
X0021904Y0084645D01*
X0022018Y0084711D01*
X0022133Y0084773D01*
X0022251Y0084832D01*
X0022370Y0084887D01*
X0022491Y0084939D01*
X0022614Y0084986D01*
X0022738Y0085030D01*
X0022863Y0085071D01*
X0022989Y0085107D01*
X0023117Y0085140D01*
X0023245Y0085168D01*
X0023374Y0085193D01*
X0023504Y0085214D01*
X0023634Y0085231D01*
X0023765Y0085244D01*
X0023896Y0085253D01*
X0024027Y0085258D01*
X0024159Y0085259D01*
X0024290Y0085256D01*
X0024422Y0085249D01*
X0024553Y0085238D01*
X0024683Y0085223D01*
X0024813Y0085204D01*
X0024943Y0085181D01*
X0025071Y0085155D01*
X0025199Y0085124D01*
X0025326Y0085089D01*
X0025452Y0085051D01*
X0025576Y0085009D01*
X0025700Y0084963D01*
X0025821Y0084913D01*
X0025941Y0084860D01*
X0026060Y0084803D01*
X0026177Y0084743D01*
X0026291Y0084679D01*
X0026404Y0084611D01*
X0026515Y0084540D01*
X0026624Y0084466D01*
X0026730Y0084389D01*
X0026834Y0084308D01*
X0026935Y0084225D01*
X0027034Y0084138D01*
X0027130Y0084048D01*
X0027223Y0083955D01*
X0027314Y0083860D01*
X0027401Y0083762D01*
X0027486Y0083661D01*
X0027567Y0083558D01*
X0027645Y0083452D01*
X0027720Y0083344D01*
X0027792Y0083234D01*
X0027860Y0083122D01*
X0027925Y0083008D01*
X0027986Y0082891D01*
X0028044Y0082773D01*
X0028098Y0082653D01*
X0028149Y0082532D01*
X0028196Y0082409D01*
X0028239Y0082285D01*
X0028278Y0082160D01*
X0028314Y0082033D01*
X0028345Y0081905D01*
X0028373Y0081777D01*
X0028397Y0081648D01*
X0028417Y0081518D01*
X0028433Y0081387D01*
X0028445Y0081256D01*
X0028453Y0081125D01*
X0028457Y0080994D01*
X0028457Y0080862D01*
X0028453Y0080731D01*
X0028445Y0080600D01*
X0028433Y0080469D01*
X0028417Y0080338D01*
X0028397Y0080208D01*
X0028373Y0080079D01*
X0028345Y0079951D01*
X0028314Y0079823D01*
X0028278Y0079696D01*
X0028239Y0079571D01*
X0028196Y0079447D01*
X0028149Y0079324D01*
X0028098Y0079203D01*
X0028044Y0079083D01*
X0027986Y0078965D01*
X0027925Y0078848D01*
X0027860Y0078734D01*
X0027792Y0078622D01*
X0027720Y0078512D01*
X0027645Y0078404D01*
X0027567Y0078298D01*
X0027486Y0078195D01*
X0027401Y0078094D01*
X0027314Y0077996D01*
X0027223Y0077901D01*
X0027130Y0077808D01*
X0027034Y0077718D01*
X0026935Y0077631D01*
X0026834Y0077548D01*
X0026730Y0077467D01*
X0026624Y0077390D01*
X0026515Y0077316D01*
X0026404Y0077245D01*
X0026292Y0077177D01*
X0026177Y0077113D01*
X0026060Y0077053D01*
X0025941Y0076996D01*
X0025821Y0076943D01*
X0025700Y0076893D01*
X0025576Y0076847D01*
X0025452Y0076805D01*
X0025326Y0076767D01*
X0025199Y0076732D01*
X0025071Y0076701D01*
X0024943Y0076675D01*
X0024813Y0076652D01*
X0024683Y0076633D01*
X0024553Y0076618D01*
X0024422Y0076607D01*
X0024290Y0076600D01*
X0024159Y0076597D01*
X0024027Y0076598D01*
X0023896Y0076603D01*
X0023765Y0076612D01*
X0023634Y0076625D01*
X0023504Y0076642D01*
X0023374Y0076663D01*
X0023245Y0076688D01*
X0023117Y0076716D01*
X0022989Y0076749D01*
X0022863Y0076785D01*
X0022738Y0076826D01*
X0022614Y0076870D01*
X0022491Y0076917D01*
X0022370Y0076969D01*
X0022251Y0077024D01*
X0022133Y0077083D01*
X0022018Y0077145D01*
X0021904Y0077211D01*
X0021792Y0077280D01*
X0021682Y0077352D01*
X0021575Y0077428D01*
X0021470Y0077507D01*
X0021367Y0077589D01*
X0021267Y0077674D01*
X0021170Y0077763D01*
X0021075Y0077854D01*
X0020983Y0077948D01*
X0020894Y0078045D01*
X0020808Y0078144D01*
X0020725Y0078246D01*
X0020645Y0078351D01*
X0020569Y0078457D01*
X0020496Y0078566D01*
X0020426Y0078678D01*
X0020359Y0078791D01*
X0020296Y0078906D01*
X0020236Y0079024D01*
X0020180Y0079142D01*
X0020128Y0079263D01*
X0020079Y0079385D01*
X0020034Y0079509D01*
X0019993Y0079633D01*
X0019956Y0079760D01*
X0019922Y0079887D01*
X0019892Y0080015D01*
X0019867Y0080144D01*
X0019845Y0080273D01*
X0019827Y0080403D01*
X0019813Y0080534D01*
X0019803Y0080665D01*
X0019797Y0080797D01*
X0019795Y0080928D01*
X0019795Y0100613D02*
X0019797Y0100744D01*
X0019803Y0100876D01*
X0019813Y0101007D01*
X0019827Y0101138D01*
X0019845Y0101268D01*
X0019867Y0101397D01*
X0019892Y0101526D01*
X0019922Y0101654D01*
X0019956Y0101781D01*
X0019993Y0101908D01*
X0020034Y0102032D01*
X0020079Y0102156D01*
X0020128Y0102278D01*
X0020180Y0102399D01*
X0020236Y0102517D01*
X0020296Y0102635D01*
X0020359Y0102750D01*
X0020426Y0102863D01*
X0020496Y0102975D01*
X0020569Y0103084D01*
X0020645Y0103190D01*
X0020725Y0103295D01*
X0020808Y0103397D01*
X0020894Y0103496D01*
X0020983Y0103593D01*
X0021075Y0103687D01*
X0021170Y0103778D01*
X0021267Y0103867D01*
X0021367Y0103952D01*
X0021470Y0104034D01*
X0021575Y0104113D01*
X0021682Y0104189D01*
X0021792Y0104261D01*
X0021904Y0104330D01*
X0022018Y0104396D01*
X0022133Y0104458D01*
X0022251Y0104517D01*
X0022370Y0104572D01*
X0022491Y0104624D01*
X0022614Y0104671D01*
X0022738Y0104715D01*
X0022863Y0104756D01*
X0022989Y0104792D01*
X0023117Y0104825D01*
X0023245Y0104853D01*
X0023374Y0104878D01*
X0023504Y0104899D01*
X0023634Y0104916D01*
X0023765Y0104929D01*
X0023896Y0104938D01*
X0024027Y0104943D01*
X0024159Y0104944D01*
X0024290Y0104941D01*
X0024422Y0104934D01*
X0024553Y0104923D01*
X0024683Y0104908D01*
X0024813Y0104889D01*
X0024943Y0104866D01*
X0025071Y0104840D01*
X0025199Y0104809D01*
X0025326Y0104774D01*
X0025452Y0104736D01*
X0025576Y0104694D01*
X0025700Y0104648D01*
X0025821Y0104598D01*
X0025941Y0104545D01*
X0026060Y0104488D01*
X0026177Y0104428D01*
X0026291Y0104364D01*
X0026404Y0104296D01*
X0026515Y0104225D01*
X0026624Y0104151D01*
X0026730Y0104074D01*
X0026834Y0103993D01*
X0026935Y0103910D01*
X0027034Y0103823D01*
X0027130Y0103733D01*
X0027223Y0103640D01*
X0027314Y0103545D01*
X0027401Y0103447D01*
X0027486Y0103346D01*
X0027567Y0103243D01*
X0027645Y0103137D01*
X0027720Y0103029D01*
X0027792Y0102919D01*
X0027860Y0102807D01*
X0027925Y0102693D01*
X0027986Y0102576D01*
X0028044Y0102458D01*
X0028098Y0102338D01*
X0028149Y0102217D01*
X0028196Y0102094D01*
X0028239Y0101970D01*
X0028278Y0101845D01*
X0028314Y0101718D01*
X0028345Y0101590D01*
X0028373Y0101462D01*
X0028397Y0101333D01*
X0028417Y0101203D01*
X0028433Y0101072D01*
X0028445Y0100941D01*
X0028453Y0100810D01*
X0028457Y0100679D01*
X0028457Y0100547D01*
X0028453Y0100416D01*
X0028445Y0100285D01*
X0028433Y0100154D01*
X0028417Y0100023D01*
X0028397Y0099893D01*
X0028373Y0099764D01*
X0028345Y0099636D01*
X0028314Y0099508D01*
X0028278Y0099381D01*
X0028239Y0099256D01*
X0028196Y0099132D01*
X0028149Y0099009D01*
X0028098Y0098888D01*
X0028044Y0098768D01*
X0027986Y0098650D01*
X0027925Y0098533D01*
X0027860Y0098419D01*
X0027792Y0098307D01*
X0027720Y0098197D01*
X0027645Y0098089D01*
X0027567Y0097983D01*
X0027486Y0097880D01*
X0027401Y0097779D01*
X0027314Y0097681D01*
X0027223Y0097586D01*
X0027130Y0097493D01*
X0027034Y0097403D01*
X0026935Y0097316D01*
X0026834Y0097233D01*
X0026730Y0097152D01*
X0026624Y0097075D01*
X0026515Y0097001D01*
X0026404Y0096930D01*
X0026292Y0096862D01*
X0026177Y0096798D01*
X0026060Y0096738D01*
X0025941Y0096681D01*
X0025821Y0096628D01*
X0025700Y0096578D01*
X0025576Y0096532D01*
X0025452Y0096490D01*
X0025326Y0096452D01*
X0025199Y0096417D01*
X0025071Y0096386D01*
X0024943Y0096360D01*
X0024813Y0096337D01*
X0024683Y0096318D01*
X0024553Y0096303D01*
X0024422Y0096292D01*
X0024290Y0096285D01*
X0024159Y0096282D01*
X0024027Y0096283D01*
X0023896Y0096288D01*
X0023765Y0096297D01*
X0023634Y0096310D01*
X0023504Y0096327D01*
X0023374Y0096348D01*
X0023245Y0096373D01*
X0023117Y0096401D01*
X0022989Y0096434D01*
X0022863Y0096470D01*
X0022738Y0096511D01*
X0022614Y0096555D01*
X0022491Y0096602D01*
X0022370Y0096654D01*
X0022251Y0096709D01*
X0022133Y0096768D01*
X0022018Y0096830D01*
X0021904Y0096896D01*
X0021792Y0096965D01*
X0021682Y0097037D01*
X0021575Y0097113D01*
X0021470Y0097192D01*
X0021367Y0097274D01*
X0021267Y0097359D01*
X0021170Y0097448D01*
X0021075Y0097539D01*
X0020983Y0097633D01*
X0020894Y0097730D01*
X0020808Y0097829D01*
X0020725Y0097931D01*
X0020645Y0098036D01*
X0020569Y0098142D01*
X0020496Y0098251D01*
X0020426Y0098363D01*
X0020359Y0098476D01*
X0020296Y0098591D01*
X0020236Y0098709D01*
X0020180Y0098827D01*
X0020128Y0098948D01*
X0020079Y0099070D01*
X0020034Y0099194D01*
X0019993Y0099318D01*
X0019956Y0099445D01*
X0019922Y0099572D01*
X0019892Y0099700D01*
X0019867Y0099829D01*
X0019845Y0099958D01*
X0019827Y0100088D01*
X0019813Y0100219D01*
X0019803Y0100350D01*
X0019797Y0100482D01*
X0019795Y0100613D01*
D11*
X0117748Y0111585D03*
X0117748Y0118278D03*
D12*
X0125168Y0173979D03*
X0131861Y0173979D03*
X0108884Y0174770D03*
X0108884Y0181463D03*
X0108181Y0198250D03*
X0114874Y0198250D03*
X0085937Y0207648D03*
X0085937Y0214341D03*
X0068221Y0222463D03*
X0068221Y0229156D03*
X0083969Y0238211D03*
X0083969Y0244904D03*
X0072158Y0257896D03*
X0072158Y0264589D03*
X0162709Y0269707D03*
X0162709Y0276400D03*
X0289284Y0273054D03*
X0295977Y0273054D03*
X0308772Y0270494D03*
X0308772Y0263802D03*
X0332000Y0217345D03*
X0332000Y0210652D03*
X0351685Y0205534D03*
X0351685Y0198841D03*
X0322748Y0189589D03*
X0316055Y0189589D03*
X0296567Y0163105D03*
X0296567Y0156412D03*
X0280229Y0154943D03*
X0273536Y0154943D03*
X0289010Y0107384D03*
X0295703Y0107384D03*
X0327670Y0107109D03*
X0327670Y0100416D03*
X0335937Y0100416D03*
X0335937Y0107109D03*
X0335741Y0082109D03*
X0329048Y0082109D03*
X0341951Y0082109D03*
X0348644Y0082109D03*
D13*
X0145085Y0121195D03*
X0138392Y0121195D03*
D14*
X0167650Y0102451D03*
X0167650Y0095758D03*
X0091252Y0111636D03*
X0084559Y0111636D03*
X0083969Y0120101D03*
X0083969Y0126794D03*
X0083662Y0152715D03*
X0083662Y0159408D03*
X0085937Y0186951D03*
X0085937Y0193644D03*
X0107518Y0212784D03*
X0114211Y0212784D03*
X0135741Y0213998D03*
X0142433Y0213998D03*
X0143024Y0205534D03*
X0143024Y0198841D03*
X0127022Y0185522D03*
X0120329Y0185522D03*
X0135741Y0225809D03*
X0142433Y0225809D03*
X0143024Y0234274D03*
X0143024Y0240967D03*
X0103300Y0277857D03*
X0096607Y0277857D03*
X0257788Y0269117D03*
X0264481Y0269117D03*
X0265071Y0260652D03*
X0265071Y0253959D03*
X0324717Y0253369D03*
X0331410Y0253369D03*
X0347748Y0248841D03*
X0347748Y0242148D03*
X0331410Y0233683D03*
X0324717Y0233683D03*
X0310544Y0200219D03*
X0303851Y0200219D03*
X0348339Y0170691D03*
X0355032Y0170691D03*
X0351095Y0139195D03*
X0344402Y0139195D03*
X0314945Y0158880D03*
X0308252Y0158880D03*
X0276292Y0143132D03*
X0269599Y0143132D03*
X0293473Y0091008D03*
X0300166Y0091008D03*
X0299733Y0082231D03*
X0293040Y0082231D03*
D15*
X0161357Y0116613D03*
X0161357Y0127636D03*
D16*
X0150229Y0106459D03*
X0150229Y0101459D03*
X0150229Y0096459D03*
X0150229Y0091459D03*
X0129756Y0091459D03*
X0129756Y0096459D03*
X0129756Y0101459D03*
X0129756Y0106459D03*
D17*
X0042630Y0143132D03*
X0042630Y0151006D03*
X0042630Y0158880D03*
X0042630Y0190376D03*
X0042630Y0198250D03*
X0042630Y0206124D03*
X0042630Y0237620D03*
X0042630Y0245494D03*
X0042630Y0253369D03*
X0369402Y0253369D03*
X0369402Y0245494D03*
X0369402Y0237620D03*
X0369402Y0206124D03*
X0369402Y0198250D03*
X0369402Y0190376D03*
X0369402Y0158880D03*
X0369402Y0151006D03*
X0369402Y0143132D03*
X0369402Y0111636D03*
X0369402Y0103762D03*
X0369402Y0095888D03*
D18*
X0392040Y0086636D03*
X0392040Y0120888D03*
X0392040Y0133880D03*
X0392040Y0168132D03*
X0392040Y0181124D03*
X0392040Y0215376D03*
X0392040Y0228369D03*
X0392040Y0262620D03*
X0019992Y0262620D03*
X0019992Y0228369D03*
X0019992Y0215376D03*
X0019992Y0181124D03*
X0019992Y0168132D03*
X0019992Y0133880D03*
D19*
X0057055Y0164260D03*
X0064929Y0160520D03*
X0064929Y0168000D03*
X0062315Y0192138D03*
X0062315Y0199619D03*
X0054441Y0195878D03*
X0062315Y0242658D03*
X0062315Y0250138D03*
X0054441Y0246398D03*
X0139764Y0264101D03*
X0139764Y0271581D03*
X0147638Y0267841D03*
X0339607Y0160516D03*
X0339607Y0153036D03*
X0347481Y0156776D03*
X0346866Y0180963D03*
X0346866Y0188443D03*
X0354741Y0184703D03*
X0339313Y0128705D03*
X0339313Y0121225D03*
X0347187Y0124965D03*
D20*
X0311983Y0090073D03*
X0306077Y0090073D03*
X0306087Y0082398D03*
X0311992Y0082398D03*
D21*
X0158300Y0146872D03*
X0158300Y0155337D03*
X0141961Y0155337D03*
X0141961Y0146872D03*
X0112040Y0146872D03*
X0112040Y0155337D03*
X0095701Y0155337D03*
X0095701Y0146872D03*
D22*
X0292827Y0182109D03*
X0300307Y0182109D03*
X0296567Y0190770D03*
X0316252Y0178959D03*
X0312512Y0170298D03*
X0319992Y0170298D03*
D23*
X0314786Y0143722D03*
X0312286Y0143722D03*
X0309786Y0143722D03*
X0307286Y0143722D03*
X0304786Y0143722D03*
X0302286Y0143722D03*
X0299786Y0143722D03*
X0297286Y0143722D03*
X0294786Y0143722D03*
X0292286Y0143722D03*
X0292286Y0122622D03*
X0294786Y0122622D03*
X0297286Y0122622D03*
X0299786Y0122622D03*
X0302286Y0122622D03*
X0304786Y0122622D03*
X0307286Y0122622D03*
X0309786Y0122622D03*
X0312286Y0122622D03*
X0314786Y0122622D03*
D24*
X0257197Y0124195D03*
X0257197Y0129195D03*
X0257197Y0134195D03*
X0257197Y0139195D03*
X0257197Y0144195D03*
X0257197Y0149195D03*
X0257197Y0154195D03*
X0257197Y0119195D03*
X0257197Y0114195D03*
X0257197Y0109195D03*
X0257197Y0104195D03*
X0257197Y0099195D03*
X0257197Y0094195D03*
X0257197Y0089195D03*
X0186331Y0089195D03*
X0186331Y0094195D03*
X0186331Y0099195D03*
X0186331Y0104195D03*
X0186331Y0109195D03*
X0186331Y0114195D03*
X0186331Y0119195D03*
X0186331Y0124195D03*
X0186331Y0129195D03*
X0186331Y0134195D03*
X0186331Y0139195D03*
X0186331Y0144195D03*
X0186331Y0149195D03*
X0186331Y0154195D03*
D25*
X0199264Y0160061D03*
X0204264Y0160061D03*
X0209264Y0160061D03*
X0214264Y0160061D03*
X0219264Y0160061D03*
X0224264Y0160061D03*
X0229264Y0160061D03*
X0234264Y0160061D03*
X0239264Y0160061D03*
X0244264Y0160061D03*
D26*
X0221764Y0119510D03*
D27*
X0104638Y0066754D03*
X0079048Y0066754D03*
D28*
X0386429Y0065573D03*
X0386429Y0063014D03*
X0386429Y0060455D03*
X0386429Y0057896D03*
X0386429Y0055337D03*
D29*
X0387709Y0048250D03*
X0387709Y0072660D03*
D30*
X0396961Y0063802D03*
X0396961Y0057109D03*
D31*
X0396961Y0044313D03*
X0396961Y0076597D03*
D32*
X0036922Y0065180D03*
X0036922Y0116361D03*
D33*
X0024126Y0100613D03*
X0024126Y0080928D03*
D34*
X0071961Y0093250D03*
M02*
