%
M48
M72
T01C0.01200
T02C0.01378
T03C0.01969
T04C0.02953
T05C0.08661
%
T01
X92237Y105731
X91843Y123447
X172945Y144707
X185937Y162424
X208772Y174628
X154835Y195888
X148929Y207699
X127276Y210061
X130657Y226365
X178457Y123447
X194599Y118723
X245386Y123447
X262315Y133290
X265071Y127778
X283181Y143132
X288300Y147857
X270977Y163605
X268221Y171479
X291055Y201006
X307985Y152187
X274520Y266754
T02
X312315Y257306
X324126Y261243
X326489Y268329
X332000Y265180
X345386Y270691
X370583Y269510
X332788Y245101
X339874Y225809
X351685Y225809
X367433Y217935
X345780Y196676
X359559Y194313
X363496Y164392
X359559Y147069
X334756Y162030
X324126Y166754
X317040Y148644
X329638Y138802
X310741Y136439
X314678Y112030
X308378Y107699
X304441Y103762
X281607Y91164
X245386Y114392
X242630Y112030
X229638Y97463
X221764Y91951
X198142Y88014
X250111Y130534
X246567Y134077
X225701Y151006
X222158Y139589
X178457Y139195
X166252Y143132
X161922Y176991
X156410Y202187
X198142Y210061
X211134Y197857
X198142Y186439
X243811Y216361
X245386Y210061
X255622Y225416
X312315Y219904
X180032Y233290
X131213Y269117
X91843Y265180
X80032Y278959
X67827Y251400
X64284Y237620
X76095Y237620
X64284Y186439
X56410Y170691
X68221Y154943
X20977Y151006
T03
X335937Y139195
X351685Y162817
T04
X224126Y177384
X223733Y204156
X180426Y176597
X162709Y206124
X198142Y253369
X194205Y263605
X69008Y271872
T05
X24126Y80928
X24126Y100613
M30
