G75*
%MOIN*%
%OFA0B0*%
%FSLAX25Y25*%
%IPPOS*%
%LPD*%
%AMOC8*
5,1,8,0,0,1.08239X$1,22.5*
%
%ADD10C,0.00000*%
%ADD11C,0.12211*%
%ADD12R,0.06306X0.05518*%
%ADD13R,0.04731X0.04337*%
%ADD14R,0.04337X0.04731*%
%ADD15R,0.11030X0.06699*%
%ADD16R,0.14180X0.04337*%
%ADD17R,0.13786X0.06306*%
%ADD18R,0.03943X0.03550*%
%ADD19R,0.03550X0.03550*%
%ADD20R,0.04534X0.02959*%
%ADD21R,0.04337X0.05912*%
%ADD22R,0.01900X0.04900*%
%ADD23R,0.06306X0.03943*%
%ADD24R,0.03943X0.06306*%
%ADD25R,0.24022X0.24022*%
%ADD26R,0.02369X0.01778*%
%ADD27R,0.10243X0.14180*%
%ADD28R,0.01975X0.05715*%
%ADD29R,0.08668X0.08274*%
%ADD30R,0.05124X0.07880*%
%ADD31R,0.06699X0.07880*%
%ADD32R,0.20085X0.27959*%
%ADD33C,0.09061*%
%ADD34R,0.15361X0.24416*%
%ADD35R,0.04140X0.07290*%
%ADD36R,0.12998X0.07290*%
D10*
X0009166Y0018906D02*
X0009166Y0263000D01*
X0402866Y0263000D01*
X0402866Y0018906D01*
X0009166Y0018906D01*
X0015071Y0030717D02*
X0015073Y0030870D01*
X0015079Y0031024D01*
X0015089Y0031177D01*
X0015103Y0031329D01*
X0015121Y0031482D01*
X0015143Y0031633D01*
X0015168Y0031784D01*
X0015198Y0031935D01*
X0015232Y0032085D01*
X0015269Y0032233D01*
X0015310Y0032381D01*
X0015355Y0032527D01*
X0015404Y0032673D01*
X0015457Y0032817D01*
X0015513Y0032959D01*
X0015573Y0033100D01*
X0015637Y0033240D01*
X0015704Y0033378D01*
X0015775Y0033514D01*
X0015850Y0033648D01*
X0015927Y0033780D01*
X0016009Y0033910D01*
X0016093Y0034038D01*
X0016181Y0034164D01*
X0016272Y0034287D01*
X0016366Y0034408D01*
X0016464Y0034526D01*
X0016564Y0034642D01*
X0016668Y0034755D01*
X0016774Y0034866D01*
X0016883Y0034974D01*
X0016995Y0035079D01*
X0017109Y0035180D01*
X0017227Y0035279D01*
X0017346Y0035375D01*
X0017468Y0035468D01*
X0017593Y0035557D01*
X0017720Y0035644D01*
X0017849Y0035726D01*
X0017980Y0035806D01*
X0018113Y0035882D01*
X0018248Y0035955D01*
X0018385Y0036024D01*
X0018524Y0036089D01*
X0018664Y0036151D01*
X0018806Y0036209D01*
X0018949Y0036264D01*
X0019094Y0036315D01*
X0019240Y0036362D01*
X0019387Y0036405D01*
X0019535Y0036444D01*
X0019684Y0036480D01*
X0019834Y0036511D01*
X0019985Y0036539D01*
X0020136Y0036563D01*
X0020289Y0036583D01*
X0020441Y0036599D01*
X0020594Y0036611D01*
X0020747Y0036619D01*
X0020900Y0036623D01*
X0021054Y0036623D01*
X0021207Y0036619D01*
X0021360Y0036611D01*
X0021513Y0036599D01*
X0021665Y0036583D01*
X0021818Y0036563D01*
X0021969Y0036539D01*
X0022120Y0036511D01*
X0022270Y0036480D01*
X0022419Y0036444D01*
X0022567Y0036405D01*
X0022714Y0036362D01*
X0022860Y0036315D01*
X0023005Y0036264D01*
X0023148Y0036209D01*
X0023290Y0036151D01*
X0023430Y0036089D01*
X0023569Y0036024D01*
X0023706Y0035955D01*
X0023841Y0035882D01*
X0023974Y0035806D01*
X0024105Y0035726D01*
X0024234Y0035644D01*
X0024361Y0035557D01*
X0024486Y0035468D01*
X0024608Y0035375D01*
X0024727Y0035279D01*
X0024845Y0035180D01*
X0024959Y0035079D01*
X0025071Y0034974D01*
X0025180Y0034866D01*
X0025286Y0034755D01*
X0025390Y0034642D01*
X0025490Y0034526D01*
X0025588Y0034408D01*
X0025682Y0034287D01*
X0025773Y0034164D01*
X0025861Y0034038D01*
X0025945Y0033910D01*
X0026027Y0033780D01*
X0026104Y0033648D01*
X0026179Y0033514D01*
X0026250Y0033378D01*
X0026317Y0033240D01*
X0026381Y0033100D01*
X0026441Y0032959D01*
X0026497Y0032817D01*
X0026550Y0032673D01*
X0026599Y0032527D01*
X0026644Y0032381D01*
X0026685Y0032233D01*
X0026722Y0032085D01*
X0026756Y0031935D01*
X0026786Y0031784D01*
X0026811Y0031633D01*
X0026833Y0031482D01*
X0026851Y0031329D01*
X0026865Y0031177D01*
X0026875Y0031024D01*
X0026881Y0030870D01*
X0026883Y0030717D01*
X0026881Y0030564D01*
X0026875Y0030410D01*
X0026865Y0030257D01*
X0026851Y0030105D01*
X0026833Y0029952D01*
X0026811Y0029801D01*
X0026786Y0029650D01*
X0026756Y0029499D01*
X0026722Y0029349D01*
X0026685Y0029201D01*
X0026644Y0029053D01*
X0026599Y0028907D01*
X0026550Y0028761D01*
X0026497Y0028617D01*
X0026441Y0028475D01*
X0026381Y0028334D01*
X0026317Y0028194D01*
X0026250Y0028056D01*
X0026179Y0027920D01*
X0026104Y0027786D01*
X0026027Y0027654D01*
X0025945Y0027524D01*
X0025861Y0027396D01*
X0025773Y0027270D01*
X0025682Y0027147D01*
X0025588Y0027026D01*
X0025490Y0026908D01*
X0025390Y0026792D01*
X0025286Y0026679D01*
X0025180Y0026568D01*
X0025071Y0026460D01*
X0024959Y0026355D01*
X0024845Y0026254D01*
X0024727Y0026155D01*
X0024608Y0026059D01*
X0024486Y0025966D01*
X0024361Y0025877D01*
X0024234Y0025790D01*
X0024105Y0025708D01*
X0023974Y0025628D01*
X0023841Y0025552D01*
X0023706Y0025479D01*
X0023569Y0025410D01*
X0023430Y0025345D01*
X0023290Y0025283D01*
X0023148Y0025225D01*
X0023005Y0025170D01*
X0022860Y0025119D01*
X0022714Y0025072D01*
X0022567Y0025029D01*
X0022419Y0024990D01*
X0022270Y0024954D01*
X0022120Y0024923D01*
X0021969Y0024895D01*
X0021818Y0024871D01*
X0021665Y0024851D01*
X0021513Y0024835D01*
X0021360Y0024823D01*
X0021207Y0024815D01*
X0021054Y0024811D01*
X0020900Y0024811D01*
X0020747Y0024815D01*
X0020594Y0024823D01*
X0020441Y0024835D01*
X0020289Y0024851D01*
X0020136Y0024871D01*
X0019985Y0024895D01*
X0019834Y0024923D01*
X0019684Y0024954D01*
X0019535Y0024990D01*
X0019387Y0025029D01*
X0019240Y0025072D01*
X0019094Y0025119D01*
X0018949Y0025170D01*
X0018806Y0025225D01*
X0018664Y0025283D01*
X0018524Y0025345D01*
X0018385Y0025410D01*
X0018248Y0025479D01*
X0018113Y0025552D01*
X0017980Y0025628D01*
X0017849Y0025708D01*
X0017720Y0025790D01*
X0017593Y0025877D01*
X0017468Y0025966D01*
X0017346Y0026059D01*
X0017227Y0026155D01*
X0017109Y0026254D01*
X0016995Y0026355D01*
X0016883Y0026460D01*
X0016774Y0026568D01*
X0016668Y0026679D01*
X0016564Y0026792D01*
X0016464Y0026908D01*
X0016366Y0027026D01*
X0016272Y0027147D01*
X0016181Y0027270D01*
X0016093Y0027396D01*
X0016009Y0027524D01*
X0015927Y0027654D01*
X0015850Y0027786D01*
X0015775Y0027920D01*
X0015704Y0028056D01*
X0015637Y0028194D01*
X0015573Y0028334D01*
X0015513Y0028475D01*
X0015457Y0028617D01*
X0015404Y0028761D01*
X0015355Y0028907D01*
X0015310Y0029053D01*
X0015269Y0029201D01*
X0015232Y0029349D01*
X0015198Y0029499D01*
X0015168Y0029650D01*
X0015143Y0029801D01*
X0015121Y0029952D01*
X0015103Y0030105D01*
X0015089Y0030257D01*
X0015079Y0030410D01*
X0015073Y0030564D01*
X0015071Y0030717D01*
X0050110Y0032685D02*
X0050112Y0032816D01*
X0050118Y0032948D01*
X0050128Y0033079D01*
X0050142Y0033210D01*
X0050160Y0033340D01*
X0050182Y0033469D01*
X0050207Y0033598D01*
X0050237Y0033726D01*
X0050271Y0033853D01*
X0050308Y0033980D01*
X0050349Y0034104D01*
X0050394Y0034228D01*
X0050443Y0034350D01*
X0050495Y0034471D01*
X0050551Y0034589D01*
X0050611Y0034707D01*
X0050674Y0034822D01*
X0050741Y0034935D01*
X0050811Y0035047D01*
X0050884Y0035156D01*
X0050960Y0035262D01*
X0051040Y0035367D01*
X0051123Y0035469D01*
X0051209Y0035568D01*
X0051298Y0035665D01*
X0051390Y0035759D01*
X0051485Y0035850D01*
X0051582Y0035939D01*
X0051682Y0036024D01*
X0051785Y0036106D01*
X0051890Y0036185D01*
X0051997Y0036261D01*
X0052107Y0036333D01*
X0052219Y0036402D01*
X0052333Y0036468D01*
X0052448Y0036530D01*
X0052566Y0036589D01*
X0052685Y0036644D01*
X0052806Y0036696D01*
X0052929Y0036743D01*
X0053053Y0036787D01*
X0053178Y0036828D01*
X0053304Y0036864D01*
X0053432Y0036897D01*
X0053560Y0036925D01*
X0053689Y0036950D01*
X0053819Y0036971D01*
X0053949Y0036988D01*
X0054080Y0037001D01*
X0054211Y0037010D01*
X0054342Y0037015D01*
X0054474Y0037016D01*
X0054605Y0037013D01*
X0054737Y0037006D01*
X0054868Y0036995D01*
X0054998Y0036980D01*
X0055128Y0036961D01*
X0055258Y0036938D01*
X0055386Y0036912D01*
X0055514Y0036881D01*
X0055641Y0036846D01*
X0055767Y0036808D01*
X0055891Y0036766D01*
X0056015Y0036720D01*
X0056136Y0036670D01*
X0056256Y0036617D01*
X0056375Y0036560D01*
X0056492Y0036500D01*
X0056606Y0036436D01*
X0056719Y0036368D01*
X0056830Y0036297D01*
X0056939Y0036223D01*
X0057045Y0036146D01*
X0057149Y0036065D01*
X0057250Y0035982D01*
X0057349Y0035895D01*
X0057445Y0035805D01*
X0057538Y0035712D01*
X0057629Y0035617D01*
X0057716Y0035519D01*
X0057801Y0035418D01*
X0057882Y0035315D01*
X0057960Y0035209D01*
X0058035Y0035101D01*
X0058107Y0034991D01*
X0058175Y0034879D01*
X0058240Y0034765D01*
X0058301Y0034648D01*
X0058359Y0034530D01*
X0058413Y0034410D01*
X0058464Y0034289D01*
X0058511Y0034166D01*
X0058554Y0034042D01*
X0058593Y0033917D01*
X0058629Y0033790D01*
X0058660Y0033662D01*
X0058688Y0033534D01*
X0058712Y0033405D01*
X0058732Y0033275D01*
X0058748Y0033144D01*
X0058760Y0033013D01*
X0058768Y0032882D01*
X0058772Y0032751D01*
X0058772Y0032619D01*
X0058768Y0032488D01*
X0058760Y0032357D01*
X0058748Y0032226D01*
X0058732Y0032095D01*
X0058712Y0031965D01*
X0058688Y0031836D01*
X0058660Y0031708D01*
X0058629Y0031580D01*
X0058593Y0031453D01*
X0058554Y0031328D01*
X0058511Y0031204D01*
X0058464Y0031081D01*
X0058413Y0030960D01*
X0058359Y0030840D01*
X0058301Y0030722D01*
X0058240Y0030605D01*
X0058175Y0030491D01*
X0058107Y0030379D01*
X0058035Y0030269D01*
X0057960Y0030161D01*
X0057882Y0030055D01*
X0057801Y0029952D01*
X0057716Y0029851D01*
X0057629Y0029753D01*
X0057538Y0029658D01*
X0057445Y0029565D01*
X0057349Y0029475D01*
X0057250Y0029388D01*
X0057149Y0029305D01*
X0057045Y0029224D01*
X0056939Y0029147D01*
X0056830Y0029073D01*
X0056719Y0029002D01*
X0056607Y0028934D01*
X0056492Y0028870D01*
X0056375Y0028810D01*
X0056256Y0028753D01*
X0056136Y0028700D01*
X0056015Y0028650D01*
X0055891Y0028604D01*
X0055767Y0028562D01*
X0055641Y0028524D01*
X0055514Y0028489D01*
X0055386Y0028458D01*
X0055258Y0028432D01*
X0055128Y0028409D01*
X0054998Y0028390D01*
X0054868Y0028375D01*
X0054737Y0028364D01*
X0054605Y0028357D01*
X0054474Y0028354D01*
X0054342Y0028355D01*
X0054211Y0028360D01*
X0054080Y0028369D01*
X0053949Y0028382D01*
X0053819Y0028399D01*
X0053689Y0028420D01*
X0053560Y0028445D01*
X0053432Y0028473D01*
X0053304Y0028506D01*
X0053178Y0028542D01*
X0053053Y0028583D01*
X0052929Y0028627D01*
X0052806Y0028674D01*
X0052685Y0028726D01*
X0052566Y0028781D01*
X0052448Y0028840D01*
X0052333Y0028902D01*
X0052219Y0028968D01*
X0052107Y0029037D01*
X0051997Y0029109D01*
X0051890Y0029185D01*
X0051785Y0029264D01*
X0051682Y0029346D01*
X0051582Y0029431D01*
X0051485Y0029520D01*
X0051390Y0029611D01*
X0051298Y0029705D01*
X0051209Y0029802D01*
X0051123Y0029901D01*
X0051040Y0030003D01*
X0050960Y0030108D01*
X0050884Y0030214D01*
X0050811Y0030323D01*
X0050741Y0030435D01*
X0050674Y0030548D01*
X0050611Y0030663D01*
X0050551Y0030781D01*
X0050495Y0030899D01*
X0050443Y0031020D01*
X0050394Y0031142D01*
X0050349Y0031266D01*
X0050308Y0031390D01*
X0050271Y0031517D01*
X0050237Y0031644D01*
X0050207Y0031772D01*
X0050182Y0031901D01*
X0050160Y0032030D01*
X0050142Y0032160D01*
X0050128Y0032291D01*
X0050118Y0032422D01*
X0050112Y0032554D01*
X0050110Y0032685D01*
X0069795Y0032685D02*
X0069797Y0032816D01*
X0069803Y0032948D01*
X0069813Y0033079D01*
X0069827Y0033210D01*
X0069845Y0033340D01*
X0069867Y0033469D01*
X0069892Y0033598D01*
X0069922Y0033726D01*
X0069956Y0033853D01*
X0069993Y0033980D01*
X0070034Y0034104D01*
X0070079Y0034228D01*
X0070128Y0034350D01*
X0070180Y0034471D01*
X0070236Y0034589D01*
X0070296Y0034707D01*
X0070359Y0034822D01*
X0070426Y0034935D01*
X0070496Y0035047D01*
X0070569Y0035156D01*
X0070645Y0035262D01*
X0070725Y0035367D01*
X0070808Y0035469D01*
X0070894Y0035568D01*
X0070983Y0035665D01*
X0071075Y0035759D01*
X0071170Y0035850D01*
X0071267Y0035939D01*
X0071367Y0036024D01*
X0071470Y0036106D01*
X0071575Y0036185D01*
X0071682Y0036261D01*
X0071792Y0036333D01*
X0071904Y0036402D01*
X0072018Y0036468D01*
X0072133Y0036530D01*
X0072251Y0036589D01*
X0072370Y0036644D01*
X0072491Y0036696D01*
X0072614Y0036743D01*
X0072738Y0036787D01*
X0072863Y0036828D01*
X0072989Y0036864D01*
X0073117Y0036897D01*
X0073245Y0036925D01*
X0073374Y0036950D01*
X0073504Y0036971D01*
X0073634Y0036988D01*
X0073765Y0037001D01*
X0073896Y0037010D01*
X0074027Y0037015D01*
X0074159Y0037016D01*
X0074290Y0037013D01*
X0074422Y0037006D01*
X0074553Y0036995D01*
X0074683Y0036980D01*
X0074813Y0036961D01*
X0074943Y0036938D01*
X0075071Y0036912D01*
X0075199Y0036881D01*
X0075326Y0036846D01*
X0075452Y0036808D01*
X0075576Y0036766D01*
X0075700Y0036720D01*
X0075821Y0036670D01*
X0075941Y0036617D01*
X0076060Y0036560D01*
X0076177Y0036500D01*
X0076291Y0036436D01*
X0076404Y0036368D01*
X0076515Y0036297D01*
X0076624Y0036223D01*
X0076730Y0036146D01*
X0076834Y0036065D01*
X0076935Y0035982D01*
X0077034Y0035895D01*
X0077130Y0035805D01*
X0077223Y0035712D01*
X0077314Y0035617D01*
X0077401Y0035519D01*
X0077486Y0035418D01*
X0077567Y0035315D01*
X0077645Y0035209D01*
X0077720Y0035101D01*
X0077792Y0034991D01*
X0077860Y0034879D01*
X0077925Y0034765D01*
X0077986Y0034648D01*
X0078044Y0034530D01*
X0078098Y0034410D01*
X0078149Y0034289D01*
X0078196Y0034166D01*
X0078239Y0034042D01*
X0078278Y0033917D01*
X0078314Y0033790D01*
X0078345Y0033662D01*
X0078373Y0033534D01*
X0078397Y0033405D01*
X0078417Y0033275D01*
X0078433Y0033144D01*
X0078445Y0033013D01*
X0078453Y0032882D01*
X0078457Y0032751D01*
X0078457Y0032619D01*
X0078453Y0032488D01*
X0078445Y0032357D01*
X0078433Y0032226D01*
X0078417Y0032095D01*
X0078397Y0031965D01*
X0078373Y0031836D01*
X0078345Y0031708D01*
X0078314Y0031580D01*
X0078278Y0031453D01*
X0078239Y0031328D01*
X0078196Y0031204D01*
X0078149Y0031081D01*
X0078098Y0030960D01*
X0078044Y0030840D01*
X0077986Y0030722D01*
X0077925Y0030605D01*
X0077860Y0030491D01*
X0077792Y0030379D01*
X0077720Y0030269D01*
X0077645Y0030161D01*
X0077567Y0030055D01*
X0077486Y0029952D01*
X0077401Y0029851D01*
X0077314Y0029753D01*
X0077223Y0029658D01*
X0077130Y0029565D01*
X0077034Y0029475D01*
X0076935Y0029388D01*
X0076834Y0029305D01*
X0076730Y0029224D01*
X0076624Y0029147D01*
X0076515Y0029073D01*
X0076404Y0029002D01*
X0076292Y0028934D01*
X0076177Y0028870D01*
X0076060Y0028810D01*
X0075941Y0028753D01*
X0075821Y0028700D01*
X0075700Y0028650D01*
X0075576Y0028604D01*
X0075452Y0028562D01*
X0075326Y0028524D01*
X0075199Y0028489D01*
X0075071Y0028458D01*
X0074943Y0028432D01*
X0074813Y0028409D01*
X0074683Y0028390D01*
X0074553Y0028375D01*
X0074422Y0028364D01*
X0074290Y0028357D01*
X0074159Y0028354D01*
X0074027Y0028355D01*
X0073896Y0028360D01*
X0073765Y0028369D01*
X0073634Y0028382D01*
X0073504Y0028399D01*
X0073374Y0028420D01*
X0073245Y0028445D01*
X0073117Y0028473D01*
X0072989Y0028506D01*
X0072863Y0028542D01*
X0072738Y0028583D01*
X0072614Y0028627D01*
X0072491Y0028674D01*
X0072370Y0028726D01*
X0072251Y0028781D01*
X0072133Y0028840D01*
X0072018Y0028902D01*
X0071904Y0028968D01*
X0071792Y0029037D01*
X0071682Y0029109D01*
X0071575Y0029185D01*
X0071470Y0029264D01*
X0071367Y0029346D01*
X0071267Y0029431D01*
X0071170Y0029520D01*
X0071075Y0029611D01*
X0070983Y0029705D01*
X0070894Y0029802D01*
X0070808Y0029901D01*
X0070725Y0030003D01*
X0070645Y0030108D01*
X0070569Y0030214D01*
X0070496Y0030323D01*
X0070426Y0030435D01*
X0070359Y0030548D01*
X0070296Y0030663D01*
X0070236Y0030781D01*
X0070180Y0030899D01*
X0070128Y0031020D01*
X0070079Y0031142D01*
X0070034Y0031266D01*
X0069993Y0031390D01*
X0069956Y0031517D01*
X0069922Y0031644D01*
X0069892Y0031772D01*
X0069867Y0031901D01*
X0069845Y0032030D01*
X0069827Y0032160D01*
X0069813Y0032291D01*
X0069803Y0032422D01*
X0069797Y0032554D01*
X0069795Y0032685D01*
X0015071Y0251189D02*
X0015073Y0251342D01*
X0015079Y0251496D01*
X0015089Y0251649D01*
X0015103Y0251801D01*
X0015121Y0251954D01*
X0015143Y0252105D01*
X0015168Y0252256D01*
X0015198Y0252407D01*
X0015232Y0252557D01*
X0015269Y0252705D01*
X0015310Y0252853D01*
X0015355Y0252999D01*
X0015404Y0253145D01*
X0015457Y0253289D01*
X0015513Y0253431D01*
X0015573Y0253572D01*
X0015637Y0253712D01*
X0015704Y0253850D01*
X0015775Y0253986D01*
X0015850Y0254120D01*
X0015927Y0254252D01*
X0016009Y0254382D01*
X0016093Y0254510D01*
X0016181Y0254636D01*
X0016272Y0254759D01*
X0016366Y0254880D01*
X0016464Y0254998D01*
X0016564Y0255114D01*
X0016668Y0255227D01*
X0016774Y0255338D01*
X0016883Y0255446D01*
X0016995Y0255551D01*
X0017109Y0255652D01*
X0017227Y0255751D01*
X0017346Y0255847D01*
X0017468Y0255940D01*
X0017593Y0256029D01*
X0017720Y0256116D01*
X0017849Y0256198D01*
X0017980Y0256278D01*
X0018113Y0256354D01*
X0018248Y0256427D01*
X0018385Y0256496D01*
X0018524Y0256561D01*
X0018664Y0256623D01*
X0018806Y0256681D01*
X0018949Y0256736D01*
X0019094Y0256787D01*
X0019240Y0256834D01*
X0019387Y0256877D01*
X0019535Y0256916D01*
X0019684Y0256952D01*
X0019834Y0256983D01*
X0019985Y0257011D01*
X0020136Y0257035D01*
X0020289Y0257055D01*
X0020441Y0257071D01*
X0020594Y0257083D01*
X0020747Y0257091D01*
X0020900Y0257095D01*
X0021054Y0257095D01*
X0021207Y0257091D01*
X0021360Y0257083D01*
X0021513Y0257071D01*
X0021665Y0257055D01*
X0021818Y0257035D01*
X0021969Y0257011D01*
X0022120Y0256983D01*
X0022270Y0256952D01*
X0022419Y0256916D01*
X0022567Y0256877D01*
X0022714Y0256834D01*
X0022860Y0256787D01*
X0023005Y0256736D01*
X0023148Y0256681D01*
X0023290Y0256623D01*
X0023430Y0256561D01*
X0023569Y0256496D01*
X0023706Y0256427D01*
X0023841Y0256354D01*
X0023974Y0256278D01*
X0024105Y0256198D01*
X0024234Y0256116D01*
X0024361Y0256029D01*
X0024486Y0255940D01*
X0024608Y0255847D01*
X0024727Y0255751D01*
X0024845Y0255652D01*
X0024959Y0255551D01*
X0025071Y0255446D01*
X0025180Y0255338D01*
X0025286Y0255227D01*
X0025390Y0255114D01*
X0025490Y0254998D01*
X0025588Y0254880D01*
X0025682Y0254759D01*
X0025773Y0254636D01*
X0025861Y0254510D01*
X0025945Y0254382D01*
X0026027Y0254252D01*
X0026104Y0254120D01*
X0026179Y0253986D01*
X0026250Y0253850D01*
X0026317Y0253712D01*
X0026381Y0253572D01*
X0026441Y0253431D01*
X0026497Y0253289D01*
X0026550Y0253145D01*
X0026599Y0252999D01*
X0026644Y0252853D01*
X0026685Y0252705D01*
X0026722Y0252557D01*
X0026756Y0252407D01*
X0026786Y0252256D01*
X0026811Y0252105D01*
X0026833Y0251954D01*
X0026851Y0251801D01*
X0026865Y0251649D01*
X0026875Y0251496D01*
X0026881Y0251342D01*
X0026883Y0251189D01*
X0026881Y0251036D01*
X0026875Y0250882D01*
X0026865Y0250729D01*
X0026851Y0250577D01*
X0026833Y0250424D01*
X0026811Y0250273D01*
X0026786Y0250122D01*
X0026756Y0249971D01*
X0026722Y0249821D01*
X0026685Y0249673D01*
X0026644Y0249525D01*
X0026599Y0249379D01*
X0026550Y0249233D01*
X0026497Y0249089D01*
X0026441Y0248947D01*
X0026381Y0248806D01*
X0026317Y0248666D01*
X0026250Y0248528D01*
X0026179Y0248392D01*
X0026104Y0248258D01*
X0026027Y0248126D01*
X0025945Y0247996D01*
X0025861Y0247868D01*
X0025773Y0247742D01*
X0025682Y0247619D01*
X0025588Y0247498D01*
X0025490Y0247380D01*
X0025390Y0247264D01*
X0025286Y0247151D01*
X0025180Y0247040D01*
X0025071Y0246932D01*
X0024959Y0246827D01*
X0024845Y0246726D01*
X0024727Y0246627D01*
X0024608Y0246531D01*
X0024486Y0246438D01*
X0024361Y0246349D01*
X0024234Y0246262D01*
X0024105Y0246180D01*
X0023974Y0246100D01*
X0023841Y0246024D01*
X0023706Y0245951D01*
X0023569Y0245882D01*
X0023430Y0245817D01*
X0023290Y0245755D01*
X0023148Y0245697D01*
X0023005Y0245642D01*
X0022860Y0245591D01*
X0022714Y0245544D01*
X0022567Y0245501D01*
X0022419Y0245462D01*
X0022270Y0245426D01*
X0022120Y0245395D01*
X0021969Y0245367D01*
X0021818Y0245343D01*
X0021665Y0245323D01*
X0021513Y0245307D01*
X0021360Y0245295D01*
X0021207Y0245287D01*
X0021054Y0245283D01*
X0020900Y0245283D01*
X0020747Y0245287D01*
X0020594Y0245295D01*
X0020441Y0245307D01*
X0020289Y0245323D01*
X0020136Y0245343D01*
X0019985Y0245367D01*
X0019834Y0245395D01*
X0019684Y0245426D01*
X0019535Y0245462D01*
X0019387Y0245501D01*
X0019240Y0245544D01*
X0019094Y0245591D01*
X0018949Y0245642D01*
X0018806Y0245697D01*
X0018664Y0245755D01*
X0018524Y0245817D01*
X0018385Y0245882D01*
X0018248Y0245951D01*
X0018113Y0246024D01*
X0017980Y0246100D01*
X0017849Y0246180D01*
X0017720Y0246262D01*
X0017593Y0246349D01*
X0017468Y0246438D01*
X0017346Y0246531D01*
X0017227Y0246627D01*
X0017109Y0246726D01*
X0016995Y0246827D01*
X0016883Y0246932D01*
X0016774Y0247040D01*
X0016668Y0247151D01*
X0016564Y0247264D01*
X0016464Y0247380D01*
X0016366Y0247498D01*
X0016272Y0247619D01*
X0016181Y0247742D01*
X0016093Y0247868D01*
X0016009Y0247996D01*
X0015927Y0248126D01*
X0015850Y0248258D01*
X0015775Y0248392D01*
X0015704Y0248528D01*
X0015637Y0248666D01*
X0015573Y0248806D01*
X0015513Y0248947D01*
X0015457Y0249089D01*
X0015404Y0249233D01*
X0015355Y0249379D01*
X0015310Y0249525D01*
X0015269Y0249673D01*
X0015232Y0249821D01*
X0015198Y0249971D01*
X0015168Y0250122D01*
X0015143Y0250273D01*
X0015121Y0250424D01*
X0015103Y0250577D01*
X0015089Y0250729D01*
X0015079Y0250882D01*
X0015073Y0251036D01*
X0015071Y0251189D01*
X0385149Y0251189D02*
X0385151Y0251342D01*
X0385157Y0251496D01*
X0385167Y0251649D01*
X0385181Y0251801D01*
X0385199Y0251954D01*
X0385221Y0252105D01*
X0385246Y0252256D01*
X0385276Y0252407D01*
X0385310Y0252557D01*
X0385347Y0252705D01*
X0385388Y0252853D01*
X0385433Y0252999D01*
X0385482Y0253145D01*
X0385535Y0253289D01*
X0385591Y0253431D01*
X0385651Y0253572D01*
X0385715Y0253712D01*
X0385782Y0253850D01*
X0385853Y0253986D01*
X0385928Y0254120D01*
X0386005Y0254252D01*
X0386087Y0254382D01*
X0386171Y0254510D01*
X0386259Y0254636D01*
X0386350Y0254759D01*
X0386444Y0254880D01*
X0386542Y0254998D01*
X0386642Y0255114D01*
X0386746Y0255227D01*
X0386852Y0255338D01*
X0386961Y0255446D01*
X0387073Y0255551D01*
X0387187Y0255652D01*
X0387305Y0255751D01*
X0387424Y0255847D01*
X0387546Y0255940D01*
X0387671Y0256029D01*
X0387798Y0256116D01*
X0387927Y0256198D01*
X0388058Y0256278D01*
X0388191Y0256354D01*
X0388326Y0256427D01*
X0388463Y0256496D01*
X0388602Y0256561D01*
X0388742Y0256623D01*
X0388884Y0256681D01*
X0389027Y0256736D01*
X0389172Y0256787D01*
X0389318Y0256834D01*
X0389465Y0256877D01*
X0389613Y0256916D01*
X0389762Y0256952D01*
X0389912Y0256983D01*
X0390063Y0257011D01*
X0390214Y0257035D01*
X0390367Y0257055D01*
X0390519Y0257071D01*
X0390672Y0257083D01*
X0390825Y0257091D01*
X0390978Y0257095D01*
X0391132Y0257095D01*
X0391285Y0257091D01*
X0391438Y0257083D01*
X0391591Y0257071D01*
X0391743Y0257055D01*
X0391896Y0257035D01*
X0392047Y0257011D01*
X0392198Y0256983D01*
X0392348Y0256952D01*
X0392497Y0256916D01*
X0392645Y0256877D01*
X0392792Y0256834D01*
X0392938Y0256787D01*
X0393083Y0256736D01*
X0393226Y0256681D01*
X0393368Y0256623D01*
X0393508Y0256561D01*
X0393647Y0256496D01*
X0393784Y0256427D01*
X0393919Y0256354D01*
X0394052Y0256278D01*
X0394183Y0256198D01*
X0394312Y0256116D01*
X0394439Y0256029D01*
X0394564Y0255940D01*
X0394686Y0255847D01*
X0394805Y0255751D01*
X0394923Y0255652D01*
X0395037Y0255551D01*
X0395149Y0255446D01*
X0395258Y0255338D01*
X0395364Y0255227D01*
X0395468Y0255114D01*
X0395568Y0254998D01*
X0395666Y0254880D01*
X0395760Y0254759D01*
X0395851Y0254636D01*
X0395939Y0254510D01*
X0396023Y0254382D01*
X0396105Y0254252D01*
X0396182Y0254120D01*
X0396257Y0253986D01*
X0396328Y0253850D01*
X0396395Y0253712D01*
X0396459Y0253572D01*
X0396519Y0253431D01*
X0396575Y0253289D01*
X0396628Y0253145D01*
X0396677Y0252999D01*
X0396722Y0252853D01*
X0396763Y0252705D01*
X0396800Y0252557D01*
X0396834Y0252407D01*
X0396864Y0252256D01*
X0396889Y0252105D01*
X0396911Y0251954D01*
X0396929Y0251801D01*
X0396943Y0251649D01*
X0396953Y0251496D01*
X0396959Y0251342D01*
X0396961Y0251189D01*
X0396959Y0251036D01*
X0396953Y0250882D01*
X0396943Y0250729D01*
X0396929Y0250577D01*
X0396911Y0250424D01*
X0396889Y0250273D01*
X0396864Y0250122D01*
X0396834Y0249971D01*
X0396800Y0249821D01*
X0396763Y0249673D01*
X0396722Y0249525D01*
X0396677Y0249379D01*
X0396628Y0249233D01*
X0396575Y0249089D01*
X0396519Y0248947D01*
X0396459Y0248806D01*
X0396395Y0248666D01*
X0396328Y0248528D01*
X0396257Y0248392D01*
X0396182Y0248258D01*
X0396105Y0248126D01*
X0396023Y0247996D01*
X0395939Y0247868D01*
X0395851Y0247742D01*
X0395760Y0247619D01*
X0395666Y0247498D01*
X0395568Y0247380D01*
X0395468Y0247264D01*
X0395364Y0247151D01*
X0395258Y0247040D01*
X0395149Y0246932D01*
X0395037Y0246827D01*
X0394923Y0246726D01*
X0394805Y0246627D01*
X0394686Y0246531D01*
X0394564Y0246438D01*
X0394439Y0246349D01*
X0394312Y0246262D01*
X0394183Y0246180D01*
X0394052Y0246100D01*
X0393919Y0246024D01*
X0393784Y0245951D01*
X0393647Y0245882D01*
X0393508Y0245817D01*
X0393368Y0245755D01*
X0393226Y0245697D01*
X0393083Y0245642D01*
X0392938Y0245591D01*
X0392792Y0245544D01*
X0392645Y0245501D01*
X0392497Y0245462D01*
X0392348Y0245426D01*
X0392198Y0245395D01*
X0392047Y0245367D01*
X0391896Y0245343D01*
X0391743Y0245323D01*
X0391591Y0245307D01*
X0391438Y0245295D01*
X0391285Y0245287D01*
X0391132Y0245283D01*
X0390978Y0245283D01*
X0390825Y0245287D01*
X0390672Y0245295D01*
X0390519Y0245307D01*
X0390367Y0245323D01*
X0390214Y0245343D01*
X0390063Y0245367D01*
X0389912Y0245395D01*
X0389762Y0245426D01*
X0389613Y0245462D01*
X0389465Y0245501D01*
X0389318Y0245544D01*
X0389172Y0245591D01*
X0389027Y0245642D01*
X0388884Y0245697D01*
X0388742Y0245755D01*
X0388602Y0245817D01*
X0388463Y0245882D01*
X0388326Y0245951D01*
X0388191Y0246024D01*
X0388058Y0246100D01*
X0387927Y0246180D01*
X0387798Y0246262D01*
X0387671Y0246349D01*
X0387546Y0246438D01*
X0387424Y0246531D01*
X0387305Y0246627D01*
X0387187Y0246726D01*
X0387073Y0246827D01*
X0386961Y0246932D01*
X0386852Y0247040D01*
X0386746Y0247151D01*
X0386642Y0247264D01*
X0386542Y0247380D01*
X0386444Y0247498D01*
X0386350Y0247619D01*
X0386259Y0247742D01*
X0386171Y0247868D01*
X0386087Y0247996D01*
X0386005Y0248126D01*
X0385928Y0248258D01*
X0385853Y0248392D01*
X0385782Y0248528D01*
X0385715Y0248666D01*
X0385651Y0248806D01*
X0385591Y0248947D01*
X0385535Y0249089D01*
X0385482Y0249233D01*
X0385433Y0249379D01*
X0385388Y0249525D01*
X0385347Y0249673D01*
X0385310Y0249821D01*
X0385276Y0249971D01*
X0385246Y0250122D01*
X0385221Y0250273D01*
X0385199Y0250424D01*
X0385181Y0250577D01*
X0385167Y0250729D01*
X0385157Y0250882D01*
X0385151Y0251036D01*
X0385149Y0251189D01*
X0385149Y0030717D02*
X0385151Y0030870D01*
X0385157Y0031024D01*
X0385167Y0031177D01*
X0385181Y0031329D01*
X0385199Y0031482D01*
X0385221Y0031633D01*
X0385246Y0031784D01*
X0385276Y0031935D01*
X0385310Y0032085D01*
X0385347Y0032233D01*
X0385388Y0032381D01*
X0385433Y0032527D01*
X0385482Y0032673D01*
X0385535Y0032817D01*
X0385591Y0032959D01*
X0385651Y0033100D01*
X0385715Y0033240D01*
X0385782Y0033378D01*
X0385853Y0033514D01*
X0385928Y0033648D01*
X0386005Y0033780D01*
X0386087Y0033910D01*
X0386171Y0034038D01*
X0386259Y0034164D01*
X0386350Y0034287D01*
X0386444Y0034408D01*
X0386542Y0034526D01*
X0386642Y0034642D01*
X0386746Y0034755D01*
X0386852Y0034866D01*
X0386961Y0034974D01*
X0387073Y0035079D01*
X0387187Y0035180D01*
X0387305Y0035279D01*
X0387424Y0035375D01*
X0387546Y0035468D01*
X0387671Y0035557D01*
X0387798Y0035644D01*
X0387927Y0035726D01*
X0388058Y0035806D01*
X0388191Y0035882D01*
X0388326Y0035955D01*
X0388463Y0036024D01*
X0388602Y0036089D01*
X0388742Y0036151D01*
X0388884Y0036209D01*
X0389027Y0036264D01*
X0389172Y0036315D01*
X0389318Y0036362D01*
X0389465Y0036405D01*
X0389613Y0036444D01*
X0389762Y0036480D01*
X0389912Y0036511D01*
X0390063Y0036539D01*
X0390214Y0036563D01*
X0390367Y0036583D01*
X0390519Y0036599D01*
X0390672Y0036611D01*
X0390825Y0036619D01*
X0390978Y0036623D01*
X0391132Y0036623D01*
X0391285Y0036619D01*
X0391438Y0036611D01*
X0391591Y0036599D01*
X0391743Y0036583D01*
X0391896Y0036563D01*
X0392047Y0036539D01*
X0392198Y0036511D01*
X0392348Y0036480D01*
X0392497Y0036444D01*
X0392645Y0036405D01*
X0392792Y0036362D01*
X0392938Y0036315D01*
X0393083Y0036264D01*
X0393226Y0036209D01*
X0393368Y0036151D01*
X0393508Y0036089D01*
X0393647Y0036024D01*
X0393784Y0035955D01*
X0393919Y0035882D01*
X0394052Y0035806D01*
X0394183Y0035726D01*
X0394312Y0035644D01*
X0394439Y0035557D01*
X0394564Y0035468D01*
X0394686Y0035375D01*
X0394805Y0035279D01*
X0394923Y0035180D01*
X0395037Y0035079D01*
X0395149Y0034974D01*
X0395258Y0034866D01*
X0395364Y0034755D01*
X0395468Y0034642D01*
X0395568Y0034526D01*
X0395666Y0034408D01*
X0395760Y0034287D01*
X0395851Y0034164D01*
X0395939Y0034038D01*
X0396023Y0033910D01*
X0396105Y0033780D01*
X0396182Y0033648D01*
X0396257Y0033514D01*
X0396328Y0033378D01*
X0396395Y0033240D01*
X0396459Y0033100D01*
X0396519Y0032959D01*
X0396575Y0032817D01*
X0396628Y0032673D01*
X0396677Y0032527D01*
X0396722Y0032381D01*
X0396763Y0032233D01*
X0396800Y0032085D01*
X0396834Y0031935D01*
X0396864Y0031784D01*
X0396889Y0031633D01*
X0396911Y0031482D01*
X0396929Y0031329D01*
X0396943Y0031177D01*
X0396953Y0031024D01*
X0396959Y0030870D01*
X0396961Y0030717D01*
X0396959Y0030564D01*
X0396953Y0030410D01*
X0396943Y0030257D01*
X0396929Y0030105D01*
X0396911Y0029952D01*
X0396889Y0029801D01*
X0396864Y0029650D01*
X0396834Y0029499D01*
X0396800Y0029349D01*
X0396763Y0029201D01*
X0396722Y0029053D01*
X0396677Y0028907D01*
X0396628Y0028761D01*
X0396575Y0028617D01*
X0396519Y0028475D01*
X0396459Y0028334D01*
X0396395Y0028194D01*
X0396328Y0028056D01*
X0396257Y0027920D01*
X0396182Y0027786D01*
X0396105Y0027654D01*
X0396023Y0027524D01*
X0395939Y0027396D01*
X0395851Y0027270D01*
X0395760Y0027147D01*
X0395666Y0027026D01*
X0395568Y0026908D01*
X0395468Y0026792D01*
X0395364Y0026679D01*
X0395258Y0026568D01*
X0395149Y0026460D01*
X0395037Y0026355D01*
X0394923Y0026254D01*
X0394805Y0026155D01*
X0394686Y0026059D01*
X0394564Y0025966D01*
X0394439Y0025877D01*
X0394312Y0025790D01*
X0394183Y0025708D01*
X0394052Y0025628D01*
X0393919Y0025552D01*
X0393784Y0025479D01*
X0393647Y0025410D01*
X0393508Y0025345D01*
X0393368Y0025283D01*
X0393226Y0025225D01*
X0393083Y0025170D01*
X0392938Y0025119D01*
X0392792Y0025072D01*
X0392645Y0025029D01*
X0392497Y0024990D01*
X0392348Y0024954D01*
X0392198Y0024923D01*
X0392047Y0024895D01*
X0391896Y0024871D01*
X0391743Y0024851D01*
X0391591Y0024835D01*
X0391438Y0024823D01*
X0391285Y0024815D01*
X0391132Y0024811D01*
X0390978Y0024811D01*
X0390825Y0024815D01*
X0390672Y0024823D01*
X0390519Y0024835D01*
X0390367Y0024851D01*
X0390214Y0024871D01*
X0390063Y0024895D01*
X0389912Y0024923D01*
X0389762Y0024954D01*
X0389613Y0024990D01*
X0389465Y0025029D01*
X0389318Y0025072D01*
X0389172Y0025119D01*
X0389027Y0025170D01*
X0388884Y0025225D01*
X0388742Y0025283D01*
X0388602Y0025345D01*
X0388463Y0025410D01*
X0388326Y0025479D01*
X0388191Y0025552D01*
X0388058Y0025628D01*
X0387927Y0025708D01*
X0387798Y0025790D01*
X0387671Y0025877D01*
X0387546Y0025966D01*
X0387424Y0026059D01*
X0387305Y0026155D01*
X0387187Y0026254D01*
X0387073Y0026355D01*
X0386961Y0026460D01*
X0386852Y0026568D01*
X0386746Y0026679D01*
X0386642Y0026792D01*
X0386542Y0026908D01*
X0386444Y0027026D01*
X0386350Y0027147D01*
X0386259Y0027270D01*
X0386171Y0027396D01*
X0386087Y0027524D01*
X0386005Y0027654D01*
X0385928Y0027786D01*
X0385853Y0027920D01*
X0385782Y0028056D01*
X0385715Y0028194D01*
X0385651Y0028334D01*
X0385591Y0028475D01*
X0385535Y0028617D01*
X0385482Y0028761D01*
X0385433Y0028907D01*
X0385388Y0029053D01*
X0385347Y0029201D01*
X0385310Y0029349D01*
X0385276Y0029499D01*
X0385246Y0029650D01*
X0385221Y0029801D01*
X0385199Y0029952D01*
X0385181Y0030105D01*
X0385167Y0030257D01*
X0385157Y0030410D01*
X0385151Y0030564D01*
X0385149Y0030717D01*
D11*
X0391055Y0030717D03*
X0391055Y0251189D03*
X0020977Y0251189D03*
X0020977Y0030717D03*
D12*
X0105307Y0063445D03*
X0105307Y0070138D03*
X0149827Y0079837D03*
X0149827Y0086530D03*
D13*
X0131861Y0144240D03*
X0125168Y0144240D03*
X0108884Y0145031D03*
X0108884Y0151724D03*
X0108181Y0168512D03*
X0114874Y0168512D03*
X0085937Y0177909D03*
X0085937Y0184602D03*
X0068221Y0192724D03*
X0068221Y0199417D03*
X0083969Y0208472D03*
X0083969Y0215165D03*
X0072158Y0228157D03*
X0072158Y0234850D03*
X0162709Y0239969D03*
X0162709Y0246661D03*
X0289284Y0243315D03*
X0295977Y0243315D03*
X0308772Y0240756D03*
X0308772Y0234063D03*
X0332000Y0187606D03*
X0332000Y0180913D03*
X0351685Y0175795D03*
X0351685Y0169102D03*
X0322748Y0159850D03*
X0316055Y0159850D03*
X0296567Y0133366D03*
X0296567Y0126673D03*
X0280229Y0125205D03*
X0273536Y0125205D03*
X0289010Y0077646D03*
X0295703Y0077646D03*
X0327670Y0077370D03*
X0327670Y0070677D03*
X0335937Y0070677D03*
X0335937Y0077370D03*
X0335741Y0052370D03*
X0341951Y0052370D03*
X0348644Y0052370D03*
X0329048Y0052370D03*
D14*
X0299733Y0052492D03*
X0293040Y0052492D03*
X0293473Y0061270D03*
X0300166Y0061270D03*
X0344402Y0109457D03*
X0351095Y0109457D03*
X0314945Y0129142D03*
X0308252Y0129142D03*
X0276292Y0113394D03*
X0269599Y0113394D03*
X0303851Y0170480D03*
X0310544Y0170480D03*
X0348339Y0140953D03*
X0355032Y0140953D03*
X0331410Y0203945D03*
X0324717Y0203945D03*
X0324717Y0223630D03*
X0331410Y0223630D03*
X0347748Y0219102D03*
X0347748Y0212409D03*
X0359559Y0239969D03*
X0359559Y0246661D03*
X0264481Y0239378D03*
X0257788Y0239378D03*
X0265071Y0230913D03*
X0265071Y0224220D03*
X0143024Y0211228D03*
X0143024Y0204535D03*
X0142433Y0196071D03*
X0135741Y0196071D03*
X0135741Y0184260D03*
X0142433Y0184260D03*
X0143024Y0175795D03*
X0143024Y0169102D03*
X0127022Y0155783D03*
X0120329Y0155783D03*
X0114211Y0183045D03*
X0107518Y0183045D03*
X0085937Y0163906D03*
X0085937Y0157213D03*
X0083662Y0129669D03*
X0083662Y0122976D03*
X0076095Y0097055D03*
X0076095Y0090362D03*
X0084559Y0081898D03*
X0091252Y0081898D03*
X0167650Y0072713D03*
X0167650Y0066020D03*
X0103300Y0248118D03*
X0096607Y0248118D03*
D15*
X0161357Y0097898D03*
X0161357Y0086874D03*
D16*
X0042630Y0113394D03*
X0042630Y0121268D03*
X0042630Y0129142D03*
X0042630Y0160638D03*
X0042630Y0168512D03*
X0042630Y0176386D03*
X0042630Y0207882D03*
X0042630Y0215756D03*
X0042630Y0223630D03*
X0369402Y0223630D03*
X0369402Y0215756D03*
X0369402Y0207882D03*
X0369402Y0176386D03*
X0369402Y0168512D03*
X0369402Y0160638D03*
X0369402Y0129142D03*
X0369402Y0121268D03*
X0369402Y0113394D03*
X0369402Y0081898D03*
X0369402Y0074024D03*
X0369402Y0066150D03*
D17*
X0392040Y0056898D03*
X0392040Y0091150D03*
X0392040Y0104142D03*
X0392040Y0138394D03*
X0392040Y0151386D03*
X0392040Y0185638D03*
X0392040Y0198630D03*
X0392040Y0232882D03*
X0019992Y0232882D03*
X0019992Y0198630D03*
X0019992Y0185638D03*
X0019992Y0151386D03*
X0019992Y0138394D03*
X0019992Y0104142D03*
D18*
X0057055Y0134522D03*
X0064929Y0138262D03*
X0064929Y0130781D03*
X0062315Y0162400D03*
X0054441Y0166140D03*
X0062315Y0169880D03*
X0062315Y0212919D03*
X0054441Y0216659D03*
X0062315Y0220400D03*
X0139764Y0234362D03*
X0147638Y0238102D03*
X0139764Y0241843D03*
X0339607Y0130778D03*
X0339607Y0123297D03*
X0347481Y0127037D03*
X0346866Y0151224D03*
X0346866Y0158705D03*
X0354741Y0154965D03*
X0339313Y0098967D03*
X0339313Y0091486D03*
X0347187Y0095226D03*
D19*
X0311983Y0060335D03*
X0306077Y0060335D03*
X0306087Y0052659D03*
X0311992Y0052659D03*
D20*
X0158300Y0117134D03*
X0158300Y0125598D03*
X0141961Y0125598D03*
X0141961Y0117134D03*
X0112040Y0117134D03*
X0112040Y0125598D03*
X0095701Y0125598D03*
X0095701Y0117134D03*
D21*
X0292827Y0152370D03*
X0300307Y0152370D03*
X0296567Y0161031D03*
X0316252Y0149220D03*
X0312512Y0140559D03*
X0319992Y0140559D03*
D22*
X0314786Y0113983D03*
X0312286Y0113983D03*
X0309786Y0113983D03*
X0307286Y0113983D03*
X0304786Y0113983D03*
X0302286Y0113983D03*
X0299786Y0113983D03*
X0297286Y0113983D03*
X0294786Y0113983D03*
X0292286Y0113983D03*
X0292286Y0092883D03*
X0294786Y0092883D03*
X0297286Y0092883D03*
X0299786Y0092883D03*
X0302286Y0092883D03*
X0304786Y0092883D03*
X0307286Y0092883D03*
X0309786Y0092883D03*
X0312286Y0092883D03*
X0314786Y0092883D03*
D23*
X0257197Y0094457D03*
X0257197Y0099457D03*
X0257197Y0104457D03*
X0257197Y0109457D03*
X0257197Y0114457D03*
X0257197Y0119457D03*
X0257197Y0124457D03*
X0257197Y0089457D03*
X0257197Y0084457D03*
X0257197Y0079457D03*
X0257197Y0074457D03*
X0257197Y0069457D03*
X0257197Y0064457D03*
X0257197Y0059457D03*
X0186331Y0059457D03*
X0186331Y0064457D03*
X0186331Y0069457D03*
X0186331Y0074457D03*
X0186331Y0079457D03*
X0186331Y0084457D03*
X0186331Y0089457D03*
X0186331Y0094457D03*
X0186331Y0099457D03*
X0186331Y0104457D03*
X0186331Y0109457D03*
X0186331Y0114457D03*
X0186331Y0119457D03*
X0186331Y0124457D03*
D24*
X0199264Y0130323D03*
X0204264Y0130323D03*
X0209264Y0130323D03*
X0214264Y0130323D03*
X0219264Y0130323D03*
X0224264Y0130323D03*
X0229264Y0130323D03*
X0234264Y0130323D03*
X0239264Y0130323D03*
X0244264Y0130323D03*
D25*
X0221764Y0089772D03*
D26*
X0332979Y0239055D03*
X0332979Y0241614D03*
X0332979Y0244173D03*
X0332979Y0246732D03*
X0341050Y0246732D03*
X0341050Y0244173D03*
X0341050Y0241614D03*
X0341050Y0239055D03*
D27*
X0028851Y0090756D03*
X0028851Y0065165D03*
D28*
X0342630Y0035343D03*
X0345189Y0035343D03*
X0347748Y0035343D03*
X0350307Y0035343D03*
X0352866Y0035343D03*
D29*
X0359953Y0034063D03*
X0335544Y0034063D03*
D30*
X0344402Y0024811D03*
X0351095Y0024811D03*
D31*
X0363890Y0024811D03*
X0331607Y0024811D03*
D32*
X0089874Y0045480D03*
X0038693Y0045480D03*
D33*
X0054441Y0032685D03*
X0074126Y0032685D03*
D34*
X0061803Y0080520D03*
D35*
X0122158Y0069496D03*
X0131213Y0069496D03*
X0140268Y0069496D03*
D36*
X0131213Y0094299D03*
M02*
