%
M48
M72
T01C0.01200
T02C0.01378
T03C0.01969
T04C0.02953
T05C0.08661
T06C0.11811
%
T01
X92237Y75992
X91843Y93709
X172945Y114969
X185937Y132685
X208772Y144890
X154835Y166150
X148929Y177961
X127276Y180323
X130657Y196627
X262315Y103551
X265071Y98039
X245386Y93709
X283181Y113394
X288300Y118118
X307985Y122449
X270977Y133866
X268221Y141740
X291055Y171268
X274520Y237016
X178457Y93709
X194599Y88984
T02
X194205Y81898
X194205Y64181
X202473Y64181
X221764Y62213
X228851Y74811
X241449Y66150
X242630Y82291
X245386Y84654
X250111Y100795
X246567Y104339
X225701Y121268
X222158Y109850
X211528Y114181
X193024Y132291
X166252Y113394
X178457Y109457
X142630Y132291
X128063Y126780
X106016Y121268
X82394Y140165
X68221Y125205
X56410Y140953
X64284Y156701
X95386Y159850
X100111Y176386
X76095Y207882
X64284Y207882
X67827Y221661
X91843Y235441
X80032Y249220
X131213Y239378
X165859Y205520
X180032Y203551
X180032Y186228
X198142Y180323
X211134Y168118
X198142Y156701
X161922Y147252
X143024Y160638
X78063Y105520
X20977Y121268
X245386Y180323
X243811Y186622
X255622Y195677
X312315Y190165
X339874Y196071
X351685Y196071
X367433Y188197
X345780Y166937
X335937Y156701
X326095Y152370
X324126Y137016
X334756Y132291
X317040Y118906
X309953Y108669
X302866Y106701
X282788Y118512
X329638Y109063
X359559Y117331
X363496Y134654
X359559Y164575
X332788Y215362
X325307Y213787
X319402Y223630
X315859Y223630
X320189Y237016
X330032Y235047
X339874Y227567
X359559Y231504
X351685Y247252
X319008Y249220
X313890Y80323
X310741Y76780
X311922Y70480
X281607Y61425
T03
X335937Y109457
X351685Y133079
T04
X372552Y151583
X373339Y103551
X379244Y66150
X224126Y147646
X223733Y174417
X180426Y146858
X162709Y176386
X198142Y223630
X194205Y233866
X69008Y242134
X42630Y232291
X43024Y181504
X52473Y152764
X40662Y137016
X40662Y77961
X371370Y243315
T05
X74126Y32685
X54441Y32685
T06
X20977Y30717
X20977Y251189
X391055Y251189
X391055Y30717
M30
