G75*
%MOIN*%
%OFA0B0*%
%FSLAX25Y25*%
%IPPOS*%
%LPD*%
%AMOC8*
5,1,8,0,0,1.08239X$1,22.5*
%
%ADD10C,0.00000*%
%ADD11R,0.05118X0.04724*%
%ADD12R,0.03150X0.03150*%
%ADD13R,0.01969X0.01378*%
%ADD14R,0.03937X0.04331*%
%ADD15C,0.39370*%
%ADD16C,0.01575*%
%ADD17C,0.02578*%
%ADD18C,0.02953*%
%ADD19C,0.05906*%
%ADD20C,0.04429*%
%ADD21C,0.02400*%
%ADD22C,0.03169*%
D10*
X0009166Y0005337D02*
X0009166Y0332109D01*
X0402866Y0332109D01*
X0402866Y0005337D01*
X0009166Y0005337D01*
X0019795Y0080928D02*
X0019797Y0081059D01*
X0019803Y0081191D01*
X0019813Y0081322D01*
X0019827Y0081453D01*
X0019845Y0081583D01*
X0019867Y0081712D01*
X0019892Y0081841D01*
X0019922Y0081969D01*
X0019956Y0082096D01*
X0019993Y0082223D01*
X0020034Y0082347D01*
X0020079Y0082471D01*
X0020128Y0082593D01*
X0020180Y0082714D01*
X0020236Y0082832D01*
X0020296Y0082950D01*
X0020359Y0083065D01*
X0020426Y0083178D01*
X0020496Y0083290D01*
X0020569Y0083399D01*
X0020645Y0083505D01*
X0020725Y0083610D01*
X0020808Y0083712D01*
X0020894Y0083811D01*
X0020983Y0083908D01*
X0021075Y0084002D01*
X0021170Y0084093D01*
X0021267Y0084182D01*
X0021367Y0084267D01*
X0021470Y0084349D01*
X0021575Y0084428D01*
X0021682Y0084504D01*
X0021792Y0084576D01*
X0021904Y0084645D01*
X0022018Y0084711D01*
X0022133Y0084773D01*
X0022251Y0084832D01*
X0022370Y0084887D01*
X0022491Y0084939D01*
X0022614Y0084986D01*
X0022738Y0085030D01*
X0022863Y0085071D01*
X0022989Y0085107D01*
X0023117Y0085140D01*
X0023245Y0085168D01*
X0023374Y0085193D01*
X0023504Y0085214D01*
X0023634Y0085231D01*
X0023765Y0085244D01*
X0023896Y0085253D01*
X0024027Y0085258D01*
X0024159Y0085259D01*
X0024290Y0085256D01*
X0024422Y0085249D01*
X0024553Y0085238D01*
X0024683Y0085223D01*
X0024813Y0085204D01*
X0024943Y0085181D01*
X0025071Y0085155D01*
X0025199Y0085124D01*
X0025326Y0085089D01*
X0025452Y0085051D01*
X0025576Y0085009D01*
X0025700Y0084963D01*
X0025821Y0084913D01*
X0025941Y0084860D01*
X0026060Y0084803D01*
X0026177Y0084743D01*
X0026291Y0084679D01*
X0026404Y0084611D01*
X0026515Y0084540D01*
X0026624Y0084466D01*
X0026730Y0084389D01*
X0026834Y0084308D01*
X0026935Y0084225D01*
X0027034Y0084138D01*
X0027130Y0084048D01*
X0027223Y0083955D01*
X0027314Y0083860D01*
X0027401Y0083762D01*
X0027486Y0083661D01*
X0027567Y0083558D01*
X0027645Y0083452D01*
X0027720Y0083344D01*
X0027792Y0083234D01*
X0027860Y0083122D01*
X0027925Y0083008D01*
X0027986Y0082891D01*
X0028044Y0082773D01*
X0028098Y0082653D01*
X0028149Y0082532D01*
X0028196Y0082409D01*
X0028239Y0082285D01*
X0028278Y0082160D01*
X0028314Y0082033D01*
X0028345Y0081905D01*
X0028373Y0081777D01*
X0028397Y0081648D01*
X0028417Y0081518D01*
X0028433Y0081387D01*
X0028445Y0081256D01*
X0028453Y0081125D01*
X0028457Y0080994D01*
X0028457Y0080862D01*
X0028453Y0080731D01*
X0028445Y0080600D01*
X0028433Y0080469D01*
X0028417Y0080338D01*
X0028397Y0080208D01*
X0028373Y0080079D01*
X0028345Y0079951D01*
X0028314Y0079823D01*
X0028278Y0079696D01*
X0028239Y0079571D01*
X0028196Y0079447D01*
X0028149Y0079324D01*
X0028098Y0079203D01*
X0028044Y0079083D01*
X0027986Y0078965D01*
X0027925Y0078848D01*
X0027860Y0078734D01*
X0027792Y0078622D01*
X0027720Y0078512D01*
X0027645Y0078404D01*
X0027567Y0078298D01*
X0027486Y0078195D01*
X0027401Y0078094D01*
X0027314Y0077996D01*
X0027223Y0077901D01*
X0027130Y0077808D01*
X0027034Y0077718D01*
X0026935Y0077631D01*
X0026834Y0077548D01*
X0026730Y0077467D01*
X0026624Y0077390D01*
X0026515Y0077316D01*
X0026404Y0077245D01*
X0026292Y0077177D01*
X0026177Y0077113D01*
X0026060Y0077053D01*
X0025941Y0076996D01*
X0025821Y0076943D01*
X0025700Y0076893D01*
X0025576Y0076847D01*
X0025452Y0076805D01*
X0025326Y0076767D01*
X0025199Y0076732D01*
X0025071Y0076701D01*
X0024943Y0076675D01*
X0024813Y0076652D01*
X0024683Y0076633D01*
X0024553Y0076618D01*
X0024422Y0076607D01*
X0024290Y0076600D01*
X0024159Y0076597D01*
X0024027Y0076598D01*
X0023896Y0076603D01*
X0023765Y0076612D01*
X0023634Y0076625D01*
X0023504Y0076642D01*
X0023374Y0076663D01*
X0023245Y0076688D01*
X0023117Y0076716D01*
X0022989Y0076749D01*
X0022863Y0076785D01*
X0022738Y0076826D01*
X0022614Y0076870D01*
X0022491Y0076917D01*
X0022370Y0076969D01*
X0022251Y0077024D01*
X0022133Y0077083D01*
X0022018Y0077145D01*
X0021904Y0077211D01*
X0021792Y0077280D01*
X0021682Y0077352D01*
X0021575Y0077428D01*
X0021470Y0077507D01*
X0021367Y0077589D01*
X0021267Y0077674D01*
X0021170Y0077763D01*
X0021075Y0077854D01*
X0020983Y0077948D01*
X0020894Y0078045D01*
X0020808Y0078144D01*
X0020725Y0078246D01*
X0020645Y0078351D01*
X0020569Y0078457D01*
X0020496Y0078566D01*
X0020426Y0078678D01*
X0020359Y0078791D01*
X0020296Y0078906D01*
X0020236Y0079024D01*
X0020180Y0079142D01*
X0020128Y0079263D01*
X0020079Y0079385D01*
X0020034Y0079509D01*
X0019993Y0079633D01*
X0019956Y0079760D01*
X0019922Y0079887D01*
X0019892Y0080015D01*
X0019867Y0080144D01*
X0019845Y0080273D01*
X0019827Y0080403D01*
X0019813Y0080534D01*
X0019803Y0080665D01*
X0019797Y0080797D01*
X0019795Y0080928D01*
X0019795Y0100613D02*
X0019797Y0100744D01*
X0019803Y0100876D01*
X0019813Y0101007D01*
X0019827Y0101138D01*
X0019845Y0101268D01*
X0019867Y0101397D01*
X0019892Y0101526D01*
X0019922Y0101654D01*
X0019956Y0101781D01*
X0019993Y0101908D01*
X0020034Y0102032D01*
X0020079Y0102156D01*
X0020128Y0102278D01*
X0020180Y0102399D01*
X0020236Y0102517D01*
X0020296Y0102635D01*
X0020359Y0102750D01*
X0020426Y0102863D01*
X0020496Y0102975D01*
X0020569Y0103084D01*
X0020645Y0103190D01*
X0020725Y0103295D01*
X0020808Y0103397D01*
X0020894Y0103496D01*
X0020983Y0103593D01*
X0021075Y0103687D01*
X0021170Y0103778D01*
X0021267Y0103867D01*
X0021367Y0103952D01*
X0021470Y0104034D01*
X0021575Y0104113D01*
X0021682Y0104189D01*
X0021792Y0104261D01*
X0021904Y0104330D01*
X0022018Y0104396D01*
X0022133Y0104458D01*
X0022251Y0104517D01*
X0022370Y0104572D01*
X0022491Y0104624D01*
X0022614Y0104671D01*
X0022738Y0104715D01*
X0022863Y0104756D01*
X0022989Y0104792D01*
X0023117Y0104825D01*
X0023245Y0104853D01*
X0023374Y0104878D01*
X0023504Y0104899D01*
X0023634Y0104916D01*
X0023765Y0104929D01*
X0023896Y0104938D01*
X0024027Y0104943D01*
X0024159Y0104944D01*
X0024290Y0104941D01*
X0024422Y0104934D01*
X0024553Y0104923D01*
X0024683Y0104908D01*
X0024813Y0104889D01*
X0024943Y0104866D01*
X0025071Y0104840D01*
X0025199Y0104809D01*
X0025326Y0104774D01*
X0025452Y0104736D01*
X0025576Y0104694D01*
X0025700Y0104648D01*
X0025821Y0104598D01*
X0025941Y0104545D01*
X0026060Y0104488D01*
X0026177Y0104428D01*
X0026291Y0104364D01*
X0026404Y0104296D01*
X0026515Y0104225D01*
X0026624Y0104151D01*
X0026730Y0104074D01*
X0026834Y0103993D01*
X0026935Y0103910D01*
X0027034Y0103823D01*
X0027130Y0103733D01*
X0027223Y0103640D01*
X0027314Y0103545D01*
X0027401Y0103447D01*
X0027486Y0103346D01*
X0027567Y0103243D01*
X0027645Y0103137D01*
X0027720Y0103029D01*
X0027792Y0102919D01*
X0027860Y0102807D01*
X0027925Y0102693D01*
X0027986Y0102576D01*
X0028044Y0102458D01*
X0028098Y0102338D01*
X0028149Y0102217D01*
X0028196Y0102094D01*
X0028239Y0101970D01*
X0028278Y0101845D01*
X0028314Y0101718D01*
X0028345Y0101590D01*
X0028373Y0101462D01*
X0028397Y0101333D01*
X0028417Y0101203D01*
X0028433Y0101072D01*
X0028445Y0100941D01*
X0028453Y0100810D01*
X0028457Y0100679D01*
X0028457Y0100547D01*
X0028453Y0100416D01*
X0028445Y0100285D01*
X0028433Y0100154D01*
X0028417Y0100023D01*
X0028397Y0099893D01*
X0028373Y0099764D01*
X0028345Y0099636D01*
X0028314Y0099508D01*
X0028278Y0099381D01*
X0028239Y0099256D01*
X0028196Y0099132D01*
X0028149Y0099009D01*
X0028098Y0098888D01*
X0028044Y0098768D01*
X0027986Y0098650D01*
X0027925Y0098533D01*
X0027860Y0098419D01*
X0027792Y0098307D01*
X0027720Y0098197D01*
X0027645Y0098089D01*
X0027567Y0097983D01*
X0027486Y0097880D01*
X0027401Y0097779D01*
X0027314Y0097681D01*
X0027223Y0097586D01*
X0027130Y0097493D01*
X0027034Y0097403D01*
X0026935Y0097316D01*
X0026834Y0097233D01*
X0026730Y0097152D01*
X0026624Y0097075D01*
X0026515Y0097001D01*
X0026404Y0096930D01*
X0026292Y0096862D01*
X0026177Y0096798D01*
X0026060Y0096738D01*
X0025941Y0096681D01*
X0025821Y0096628D01*
X0025700Y0096578D01*
X0025576Y0096532D01*
X0025452Y0096490D01*
X0025326Y0096452D01*
X0025199Y0096417D01*
X0025071Y0096386D01*
X0024943Y0096360D01*
X0024813Y0096337D01*
X0024683Y0096318D01*
X0024553Y0096303D01*
X0024422Y0096292D01*
X0024290Y0096285D01*
X0024159Y0096282D01*
X0024027Y0096283D01*
X0023896Y0096288D01*
X0023765Y0096297D01*
X0023634Y0096310D01*
X0023504Y0096327D01*
X0023374Y0096348D01*
X0023245Y0096373D01*
X0023117Y0096401D01*
X0022989Y0096434D01*
X0022863Y0096470D01*
X0022738Y0096511D01*
X0022614Y0096555D01*
X0022491Y0096602D01*
X0022370Y0096654D01*
X0022251Y0096709D01*
X0022133Y0096768D01*
X0022018Y0096830D01*
X0021904Y0096896D01*
X0021792Y0096965D01*
X0021682Y0097037D01*
X0021575Y0097113D01*
X0021470Y0097192D01*
X0021367Y0097274D01*
X0021267Y0097359D01*
X0021170Y0097448D01*
X0021075Y0097539D01*
X0020983Y0097633D01*
X0020894Y0097730D01*
X0020808Y0097829D01*
X0020725Y0097931D01*
X0020645Y0098036D01*
X0020569Y0098142D01*
X0020496Y0098251D01*
X0020426Y0098363D01*
X0020359Y0098476D01*
X0020296Y0098591D01*
X0020236Y0098709D01*
X0020180Y0098827D01*
X0020128Y0098948D01*
X0020079Y0099070D01*
X0020034Y0099194D01*
X0019993Y0099318D01*
X0019956Y0099445D01*
X0019922Y0099572D01*
X0019892Y0099700D01*
X0019867Y0099829D01*
X0019845Y0099958D01*
X0019827Y0100088D01*
X0019813Y0100219D01*
X0019803Y0100350D01*
X0019797Y0100482D01*
X0019795Y0100613D01*
D11*
X0171370Y0170613D03*
X0171370Y0183605D03*
X0171174Y0197660D03*
X0171174Y0210652D03*
X0189678Y0210652D03*
X0189678Y0197660D03*
X0189874Y0183605D03*
X0189874Y0170613D03*
X0215111Y0170613D03*
X0215111Y0183605D03*
X0214481Y0197660D03*
X0214481Y0210652D03*
X0232985Y0210652D03*
X0232985Y0197660D03*
X0233615Y0183605D03*
X0233615Y0170613D03*
X0232985Y0229550D03*
X0232985Y0242542D03*
X0214481Y0242542D03*
X0214481Y0229550D03*
X0189678Y0229156D03*
X0189678Y0242148D03*
X0171174Y0242148D03*
X0171174Y0229156D03*
D12*
X0067959Y0279093D03*
X0062053Y0279093D03*
D13*
X0332979Y0276471D03*
X0332979Y0273912D03*
X0332979Y0271353D03*
X0332979Y0268794D03*
X0341050Y0268794D03*
X0341050Y0271353D03*
X0341050Y0273912D03*
X0341050Y0276471D03*
D14*
X0359559Y0276400D03*
X0359559Y0269707D03*
D15*
X0288693Y0241557D03*
X0288693Y0178565D03*
X0288693Y0119510D03*
X0115465Y0115573D03*
X0115465Y0178565D03*
X0115465Y0241557D03*
D16*
X0130657Y0226365D01*
X0127276Y0210061D02*
X0127276Y0178565D01*
X0115465Y0178565D01*
X0148929Y0168723D02*
X0148929Y0207699D01*
X0156410Y0202187D02*
X0160937Y0197660D01*
X0171174Y0197660D01*
X0154835Y0195888D02*
X0154835Y0176991D01*
X0169402Y0162424D01*
X0185937Y0162424D01*
X0189874Y0155731D02*
X0170189Y0155731D01*
X0152079Y0173841D01*
X0152079Y0240376D01*
X0131213Y0261243D01*
X0131213Y0265180D01*
X0131213Y0269117D01*
X0091843Y0234077D02*
X0081607Y0244313D01*
X0070977Y0244313D01*
X0070977Y0244313D01*
X0064284Y0237620D01*
X0068221Y0236046D02*
X0068221Y0190376D01*
X0064284Y0186439D01*
X0072158Y0178565D02*
X0068221Y0174628D01*
X0052473Y0174628D01*
X0024914Y0174628D01*
X0020977Y0170691D01*
X0020977Y0151006D01*
X0052473Y0174628D02*
X0056410Y0170691D01*
X0072158Y0178565D02*
X0072158Y0233683D01*
X0076095Y0237620D01*
X0073733Y0241557D02*
X0069008Y0236833D01*
X0068221Y0236046D01*
X0073733Y0241557D02*
X0080032Y0241557D01*
X0087906Y0233683D01*
X0087906Y0143132D01*
X0091843Y0139195D01*
X0178457Y0139195D01*
X0172945Y0144707D02*
X0148929Y0168723D01*
X0161922Y0176991D02*
X0168300Y0170613D01*
X0171370Y0170613D01*
X0189874Y0183605D02*
X0195307Y0183605D01*
X0198142Y0186439D01*
X0208772Y0174628D02*
X0208772Y0172266D01*
X0210426Y0170613D01*
X0215111Y0170613D01*
X0225701Y0170691D02*
X0229638Y0174628D01*
X0229638Y0179353D01*
X0227276Y0181715D01*
X0227276Y0199825D01*
X0232000Y0204550D01*
X0244992Y0204550D01*
X0249717Y0209274D01*
X0249717Y0216754D01*
X0255622Y0222660D01*
X0255622Y0225416D01*
X0250898Y0223447D02*
X0250898Y0236046D01*
X0244402Y0242542D01*
X0232985Y0242542D01*
X0214481Y0229550D02*
X0214087Y0229550D01*
X0202079Y0241557D01*
X0190268Y0241557D01*
X0189678Y0242148D01*
X0180032Y0233290D02*
X0180032Y0231321D01*
X0177866Y0229156D01*
X0171174Y0229156D01*
X0189678Y0210652D02*
X0190268Y0210061D01*
X0198142Y0210061D01*
X0211134Y0197857D02*
X0214284Y0197857D01*
X0214481Y0197660D01*
X0232985Y0210652D02*
X0244796Y0210652D01*
X0245386Y0210061D01*
X0243811Y0216361D02*
X0250898Y0223447D01*
X0277670Y0219904D02*
X0248536Y0190770D01*
X0248536Y0169117D01*
X0237906Y0158487D01*
X0237906Y0150613D01*
X0231607Y0144313D01*
X0231607Y0138408D01*
X0226489Y0133290D01*
X0207985Y0133290D01*
X0206016Y0131321D01*
X0206016Y0123447D01*
X0201292Y0118723D01*
X0194599Y0118723D01*
X0178457Y0115573D02*
X0178457Y0123447D01*
X0178457Y0115573D02*
X0154835Y0091951D01*
X0106016Y0091951D01*
X0092237Y0105731D01*
X0072158Y0107699D02*
X0072158Y0151006D01*
X0068221Y0154943D01*
X0091843Y0147069D02*
X0095780Y0143132D01*
X0166252Y0143132D01*
X0189874Y0155731D02*
X0196174Y0149431D01*
X0215071Y0149431D01*
X0219008Y0145494D01*
X0219008Y0141557D01*
X0220977Y0139589D01*
X0222158Y0139589D01*
X0235544Y0143526D02*
X0241449Y0149431D01*
X0241449Y0157306D01*
X0252473Y0168329D01*
X0252473Y0190376D01*
X0278457Y0216361D01*
X0314678Y0216361D01*
X0316252Y0217935D01*
X0316252Y0253369D01*
X0312315Y0257306D01*
X0316252Y0253369D02*
X0316252Y0269117D01*
X0323607Y0276471D01*
X0332979Y0276471D01*
X0332979Y0273912D02*
X0324591Y0273912D01*
X0319402Y0268723D01*
X0319402Y0265180D01*
X0319402Y0217148D01*
X0316252Y0213998D01*
X0280426Y0213998D01*
X0255622Y0189195D01*
X0255622Y0167148D01*
X0244599Y0156124D01*
X0244599Y0148644D01*
X0238300Y0142345D01*
X0238300Y0121479D01*
X0245386Y0114392D01*
X0242630Y0112030D02*
X0235544Y0119117D01*
X0235544Y0143526D01*
X0225701Y0151006D02*
X0225701Y0170691D01*
X0246961Y0154550D02*
X0258181Y0165770D01*
X0258181Y0166754D01*
X0258181Y0165770D01*
X0258181Y0166754D02*
X0258181Y0187424D01*
X0281607Y0210849D01*
X0334756Y0210849D01*
X0342630Y0202975D01*
X0343615Y0201991D01*
X0343615Y0201991D01*
X0345780Y0199825D01*
X0345780Y0196676D01*
X0332000Y0194313D02*
X0332000Y0164786D01*
X0332985Y0163802D01*
X0334756Y0162030D01*
X0324126Y0166754D02*
X0320977Y0163605D01*
X0320977Y0100613D01*
X0320189Y0099825D01*
X0318221Y0097857D01*
X0317827Y0097463D01*
X0243024Y0097463D01*
X0241449Y0095888D01*
X0237512Y0091951D01*
X0221764Y0091951D01*
X0229638Y0097463D02*
X0213496Y0097463D01*
X0209559Y0093526D01*
X0174126Y0093526D01*
X0165465Y0084865D01*
X0094992Y0084865D01*
X0072158Y0107699D01*
X0091843Y0123447D02*
X0107591Y0123447D01*
X0115465Y0115573D01*
X0091843Y0147069D02*
X0091843Y0234077D01*
X0080032Y0278959D02*
X0079898Y0279093D01*
X0067959Y0279093D01*
X0246961Y0154550D02*
X0246961Y0134471D01*
X0246567Y0134077D01*
X0250111Y0134471D02*
X0250111Y0130534D01*
X0250111Y0134471D02*
X0250111Y0152975D01*
X0261528Y0164392D01*
X0261528Y0186833D01*
X0283181Y0208487D01*
X0317827Y0208487D01*
X0332000Y0194313D01*
X0329638Y0192739D02*
X0316252Y0206124D01*
X0284756Y0206124D01*
X0265071Y0186439D01*
X0265071Y0127778D01*
X0262315Y0133290D02*
X0252473Y0123447D01*
X0245386Y0123447D01*
X0243024Y0097463D02*
X0241449Y0095888D01*
X0285150Y0123054D02*
X0285150Y0141951D01*
X0283969Y0143132D01*
X0283181Y0143132D01*
X0288300Y0147857D02*
X0303654Y0147857D01*
X0307985Y0152187D01*
X0317040Y0148644D02*
X0317040Y0114392D01*
X0314678Y0112030D01*
X0310741Y0110061D02*
X0308378Y0107699D01*
X0310741Y0110061D02*
X0310741Y0136439D01*
X0329638Y0138802D02*
X0329638Y0192739D01*
X0359559Y0194313D02*
X0359559Y0213998D01*
X0363496Y0217935D01*
X0367433Y0217935D01*
X0312315Y0219904D02*
X0277670Y0219904D01*
X0291055Y0201006D02*
X0288693Y0198644D01*
X0288693Y0178565D01*
X0268221Y0171479D02*
X0268221Y0166361D01*
X0270977Y0163605D01*
X0285150Y0123054D02*
X0288693Y0119510D01*
X0320189Y0099825D02*
X0320977Y0100613D01*
X0359559Y0147069D02*
X0360347Y0147069D01*
X0361528Y0148250D01*
X0361528Y0162424D01*
X0363496Y0164392D01*
X0288693Y0241557D02*
X0277670Y0252581D01*
X0277670Y0263998D01*
X0277276Y0263998D01*
X0274520Y0266754D01*
X0319402Y0265180D02*
X0320189Y0265180D01*
X0324126Y0261243D01*
X0332000Y0265180D02*
X0332000Y0267815D01*
X0332979Y0268794D01*
X0332979Y0271353D02*
X0335670Y0271353D01*
X0338435Y0268587D02*
X0338641Y0268794D01*
X0341050Y0268794D01*
X0341050Y0271353D02*
X0344725Y0271353D01*
X0345386Y0270691D01*
X0341252Y0273912D02*
X0343811Y0276471D01*
X0341252Y0273912D02*
X0341050Y0273912D01*
D17*
X0345386Y0270691D03*
X0332000Y0265180D03*
X0326489Y0268329D03*
X0324126Y0261243D03*
X0312315Y0257306D03*
X0332788Y0245101D03*
X0339874Y0225809D03*
X0351685Y0225809D03*
X0367433Y0217935D03*
X0345780Y0196676D03*
X0359559Y0194313D03*
X0363496Y0164392D03*
X0359559Y0147069D03*
X0334756Y0162030D03*
X0324126Y0166754D03*
X0317040Y0148644D03*
X0329638Y0138802D03*
X0310741Y0136439D03*
X0314678Y0112030D03*
X0308378Y0107699D03*
X0304441Y0103762D03*
X0281607Y0091164D03*
X0245386Y0114392D03*
X0242630Y0112030D03*
X0229638Y0097463D03*
X0221764Y0091951D03*
X0198142Y0088014D03*
X0250111Y0130534D03*
X0246567Y0134077D03*
X0225701Y0151006D03*
X0222158Y0139589D03*
X0178457Y0139195D03*
X0166252Y0143132D03*
X0161922Y0176991D03*
X0156410Y0202187D03*
X0198142Y0210061D03*
X0211134Y0197857D03*
X0198142Y0186439D03*
X0243811Y0216361D03*
X0245386Y0210061D03*
X0255622Y0225416D03*
X0312315Y0219904D03*
X0370583Y0269510D03*
X0180032Y0233290D03*
X0131213Y0269117D03*
X0091843Y0265180D03*
X0080032Y0278959D03*
X0067827Y0251400D03*
X0064284Y0237620D03*
X0076095Y0237620D03*
X0064284Y0186439D03*
X0056410Y0170691D03*
X0068221Y0154943D03*
X0020977Y0151006D03*
D18*
X0067827Y0251400D02*
X0078063Y0251400D01*
X0091843Y0265180D01*
X0069008Y0271872D02*
X0066252Y0271872D01*
X0062053Y0276071D01*
X0062053Y0279093D01*
X0162709Y0206124D02*
X0166646Y0206124D01*
X0171174Y0210652D01*
X0171370Y0183605D02*
X0178536Y0183605D01*
X0180426Y0181715D01*
X0180426Y0176597D01*
X0215111Y0183605D02*
X0221055Y0183605D01*
X0224126Y0180534D01*
X0224126Y0177384D01*
X0223733Y0204156D02*
X0223733Y0208093D01*
X0221764Y0210061D01*
X0215071Y0210061D01*
X0214481Y0210652D01*
X0326489Y0263998D02*
X0337118Y0253369D01*
X0339874Y0253369D01*
X0339874Y0237620D01*
X0339874Y0238014D01*
X0332788Y0245101D01*
X0339874Y0237620D02*
X0339874Y0225809D01*
X0351685Y0225809D02*
X0355622Y0225809D01*
X0359559Y0229746D01*
X0359559Y0269707D01*
X0370386Y0269707D01*
X0370583Y0269510D01*
X0359559Y0276400D02*
X0358575Y0276400D01*
X0350898Y0268723D01*
X0341646Y0259471D01*
X0339874Y0257699D01*
X0339874Y0253369D01*
X0326489Y0263998D02*
X0326489Y0268329D01*
X0335670Y0271353D02*
X0340788Y0276471D01*
X0341050Y0276471D01*
X0343811Y0276471D01*
X0345386Y0276471D01*
X0349055Y0276471D01*
X0350111Y0275416D01*
X0350898Y0274628D01*
X0350898Y0268723D01*
X0338435Y0268587D02*
X0335670Y0271353D01*
X0281607Y0091164D02*
X0278457Y0088014D01*
X0198142Y0088014D01*
D19*
X0195307Y0170613D02*
X0189874Y0170613D01*
X0195307Y0170613D02*
X0204441Y0179746D01*
X0204441Y0205337D01*
X0196764Y0197660D01*
X0189678Y0197660D01*
X0204441Y0205337D02*
X0204441Y0212424D01*
X0213890Y0221872D01*
X0230426Y0221872D01*
X0232985Y0224431D01*
X0232985Y0229550D01*
X0213890Y0221872D02*
X0204835Y0221872D01*
X0197552Y0229156D01*
X0189678Y0229156D01*
X0204835Y0221872D02*
X0165071Y0221872D01*
X0158772Y0228172D01*
X0158772Y0245494D01*
X0176882Y0263605D01*
X0194205Y0263605D01*
X0231213Y0263605D01*
X0269008Y0225809D01*
X0269008Y0217935D01*
X0248733Y0197660D01*
X0232985Y0197660D01*
X0243811Y0192739D02*
X0248733Y0197660D01*
X0243811Y0192739D02*
X0243811Y0173447D01*
X0241055Y0170691D01*
X0233693Y0170691D01*
X0233615Y0170613D01*
X0214481Y0242542D02*
X0203654Y0253369D01*
X0198142Y0253369D01*
X0182394Y0253369D01*
X0171174Y0242148D01*
X0335937Y0139195D02*
X0351685Y0154943D01*
X0351685Y0162817D01*
D20*
X0224126Y0177384D03*
X0223733Y0204156D03*
X0180426Y0176597D03*
X0162709Y0206124D03*
X0198142Y0253369D03*
X0194205Y0263605D03*
X0069008Y0271872D03*
D21*
X0130657Y0226365D03*
X0127276Y0210061D03*
X0148929Y0207699D03*
X0154835Y0195888D03*
X0185937Y0162424D03*
X0172945Y0144707D03*
X0178457Y0123447D03*
X0194599Y0118723D03*
X0245386Y0123447D03*
X0262315Y0133290D03*
X0265071Y0127778D03*
X0283181Y0143132D03*
X0288300Y0147857D03*
X0270977Y0163605D03*
X0268221Y0171479D03*
X0291055Y0201006D03*
X0307985Y0152187D03*
X0208772Y0174628D03*
X0274520Y0266754D03*
X0091843Y0123447D03*
X0092237Y0105731D03*
D22*
X0335937Y0139195D03*
X0351685Y0162817D03*
M02*
